<svg width="18" height="18" viewBox="0 0 18 18" fill="none" xmlns="http://www.w3.org/2000/svg">
<g clip-path="url(#clip0_64_38)">
<path d="M17.7651 6.54526L13.265 10.7948C12.7906 11.2428 12 10.9106 12 10.2495V8.00069C7.48203 8.03101 5.57606 9.09797 6.85078 13.3555C6.99088 13.8234 6.44934 14.1857 6.06934 13.897C4.85162 12.972 3.75 11.2028 3.75 9.41685C3.75 4.91882 7.42497 4.02623 12 4.00085V1.75038C12 1.08869 12.7912 0.757632 13.265 1.20513L17.7651 5.45476C18.0782 5.75048 18.0784 6.24929 17.7651 6.54526ZM12 12.8478V15H2V5.00001H3.59113C3.64162 4.99997 3.69159 4.98974 3.73804 4.9699C3.78448 4.95007 3.82643 4.92106 3.86138 4.8846C4.32866 4.3981 4.86878 4.01304 5.45556 3.70723C5.80338 3.52594 5.6745 3.00001 5.28228 3.00001H1.5C0.671562 3.00001 0 3.67157 0 4.50001V15.5C0 16.3284 0.671562 17 1.5 17H12.5C13.3284 17 14 16.3284 14 15.5V12.7248C14 12.4658 13.7438 12.2853 13.4997 12.3716C13.1573 12.4927 12.7907 12.5289 12.4312 12.4772C12.2041 12.4445 12 12.6182 12 12.8478Z" fill="black"/>
</g>
<defs>
<clipPath id="clip0_64_38">
<rect width="18" height="18" fill="white"/>
</clipPath>
</defs>
</svg>
