<svg width="23" height="23" viewBox="0 0 23 23" fill="none" xmlns="http://www.w3.org/2000/svg">
<g clip-path="url(#clip0_84_664)">
<path d="M11.5 0.285156C5.14625 0.285156 0 5.43428 0 11.7852C0 16.8672 3.29475 21.1768 7.86312 22.6958C8.43812 22.8041 8.64896 22.4485 8.64896 22.1428C8.64896 21.8697 8.63937 21.1462 8.63458 20.1878C5.43567 20.8817 4.761 18.6449 4.761 18.6449C4.23775 17.3176 3.48162 16.963 3.48162 16.963C2.43992 16.25 3.56212 16.2644 3.56212 16.2644C4.71692 16.3449 5.32354 17.4489 5.32354 17.4489C6.34896 19.2074 8.0155 18.6995 8.67292 18.4053C8.77642 17.6617 9.07254 17.1547 9.40125 16.8672C6.84729 16.5797 4.163 15.5907 4.163 11.1843C4.163 9.92886 4.60862 8.90345 5.34654 8.09845C5.21717 7.80807 4.82904 6.63891 5.44717 5.05478C5.44717 5.05478 6.41029 4.7462 8.60967 6.23353C9.52967 5.97766 10.5072 5.85116 11.4847 5.84541C12.4622 5.85116 13.4397 5.97766 14.3597 6.23353C16.5447 4.7462 17.5078 5.05478 17.5078 5.05478C18.1259 6.63891 17.7378 7.80807 17.6228 8.09845C18.3559 8.90345 18.8015 9.92886 18.8015 11.1843C18.8015 15.6022 16.1134 16.5749 13.5547 16.8576C13.9572 17.2026 14.3309 17.9079 14.3309 18.9851C14.3309 20.5242 14.3165 21.7604 14.3165 22.1342C14.3165 22.4361 14.5178 22.7954 15.1072 22.6804C19.7081 21.172 23 16.8595 23 11.7852C23 5.43428 17.8509 0.285156 11.5 0.285156Z" fill="#B8B8B8"/>
</g>
<defs>
<clipPath id="clip0_84_664">
<rect width="23" height="23" fill="white"/>
</clipPath>
</defs>
</svg>
