<svg width="24" height="23" viewBox="0 0 24 23" fill="none" xmlns="http://www.w3.org/2000/svg">
<g clip-path="url(#clip0_84_180)">
<path d="M17.2212 0H6.9156C3.41587 0 0.568604 2.8474 0.568604 6.34713V16.6527C0.568604 20.1526 3.41587 22.9999 6.9156 22.9999H17.2212C20.7212 22.9999 23.5685 20.1525 23.5685 16.6527V6.34713C23.5686 2.8474 20.7212 0 17.2212 0ZM21.5279 16.6527C21.5279 19.0274 19.596 20.9592 17.2213 20.9592H6.9156C4.54109 20.9593 2.60926 19.0274 2.60926 16.6527V6.34713C2.60926 3.97262 4.54109 2.04066 6.9156 2.04066H17.2212C19.5958 2.04066 21.5278 3.97262 21.5278 6.34713V16.6527H21.5279Z" fill="white"/>
<path d="M12.0686 5.57373C8.80066 5.57373 6.14209 8.2323 6.14209 11.5002C6.14209 14.768 8.80066 17.4264 12.0686 17.4264C15.3365 17.4264 17.9951 14.768 17.9951 11.5002C17.9951 8.2323 15.3365 5.57373 12.0686 5.57373ZM12.0686 15.3856C9.92602 15.3856 8.18275 13.6426 8.18275 11.5001C8.18275 9.35738 9.92588 7.61425 12.0686 7.61425C14.2113 7.61425 15.9544 9.35738 15.9544 11.5001C15.9544 13.6426 14.2111 15.3856 12.0686 15.3856Z" fill="white"/>
<path d="M18.2436 3.84326C17.8504 3.84326 17.4642 4.00243 17.1865 4.28132C16.9075 4.55885 16.7471 4.94522 16.7471 5.33975C16.7471 5.73305 16.9076 6.11928 17.1865 6.39817C17.464 6.6757 17.8504 6.83623 18.2436 6.83623C18.6381 6.83623 19.0231 6.6757 19.302 6.39817C19.5809 6.11928 19.74 5.73291 19.74 5.33975C19.74 4.94522 19.5809 4.55885 19.302 4.28132C19.0244 4.00243 18.6381 3.84326 18.2436 3.84326Z" fill="white"/>
</g>
<defs>
<clipPath id="clip0_84_180">
<rect width="23" height="23" fill="white" transform="translate(0.568604)"/>
</clipPath>
</defs>
</svg>
