<svg width="23" height="23" viewBox="0 0 23 23" fill="none" xmlns="http://www.w3.org/2000/svg">
<g clip-path="url(#clip0_84_668)">
<path d="M16.6526 0H6.34699C2.84726 0 0 2.8474 0 6.34713V16.6527C0 20.1526 2.84726 22.9999 6.34699 22.9999H16.6526C20.1526 22.9999 22.9999 20.1525 22.9999 16.6527V6.34713C23 2.8474 20.1526 0 16.6526 0ZM20.9593 16.6527C20.9593 19.0274 19.0274 20.9592 16.6527 20.9592H6.34699C3.97248 20.9593 2.04066 19.0274 2.04066 16.6527V6.34713C2.04066 3.97262 3.97248 2.04066 6.34699 2.04066H16.6526C19.0272 2.04066 20.9592 3.97262 20.9592 6.34713V16.6527H20.9593Z" fill="#B8B8B8"/>
<path d="M11.4999 5.57373C8.23203 5.57373 5.57346 8.2323 5.57346 11.5002C5.57346 14.768 8.23203 17.4264 11.4999 17.4264C14.7679 17.4264 17.4264 14.768 17.4264 11.5002C17.4264 8.2323 14.7679 5.57373 11.4999 5.57373ZM11.4999 15.3856C9.35738 15.3856 7.61412 13.6426 7.61412 11.5001C7.61412 9.35738 9.35725 7.61425 11.4999 7.61425C13.6426 7.61425 15.3858 9.35738 15.3858 11.5001C15.3858 13.6426 13.6425 15.3856 11.4999 15.3856Z" fill="#B8B8B8"/>
<path d="M17.675 3.84326C17.2818 3.84326 16.8956 4.00243 16.6179 4.28132C16.3389 4.55885 16.1785 4.94522 16.1785 5.33975C16.1785 5.73305 16.339 6.11928 16.6179 6.39817C16.8954 6.6757 17.2818 6.83623 17.675 6.83623C18.0695 6.83623 18.4545 6.6757 18.7334 6.39817C19.0123 6.11928 19.1714 5.73291 19.1714 5.33975C19.1714 4.94522 19.0123 4.55885 18.7334 4.28132C18.4558 4.00243 18.0695 3.84326 17.675 3.84326Z" fill="#B8B8B8"/>
</g>
<defs>
<clipPath id="clip0_84_668">
<rect width="23" height="23" fill="white"/>
</clipPath>
</defs>
</svg>
