<svg width="23" height="23" viewBox="0 0 23 23" fill="none" xmlns="http://www.w3.org/2000/svg">
<g clip-path="url(#clip0_84_673)">
<path d="M5.35379 7.39941H0.736507C0.531585 7.39941 0.36554 7.56553 0.36554 7.77038V22.6037C0.36554 22.8087 0.531585 22.9747 0.736507 22.9747H5.35379C5.55872 22.9747 5.72476 22.8087 5.72476 22.6037V7.77038C5.72476 7.56553 5.55872 7.39941 5.35379 7.39941Z" fill="#B8B8B8"/>
<path d="M3.04683 0.0253906C1.36679 0.0253906 0 1.3907 0 3.06888C0 4.74781 1.36679 6.11364 3.04683 6.11364C4.72554 6.11364 6.09122 4.74774 6.09122 3.06888C6.09129 1.3907 4.72554 0.0253906 3.04683 0.0253906Z" fill="#B8B8B8"/>
<path d="M17.0982 7.03076C15.2437 7.03076 13.8728 7.82797 13.0414 8.7338V7.7704C13.0414 7.56555 12.8753 7.39943 12.6704 7.39943H8.24853C8.04361 7.39943 7.87756 7.56555 7.87756 7.7704V22.6038C7.87756 22.8087 8.04361 22.9747 8.24853 22.9747H12.8557C13.0606 22.9747 13.2267 22.8087 13.2267 22.6038V15.2647C13.2267 12.7916 13.8984 11.8281 15.6224 11.8281C17.4999 11.8281 17.6492 13.3727 17.6492 15.3919V22.6038C17.6492 22.8088 17.8152 22.9748 18.0201 22.9748H22.629C22.8339 22.9748 23 22.8088 23 22.6038V14.4675C23 10.7901 22.2988 7.03076 17.0982 7.03076Z" fill="#B8B8B8"/>
</g>
<defs>
<clipPath id="clip0_84_673">
<rect width="23" height="23" fill="white"/>
</clipPath>
</defs>
</svg>
