<svg width="24" height="23" viewBox="0 0 24 23" fill="none" xmlns="http://www.w3.org/2000/svg">
<g clip-path="url(#clip0_84_185)">
<path d="M5.60349 7.39941H0.986202C0.78128 7.39941 0.615234 7.56553 0.615234 7.77038V22.6037C0.615234 22.8087 0.78128 22.9747 0.986202 22.9747H5.60349C5.80841 22.9747 5.97446 22.8087 5.97446 22.6037V7.77038C5.97446 7.56553 5.80841 7.39941 5.60349 7.39941Z" fill="white"/>
<path d="M3.29659 0.0253906C1.61655 0.0253906 0.249756 1.3907 0.249756 3.06888C0.249756 4.74781 1.61655 6.11364 3.29659 6.11364C4.97529 6.11364 6.34097 4.74774 6.34097 3.06888C6.34105 1.3907 4.97529 0.0253906 3.29659 0.0253906Z" fill="white"/>
<path d="M17.3478 7.03076C15.4934 7.03076 14.1225 7.82797 13.291 8.7338V7.7704C13.291 7.56555 13.1249 7.39943 12.92 7.39943H8.49816C8.29324 7.39943 8.1272 7.56555 8.1272 7.7704V22.6038C8.1272 22.8087 8.29324 22.9747 8.49816 22.9747H13.1054C13.3103 22.9747 13.4763 22.8087 13.4763 22.6038V15.2647C13.4763 12.7916 14.1481 11.8281 15.872 11.8281C17.7496 11.8281 17.8988 13.3727 17.8988 15.3919V22.6038C17.8988 22.8088 18.0648 22.9748 18.2698 22.9748H22.8787C23.0836 22.9748 23.2496 22.8088 23.2496 22.6038V14.4675C23.2496 10.7901 22.5484 7.03076 17.3478 7.03076Z" fill="white"/>
</g>
<defs>
<clipPath id="clip0_84_185">
<rect width="23" height="23" fill="white" transform="translate(0.249756)"/>
</clipPath>
</defs>
</svg>
