<svg width="23" height="23" viewBox="0 0 23 23" fill="none" xmlns="http://www.w3.org/2000/svg">
<g clip-path="url(#clip0_84_666)">
<path d="M0.0545044 23L1.67121 17.0938C0.673588 15.365 0.149379 13.4052 0.150338 11.3955C0.153213 5.11271 5.26592 0 11.5478 0C14.5963 0.000958333 17.4578 1.18833 19.6103 3.34267C21.7617 5.497 22.9462 8.3605 22.9453 11.4061C22.9424 17.6899 17.8297 22.8026 11.5478 22.8026C9.64071 22.8016 7.76142 22.3234 6.0968 21.4149L0.0545044 23ZM6.37663 19.3516C7.9828 20.3052 9.51613 20.8763 11.544 20.8773C16.765 20.8773 21.018 16.628 21.0209 11.4042C21.0228 6.16975 16.7899 1.92625 11.5516 1.92433C6.3268 1.92433 2.07659 6.17358 2.07467 11.3965C2.07371 13.5288 2.69855 15.1254 3.74792 16.7957L2.79055 20.2917L6.37663 19.3516ZM17.2892 14.1153C17.2183 13.9965 17.0285 13.9255 16.7429 13.7828C16.4583 13.64 15.0582 12.9509 14.7965 12.856C14.5359 12.7612 14.3461 12.7133 14.1554 12.9988C13.9657 13.2835 13.4194 13.9255 13.2536 14.1153C13.0878 14.305 12.9211 14.329 12.6365 14.1862C12.3518 14.0434 11.4338 13.7435 10.346 12.7727C9.49984 12.0175 8.92771 11.085 8.76192 10.7995C8.59613 10.5148 8.74467 10.3605 8.8865 10.2187C9.01492 10.0912 9.17113 9.88617 9.31392 9.71942C9.45863 9.55458 9.50559 9.43575 9.60142 9.24504C9.6963 9.05529 9.64934 8.88854 9.57746 8.74575C9.50559 8.60392 8.93634 7.20187 8.69963 6.63167C8.46771 6.07679 8.23292 6.15154 8.0585 6.14292L7.51225 6.13333C7.3225 6.13333 7.01392 6.20425 6.75325 6.48983C6.49259 6.77542 5.75659 7.4635 5.75659 8.86554C5.75659 10.2676 6.77721 11.6217 6.91905 11.8115C7.06184 12.0012 8.92675 14.8781 11.7835 16.1115C12.463 16.4048 12.9939 16.5801 13.407 16.7114C14.0893 16.928 14.7103 16.8973 15.201 16.8245C15.7482 16.743 16.8857 16.1355 17.1234 15.4704C17.361 14.8043 17.361 14.2341 17.2892 14.1153Z" fill="#B8B8B8"/>
</g>
<defs>
<clipPath id="clip0_84_666">
<rect width="23" height="23" fill="white"/>
</clipPath>
</defs>
</svg>
