<svg width="24" height="23" viewBox="0 0 24 23" fill="none" xmlns="http://www.w3.org/2000/svg">
<g clip-path="url(#clip0_84_178)">
<path d="M0.963623 23L2.58033 17.0938C1.58271 15.365 1.0585 13.4052 1.05946 11.3955C1.06233 5.11271 6.17504 0 12.4569 0C15.5054 0.000958333 18.367 1.18833 20.5194 3.34267C22.6708 5.497 23.8553 8.3605 23.8544 11.4061C23.8515 17.6899 18.7388 22.8026 12.4569 22.8026C10.5498 22.8016 8.67054 22.3234 7.00591 21.4149L0.963623 23ZM7.28575 19.3516C8.89191 20.3052 10.4252 20.8763 12.4531 20.8773C17.6741 20.8773 21.9272 16.628 21.93 11.4042C21.932 6.16975 17.699 1.92625 12.4607 1.92433C7.23591 1.92433 2.98571 6.17358 2.98379 11.3965C2.98283 13.5288 3.60766 15.1254 4.65704 16.7957L3.69966 20.2917L7.28575 19.3516ZM18.1983 14.1153C18.1274 13.9965 17.9376 13.9255 17.652 13.7827C17.3674 13.64 15.9673 12.9509 15.7057 12.856C15.445 12.7612 15.2552 12.7132 15.0645 12.9988C14.8748 13.2835 14.3285 13.9255 14.1627 14.1153C13.997 14.305 13.8302 14.329 13.5456 14.1862C13.261 14.0434 12.3429 13.7435 11.2552 12.7727C10.409 12.0175 9.83683 11.085 9.67104 10.7995C9.50525 10.5148 9.65379 10.3605 9.79562 10.2187C9.92404 10.0912 10.0802 9.88617 10.223 9.71942C10.3677 9.55458 10.4147 9.43575 10.5105 9.24504C10.6054 9.05529 10.5585 8.88854 10.4866 8.74575C10.4147 8.60392 9.84546 7.20187 9.60875 6.63167C9.37683 6.07679 9.14204 6.15154 8.96762 6.14292L8.42137 6.13333C8.23162 6.13333 7.92304 6.20425 7.66237 6.48983C7.40171 6.77542 6.66571 7.4635 6.66571 8.86554C6.66571 10.2676 7.68633 11.6217 7.82816 11.8115C7.97096 12.0012 9.83587 14.8781 12.6927 16.1115C13.3721 16.4047 13.903 16.5801 14.3161 16.7114C14.9984 16.928 15.6194 16.8973 16.1101 16.8245C16.6573 16.743 17.7948 16.1355 18.0325 15.4704C18.2702 14.8043 18.2702 14.2341 18.1983 14.1153Z" fill="white"/>
</g>
<defs>
<clipPath id="clip0_84_178">
<rect width="23" height="23" fill="white" transform="translate(0.90918)"/>
</clipPath>
</defs>
</svg>
