<svg width="23" height="23" viewBox="0 0 23 23" fill="none" xmlns="http://www.w3.org/2000/svg">
<g clip-path="url(#clip0_11_178)">
<path d="M14.23 11.5025L22.7725 2.95997C23.0758 2.65662 23.0758 2.16571 22.7725 1.86245L21.1399 0.229146C20.9945 0.0838317 20.7972 0.00201416 20.5913 0.00201416C20.3853 0.00201416 20.1879 0.0838317 20.0425 0.229146L11.5 8.77231L2.95751 0.229146C2.8121 0.0838317 2.61478 0.00201416 2.40878 0.00201416C2.20283 0.00201416 2.00546 0.0838317 1.8601 0.229146L0.227504 1.86245C-0.0758348 2.16571 -0.0758348 2.65662 0.227504 2.95997L8.77002 11.5025L0.228353 20.0441C-0.0748365 20.3474 -0.0748365 20.8383 0.228353 21.1416L1.86105 22.7749C2.00636 22.9202 2.20373 23.002 2.40973 23.002C2.61573 23.002 2.81305 22.9202 2.9585 22.7749L11.5 14.2327L20.0415 22.7749C20.1869 22.9202 20.3842 23.002 20.5902 23.002C20.7963 23.002 20.9936 22.9202 21.1389 22.7749L22.7716 21.1416C23.0748 20.8383 23.0748 20.3474 22.7716 20.0441L14.23 11.5025Z" fill="white"/>
</g>
<defs>
<clipPath id="clip0_11_178">
<rect width="23" height="23" fill="white"/>
</clipPath>
</defs>
</svg>
