<svg width="12" height="12" viewBox="0 0 12 12" fill="none" xmlns="http://www.w3.org/2000/svg">
<g clip-path="url(#clip0_8_34)">
<path d="M7.42436 6.00122L11.8813 1.54426C12.0396 1.38599 12.0396 1.12986 11.8813 0.971639L11.0295 0.11948C10.9537 0.043664 10.8507 0.000976562 10.7433 0.000976562C10.6358 0.000976562 10.5328 0.043664 10.457 0.11948L6.00001 4.57678L1.54305 0.11948C1.46718 0.043664 1.36423 0.000976562 1.25675 0.000976562C1.1493 0.000976562 1.04633 0.043664 0.970489 0.11948L0.118698 0.971639C-0.039566 1.12986 -0.039566 1.38599 0.118698 1.54426L4.57566 6.00125L0.119141 10.4577C-0.0390451 10.616 -0.0390451 10.8721 0.119141 11.0303L0.970984 11.8825C1.0468 11.9583 1.14977 12.001 1.25725 12.001C1.36473 12.001 1.46768 11.9583 1.54357 11.8825L5.99998 7.42569L10.4564 11.8825C10.5323 11.9583 10.6352 12.001 10.7427 12.001C10.8502 12.001 10.9532 11.9583 11.029 11.8825L11.8808 11.0303C12.039 10.8721 12.039 10.616 11.8808 10.4577L7.42436 6.00122Z" fill="white"/>
</g>
<defs>
<clipPath id="clip0_8_34">
<rect width="12" height="12" fill="white"/>
</clipPath>
</defs>
</svg>
