<svg width="12" height="12" viewBox="0 0 12 12" fill="none" xmlns="http://www.w3.org/2000/svg">
<g clip-path="url(#clip0_11_100)">
<path d="M11.4023 5.92705C11.2162 5.92705 11.0673 6.07233 11.0673 6.25394V9.2275C11.0673 10.0363 10.3924 10.6925 9.56612 10.6925H2.21647C1.38771 10.6925 0.715273 10.0338 0.715273 9.2275V6.20551C0.715273 6.0239 0.566394 5.87862 0.380296 5.87862C0.194197 5.87862 0.0453186 6.0239 0.0453186 6.20551V9.2275C0.0453186 10.3971 1.02047 11.3463 2.21647 11.3463H9.56612C10.7646 11.3463 11.7373 10.3946 11.7373 9.2275V6.25394C11.7373 6.07475 11.5884 5.92705 11.4023 5.92705Z" fill="white"/>
<path d="M5.65556 8.75047C5.72007 8.81343 5.80692 8.84733 5.89128 8.84733C5.97565 8.84733 6.06249 8.81585 6.12701 8.75047L8.25597 6.67285C8.38748 6.54451 8.38748 6.33869 8.25597 6.21035C8.12446 6.08201 7.91355 6.08201 7.78204 6.21035L6.22626 7.73103V1.09864C6.22626 0.917032 6.07738 0.771744 5.89128 0.771744C5.70518 0.771744 5.5563 0.917032 5.5563 1.09864V7.73103L3.99804 6.21035C3.86653 6.08201 3.65562 6.08201 3.52411 6.21035C3.3926 6.33869 3.3926 6.54451 3.52411 6.67285L5.65556 8.75047Z" fill="white"/>
</g>
<defs>
<clipPath id="clip0_11_100">
<rect width="11.6919" height="11.4099" fill="white" transform="translate(0.0453186 0.354034)"/>
</clipPath>
</defs>
</svg>
