<svg width="40" height="40" viewBox="0 0 40 40" fill="none" xmlns="http://www.w3.org/2000/svg">
<g clip-path="url(#clip0_84_603)">
<path d="M20 0.495605C8.95 0.495605 0 9.45061 0 20.4956C0 29.3339 5.73 36.8289 13.675 39.4706C14.675 39.6589 15.0417 39.0406 15.0417 38.5089C15.0417 38.0339 15.025 36.7756 15.0167 35.1089C9.45333 36.3156 8.28 32.4256 8.28 32.4256C7.37 30.1173 6.055 29.5006 6.055 29.5006C4.24333 28.2606 6.195 28.2856 6.195 28.2856C8.20333 28.4256 9.25833 30.3456 9.25833 30.3456C11.0417 33.4039 13.94 32.5206 15.0833 32.0089C15.2633 30.7156 15.7783 29.8339 16.35 29.3339C11.9083 28.8339 7.24 27.1139 7.24 19.4506C7.24 17.2673 8.015 15.4839 9.29833 14.0839C9.07333 13.5789 8.39833 11.5456 9.47333 8.79061C9.47333 8.79061 11.1483 8.25394 14.9733 10.8406C16.5733 10.3956 18.2733 10.1756 19.9733 10.1656C21.6733 10.1756 23.3733 10.3956 24.9733 10.8406C28.7733 8.25394 30.4483 8.79061 30.4483 8.79061C31.5233 11.5456 30.8483 13.5789 30.6483 14.0839C31.9233 15.4839 32.6983 17.2673 32.6983 19.4506C32.6983 27.1339 28.0233 28.8256 23.5733 29.3173C24.2733 29.9173 24.9233 31.1439 24.9233 33.0173C24.9233 35.6939 24.8983 37.8439 24.8983 38.4939C24.8983 39.0189 25.2483 39.6439 26.2733 39.4439C34.275 36.8206 40 29.3206 40 20.4956C40 9.45061 31.045 0.495605 20 0.495605Z" fill="#B8B8B8"/>
</g>
<defs>
<clipPath id="clip0_84_603">
<rect width="40" height="40" fill="white"/>
</clipPath>
</defs>
</svg>
