<svg width="40" height="40" viewBox="0 0 40 40" fill="none" xmlns="http://www.w3.org/2000/svg">
<g clip-path="url(#clip0_84_612)">
<path d="M9.31097 12.8682H1.2809C0.924516 12.8682 0.635742 13.1571 0.635742 13.5133V39.3105C0.635742 39.6669 0.924516 39.9556 1.2809 39.9556H9.31097C9.66735 39.9556 9.95613 39.6669 9.95613 39.3105V13.5133C9.95613 13.1571 9.66735 12.8682 9.31097 12.8682Z" fill="#B8B8B8"/>
<path d="M5.29884 0.0439453C2.37703 0.0439453 0 2.4184 0 5.33698C0 8.25685 2.37703 10.6322 5.29884 10.6322C8.21832 10.6322 10.5934 8.25672 10.5934 5.33698C10.5935 2.4184 8.21832 0.0439453 5.29884 0.0439453Z" fill="#B8B8B8"/>
<path d="M29.7359 12.2271C26.5108 12.2271 24.1267 13.6135 22.6806 15.1889V13.5134C22.6806 13.1571 22.3918 12.8682 22.0354 12.8682H14.3452C13.9888 12.8682 13.7001 13.1571 13.7001 13.5134V39.3105C13.7001 39.6669 13.9888 39.9557 14.3452 39.9557H22.3577C22.7141 39.9557 23.0029 39.6669 23.0029 39.3105V26.5469C23.0029 22.2459 24.1712 20.5703 27.1694 20.5703C30.4347 20.5703 30.6941 23.2565 30.6941 26.7682V39.3107C30.6941 39.667 30.9829 39.9558 31.3393 39.9558H39.3548C39.7112 39.9558 39.9999 39.667 39.9999 39.3107V25.1605C39.9999 18.765 38.7805 12.2271 29.7359 12.2271Z" fill="#B8B8B8"/>
</g>
<defs>
<clipPath id="clip0_84_612">
<rect width="40" height="40" fill="white"/>
</clipPath>
</defs>
</svg>
