<svg width="40" height="40" viewBox="0 0 40 40" fill="none" xmlns="http://www.w3.org/2000/svg">
<g clip-path="url(#clip0_84_605)">
<path d="M0.0947876 40L2.90645 29.7283C1.17145 26.7217 0.259788 23.3133 0.261454 19.8183C0.266454 8.89167 9.15812 0 20.0831 0C25.3848 0.00166667 30.3615 2.06667 34.1048 5.81333C37.8465 9.56 39.9065 14.54 39.9048 19.8367C39.8998 30.765 31.0081 39.6567 20.0831 39.6567C16.7665 39.655 13.4981 38.8233 10.6031 37.2433L0.0947876 40ZM11.0898 33.655C13.8831 35.3133 16.5498 36.3067 20.0765 36.3083C29.1565 36.3083 36.5531 28.9183 36.5581 19.8333C36.5615 10.73 29.1998 3.35 20.0898 3.34667C11.0031 3.34667 3.61145 10.7367 3.60812 19.82C3.60645 23.5283 4.69312 26.305 6.51812 29.21L4.85312 35.29L11.0898 33.655ZM30.0681 24.5483C29.9448 24.3417 29.6148 24.2183 29.1181 23.97C28.6231 23.7217 26.1881 22.5233 25.7331 22.3583C25.2798 22.1933 24.9498 22.11 24.6181 22.6067C24.2881 23.1017 23.3381 24.2183 23.0498 24.5483C22.7615 24.8783 22.4715 24.92 21.9765 24.6717C21.4815 24.4233 19.8848 23.9017 17.9931 22.2133C16.5215 20.9 15.5265 19.2783 15.2381 18.7817C14.9498 18.2867 15.2081 18.0183 15.4548 17.7717C15.6781 17.55 15.9498 17.1933 16.1981 16.9033C16.4498 16.6167 16.5315 16.41 16.6981 16.0783C16.8631 15.7483 16.7815 15.4583 16.6565 15.21C16.5315 14.9633 15.5415 12.525 15.1298 11.5333C14.7265 10.5683 14.3181 10.6983 14.0148 10.6833L13.0648 10.6667C12.7348 10.6667 12.1981 10.79 11.7448 11.2867C11.2915 11.7833 10.0115 12.98 10.0115 15.4183C10.0115 17.8567 11.7865 20.2117 12.0331 20.5417C12.2815 20.8717 15.5248 25.875 20.4931 28.02C21.6748 28.53 22.5981 28.835 23.3165 29.0633C24.5031 29.44 25.5831 29.3867 26.4365 29.26C27.3881 29.1183 29.3665 28.0617 29.7798 26.905C30.1931 25.7467 30.1931 24.755 30.0681 24.5483Z" fill="#B8B8B8"/>
</g>
<defs>
<clipPath id="clip0_84_605">
<rect width="40" height="40" fill="white"/>
</clipPath>
</defs>
</svg>
