<svg width="40" height="40" viewBox="0 0 31 31" fill="none" xmlns="http://www.w3.org/2000/svg">
<g clip-path="url(#clip0_134_6)">
<path d="M11.5312 0.534687C11.7189 0.762645 11.8338 1.04162 11.8612 1.33558C11.8886 1.62953 11.8272 1.92494 11.685 2.18366C10.5739 4.22368 9.99362 6.51036 9.99759 8.83334C9.99759 16.5612 16.2975 22.8188 24.0619 22.8188C25.0747 22.8188 26.0606 22.7131 27.0081 22.5113C27.2986 22.4484 27.6011 22.4725 27.8779 22.5805C28.1548 22.6885 28.3937 22.8757 28.5648 23.1186C28.7455 23.3713 28.8376 23.6765 28.8268 23.9869C28.816 24.2973 28.703 24.5954 28.5052 24.8349C26.9979 26.6865 25.0963 28.1784 22.9392 29.2017C20.782 30.2251 18.4237 30.7542 16.0361 30.7504C7.17628 30.7504 0 23.6126 0 14.8181C0 8.19912 4.06284 2.52191 9.84769 0.115718C10.1358 -0.00606732 10.4557 -0.0310633 10.7593 0.0444853C11.0629 0.120034 11.3338 0.292048 11.5312 0.534687ZM9.33647 2.51998C7.1121 3.71314 5.25255 5.48667 3.95547 7.65209C2.65839 9.8175 1.97223 12.2939 1.96992 14.8181C1.96992 22.544 8.27175 28.8016 16.0361 28.8016C17.8954 28.8048 19.7369 28.4393 21.454 27.726C23.1711 27.0128 24.7296 25.9661 26.0395 24.6465C25.3918 24.7273 24.7326 24.7676 24.0619 24.7676C15.202 24.7676 8.02767 17.6298 8.02767 8.83527C8.02767 6.59244 8.49277 4.45723 9.33647 2.51998Z" fill="white"/>
</g>
<defs>
<clipPath id="clip0_134_6">
<rect width="40" height="40" fill="white"/>
</clipPath>
</defs>
</svg>
