<svg width="960" height="31" viewBox="0 0 960 31" fill="none" xmlns="http://www.w3.org/2000/svg">
<g clip-path="url(#clip0_117_6)">
<g clip-path="url(#clip1_117_6)">
<path d="M946.633 12.6665C946.621 12.6315 946.606 12.5982 946.586 12.5672C946.47 12.3479 946.189 12.2824 945.746 12.3738C944.369 12.658 943.835 12.4831 943.642 12.3579C944.76 10.651 945.679 8.58955 946.176 6.66646C946.402 5.79088 946.841 3.73005 946.278 2.72346C946.242 2.65457 946.2 2.58903 946.152 2.52763C945.078 1.15463 943.501 0.418129 941.592 0.397879C940.346 0.384712 939.283 0.686295 938.995 0.797379C938.852 0.770755 938.709 0.74808 938.565 0.729379C938.204 0.664054 937.839 0.628434 937.472 0.622879C936.487 0.607545 935.636 0.843045 934.931 1.32338C934.216 1.0558 930.94 -0.0474545 928.912 1.38905C927.78 2.1913 927.257 3.62521 927.358 5.65105C927.393 6.33271 927.781 8.42938 928.394 10.4374C928.777 11.6928 929.176 12.689 929.588 13.4224C930.049 14.2509 930.526 14.7501 931.017 14.9136C931.39 15.0379 931.961 15.0337 932.565 14.307C933.233 13.5041 933.89 12.7855 934.186 12.468C934.548 12.6642 934.941 12.77 935.344 12.7823C935.344 12.7834 935.344 12.7846 935.344 12.7857C935.274 12.8693 935.206 12.9542 935.138 13.0402C934.856 13.3987 934.797 13.4733 933.888 13.6605C933.63 13.7138 932.943 13.8554 932.933 14.3367C932.931 14.4387 932.96 14.5291 933.009 14.609C933.199 14.9616 933.777 15.1171 933.855 15.1366C934.967 15.4145 935.942 15.2133 936.665 14.571C936.651 16.4302 936.729 18.2522 936.953 18.8105C937.137 19.2713 937.587 20.3976 939.01 20.3975C939.219 20.3975 939.449 20.3732 939.702 20.319C941.187 20.0006 941.831 19.3444 942.081 17.8975C942.206 17.1719 942.415 15.5014 942.53 14.4798C942.544 14.4212 942.56 14.3792 942.577 14.3663C942.578 14.3659 942.635 14.327 942.933 14.3919C942.945 14.3945 942.958 14.3964 942.97 14.3975L943.182 14.4161L943.194 14.417C943.9 14.449 944.787 14.2981 945.304 14.058C945.84 13.809 946.808 13.1977 946.633 12.6665ZM928.976 10.2945C928.356 8.26471 927.994 6.22363 927.966 5.6513C927.875 3.8418 928.313 2.58221 929.267 1.90738C930.798 0.825212 933.301 1.45671 934.357 1.79905C934.355 1.80171 934.352 1.80413 934.349 1.80688C932.663 3.51021 932.703 6.42021 932.707 6.59813C932.707 6.66671 932.712 6.76388 932.72 6.89755C932.749 7.38696 932.803 8.29788 932.659 9.32955C932.525 10.2882 932.821 11.2265 933.47 11.9039C933.537 11.974 933.607 12.0398 933.68 12.1017C933.391 12.4112 932.763 13.0955 932.094 13.8997C931.621 14.4685 931.295 14.3595 931.187 14.3236C930.861 14.2147 930.51 13.8344 930.155 13.2217C929.756 12.5225 929.352 11.5286 928.976 10.2945ZM933.982 14.5338C933.839 14.4981 933.709 14.4395 933.622 14.3861C933.696 14.3533 933.819 14.311 934.024 14.2687C935.094 14.0486 935.259 13.8932 935.62 13.4352C935.702 13.3302 935.796 13.2113 935.926 13.0664C935.954 13.0351 935.975 12.9982 935.987 12.9582C936.129 12.8321 936.214 12.8666 936.351 12.9235C936.481 12.9773 936.608 13.1401 936.659 13.3195C936.683 13.4041 936.711 13.5649 936.621 13.6898C935.868 14.7446 934.77 14.731 933.982 14.5338ZM935.727 11.2105L935.683 11.328C935.572 11.6251 935.469 11.9014 935.405 12.1638C934.849 12.162 934.308 11.9245 933.896 11.4951C933.373 10.9492 933.136 10.1898 933.244 9.41146C933.397 8.32155 933.34 7.37246 933.31 6.86263C933.306 6.79121 933.302 6.72871 933.3 6.67938C933.546 6.46096 934.688 5.84921 935.502 6.03571C935.874 6.12088 936.1 6.3738 936.195 6.80905C936.682 9.06221 936.259 10.0013 935.919 10.756C935.849 10.9115 935.783 11.0584 935.727 11.2105ZM941.863 15.0209C941.849 15.1682 941.833 15.3342 941.812 15.5175L941.69 15.8827C941.68 15.9117 941.675 15.9419 941.675 15.9725C941.67 16.368 941.63 16.5132 941.579 16.6969C941.526 16.8879 941.466 17.1045 941.43 17.5781C941.338 18.7567 940.698 19.4337 939.415 19.7085C938.152 19.9795 937.928 19.2945 937.731 18.6905C937.711 18.6271 937.689 18.5642 937.667 18.5016C937.487 18.0135 937.508 17.325 937.536 16.3724C937.549 15.9047 937.515 14.788 937.26 14.1672C937.264 13.9229 937.269 13.6748 937.276 13.424C937.277 13.3923 937.273 13.3606 937.264 13.3302C937.256 13.2716 937.243 13.2137 937.227 13.1569C937.125 12.8 936.876 12.5014 936.577 12.3776C936.459 12.3285 936.241 12.2383 935.979 12.3052C936.035 12.0752 936.132 11.8156 936.237 11.5345L936.281 11.4161C936.33 11.2828 936.392 11.1447 936.458 10.9985C936.814 10.2088 937.3 9.12738 936.772 6.68413C936.574 5.76905 935.913 5.32221 934.912 5.42596C934.311 5.48813 933.762 5.73046 933.488 5.86938C933.433 5.89723 933.378 5.92615 933.324 5.95613C933.401 5.03413 933.69 3.31105 934.771 2.22088C934.851 2.13997 934.936 2.06321 935.024 1.99088C935.067 1.98235 935.109 1.964 935.144 1.93721C935.771 1.46171 936.556 1.22838 937.479 1.24346C937.82 1.24905 938.147 1.27171 938.458 1.31096C940.074 1.6063 941.161 2.51663 941.821 3.29655C942.5 4.09846 942.867 4.90613 943.014 5.3418C941.911 5.22963 941.161 5.44746 940.781 5.99096C939.953 7.17338 941.233 9.46838 941.848 10.5713C941.961 10.7735 942.058 10.9481 942.089 11.0224C942.289 11.5078 942.548 11.8318 942.738 12.0684C942.796 12.1409 942.852 12.2112 942.895 12.2725C942.561 12.3688 941.961 12.5913 942.016 13.7034C942.005 13.8336 941.98 14.0758 941.946 14.3824C941.908 14.5555 941.888 14.766 941.863 15.0209ZM942.605 13.67C942.572 12.977 942.83 12.9045 943.103 12.8279C943.14 12.8175 943.178 12.8062 943.215 12.794C943.25 12.8252 943.288 12.8539 943.327 12.8799C943.802 13.1936 944.645 13.231 945.833 12.9919C945.665 13.1393 945.4 13.3247 945.038 13.4928C944.697 13.6514 944.125 13.7703 943.582 13.7958C942.982 13.8238 942.677 13.7285 942.605 13.67ZM943.08 5.94396C943.075 6.2363 943.035 6.50163 942.992 6.77871C942.946 7.07671 942.899 7.38488 942.887 7.75888C942.875 8.12288 942.92 8.5013 942.964 8.8673C943.053 9.60646 943.144 10.3675 942.791 11.1185C942.733 11.0146 942.681 10.9073 942.635 10.7971C942.591 10.6908 942.496 10.52 942.364 10.2836C941.851 9.36355 940.65 7.20896 941.265 6.3298C941.581 5.87755 942.382 5.85805 943.08 5.94396ZM943.27 11.7887C943.247 11.7587 943.223 11.7289 943.199 11.6992L943.17 11.6622C943.775 10.6626 943.656 9.67371 943.551 8.7968C943.508 8.43696 943.467 8.09713 943.477 7.77796C943.488 7.43955 943.533 7.14938 943.576 6.86871C943.629 6.52288 943.683 6.16513 943.668 5.7433C943.68 5.69905 943.684 5.6468 943.678 5.5848C943.64 5.18021 943.178 3.9698 942.237 2.87396C941.731 2.28455 940.996 1.6263 939.996 1.17438C940.434 1.08555 941.024 1.0048 941.683 1.01946C943.393 1.05746 944.746 1.69738 945.704 2.92146C945.724 2.94804 945.742 2.97593 945.759 3.00496C946.362 4.13463 945.529 8.23421 943.27 11.7887ZM935.923 6.69188C935.902 6.84138 935.666 7.04396 935.405 7.04396C935.383 7.04398 935.36 7.04242 935.338 7.0393C935.182 7.01763 935.024 6.9193 934.916 6.7763C934.878 6.72588 934.816 6.62796 934.829 6.5393C934.833 6.50588 934.85 6.45721 934.906 6.4153C935.004 6.3408 935.199 6.31313 935.414 6.34305C935.677 6.3798 935.949 6.50455 935.923 6.69188ZM942.532 6.34905C942.541 6.41505 942.491 6.51655 942.404 6.60755C942.347 6.6673 942.228 6.77096 942.064 6.79355C942.044 6.79643 942.023 6.79787 942.002 6.79788C941.757 6.79788 941.551 6.60255 941.535 6.48813C941.515 6.34105 941.755 6.2293 942.002 6.1948C942.25 6.1603 942.511 6.20213 942.532 6.34905Z" fill="#101010"/>
</g>
<path d="M915.592 22.7975H916.944V28.3975H915.592V22.7975ZM916.44 23.9095V22.7975H917.536C918.011 22.7975 918.408 22.8721 918.728 23.0215C919.053 23.1655 919.299 23.3735 919.464 23.6455C919.629 23.9175 919.712 24.2455 919.712 24.6295C919.712 25.0028 919.629 25.3281 919.464 25.6055C919.299 25.8775 919.053 26.0881 918.728 26.2375C918.408 26.3815 918.011 26.4535 917.536 26.4535H916.44V25.3415H917.536C917.808 25.3415 918.021 25.2801 918.176 25.1575C918.331 25.0348 918.408 24.8588 918.408 24.6295C918.408 24.3948 918.331 24.2161 918.176 24.0935C918.021 23.9708 917.808 23.9095 917.536 23.9095H916.44ZM919.998 26.5575C919.998 26.1681 920.089 25.8295 920.27 25.5415C920.452 25.2535 920.702 25.0295 921.022 24.8695C921.342 24.7095 921.702 24.6295 922.102 24.6295C922.502 24.6295 922.86 24.7095 923.174 24.8695C923.494 25.0295 923.745 25.2535 923.926 25.5415C924.113 25.8295 924.206 26.1681 924.206 26.5575C924.206 26.9415 924.113 27.2775 923.926 27.5655C923.745 27.8535 923.494 28.0775 923.174 28.2375C922.86 28.3975 922.502 28.4775 922.102 28.4775C921.702 28.4775 921.342 28.3975 921.022 28.2375C920.702 28.0775 920.452 27.8535 920.27 27.5655C920.089 27.2775 919.998 26.9415 919.998 26.5575ZM921.238 26.5575C921.238 26.7495 921.278 26.9148 921.358 27.0535C921.438 27.1868 921.542 27.2908 921.67 27.3655C921.798 27.4401 921.942 27.4775 922.102 27.4775C922.257 27.4775 922.398 27.4401 922.526 27.3655C922.66 27.2908 922.764 27.1868 922.838 27.0535C922.918 26.9148 922.958 26.7495 922.958 26.5575C922.958 26.3655 922.918 26.2001 922.838 26.0615C922.764 25.9228 922.66 25.8161 922.526 25.7415C922.398 25.6668 922.257 25.6295 922.102 25.6295C921.942 25.6295 921.798 25.6668 921.67 25.7415C921.542 25.8161 921.438 25.9228 921.358 26.0615C921.278 26.2001 921.238 26.3655 921.238 26.5575ZM925.133 27.0615C925.32 27.2161 925.488 27.3388 925.637 27.4295C925.792 27.5148 925.928 27.5761 926.045 27.6135C926.162 27.6455 926.264 27.6615 926.349 27.6615C926.472 27.6615 926.562 27.6348 926.621 27.5815C926.68 27.5281 926.709 27.4588 926.709 27.3735C926.709 27.2935 926.685 27.2268 926.637 27.1735C926.589 27.1148 926.506 27.0588 926.389 27.0055C926.277 26.9521 926.122 26.8961 925.925 26.8375C925.749 26.7735 925.581 26.6988 925.421 26.6135C925.266 26.5228 925.138 26.4028 925.037 26.2535C924.936 26.1041 924.885 25.9121 924.885 25.6775C924.885 25.4535 924.944 25.2641 925.061 25.1095C925.184 24.9548 925.346 24.8375 925.549 24.7575C925.757 24.6775 925.994 24.6375 926.261 24.6375C926.474 24.6375 926.672 24.6615 926.853 24.7095C927.04 24.7575 927.213 24.8215 927.373 24.9015C927.538 24.9815 927.693 25.0748 927.837 25.1815L927.405 25.9655C927.25 25.8215 927.074 25.7041 926.877 25.6135C926.68 25.5175 926.498 25.4695 926.333 25.4695C926.221 25.4695 926.136 25.4908 926.077 25.5335C926.024 25.5761 925.997 25.6321 925.997 25.7015C925.997 25.7815 926.029 25.8481 926.093 25.9015C926.162 25.9548 926.258 26.0055 926.381 26.0535C926.509 26.0961 926.664 26.1521 926.845 26.2215C927.037 26.2908 927.213 26.3708 927.373 26.4615C927.538 26.5521 927.669 26.6668 927.765 26.8055C927.866 26.9441 927.917 27.1281 927.917 27.3575C927.917 27.7521 927.794 28.0508 927.549 28.2535C927.309 28.4508 926.97 28.5495 926.533 28.5495C926.266 28.5495 926.018 28.5175 925.789 28.4535C925.565 28.3948 925.357 28.3148 925.165 28.2135C924.973 28.1068 924.794 27.9895 924.629 27.8615L925.133 27.0615ZM928.149 24.7175H930.613V25.7175H928.149V24.7175ZM928.797 23.4375H929.957V28.3975H928.797V23.4375ZM930.992 28.6615H932.16C932.176 28.8108 932.219 28.9361 932.288 29.0375C932.363 29.1388 932.462 29.2135 932.584 29.2615C932.707 29.3148 932.846 29.3415 933 29.3415C933.171 29.3415 933.326 29.3015 933.464 29.2215C933.603 29.1468 933.712 29.0321 933.792 28.8775C933.878 28.7281 933.92 28.5415 933.92 28.3175V24.7175H935.08V28.3175C935.08 28.7868 934.987 29.1681 934.8 29.4615C934.619 29.7548 934.376 29.9681 934.072 30.1015C933.768 30.2401 933.427 30.3095 933.048 30.3095C932.595 30.3095 932.219 30.2401 931.92 30.1015C931.627 29.9628 931.406 29.7681 931.256 29.5175C931.107 29.2721 931.019 28.9868 930.992 28.6615ZM930.912 26.5095C930.912 26.0935 930.995 25.7468 931.16 25.4695C931.331 25.1921 931.55 24.9841 931.816 24.8455C932.083 24.7068 932.366 24.6375 932.664 24.6375C932.974 24.6375 933.246 24.7121 933.48 24.8615C933.72 25.0055 933.91 25.2161 934.048 25.4935C934.187 25.7708 934.256 26.1095 934.256 26.5095C934.256 26.9041 934.187 27.2428 934.048 27.5255C933.91 27.8028 933.72 28.0161 933.48 28.1655C933.246 28.3095 932.974 28.3815 932.664 28.3815C932.366 28.3815 932.083 28.3121 931.816 28.1735C931.55 28.0295 931.331 27.8188 931.16 27.5415C930.995 27.2641 930.912 26.9201 930.912 26.5095ZM932.184 26.5095C932.184 26.6961 932.224 26.8588 932.304 26.9975C932.384 27.1308 932.491 27.2321 932.624 27.3015C932.758 27.3708 932.904 27.4055 933.064 27.4055C933.203 27.4055 933.336 27.3735 933.464 27.3095C933.598 27.2401 933.707 27.1388 933.792 27.0055C933.878 26.8721 933.92 26.7068 933.92 26.5095C933.92 26.3601 933.894 26.2295 933.84 26.1175C933.792 26.0055 933.726 25.9121 933.64 25.8375C933.56 25.7628 933.47 25.7068 933.368 25.6695C933.267 25.6321 933.166 25.6135 933.064 25.6135C932.904 25.6135 932.758 25.6481 932.624 25.7175C932.491 25.7868 932.384 25.8881 932.304 26.0215C932.224 26.1548 932.184 26.3175 932.184 26.5095ZM937.203 24.7175V28.3975H936.011V24.7175H937.203ZM938.267 25.9655C938.203 25.9015 938.134 25.8508 938.059 25.8135C937.99 25.7761 937.902 25.7575 937.795 25.7575C937.678 25.7575 937.574 25.7895 937.483 25.8535C937.392 25.9175 937.323 26.0108 937.275 26.1335C937.227 26.2561 937.203 26.4055 937.203 26.5815L936.915 26.1575C936.915 25.8641 936.971 25.6028 937.083 25.3735C937.2 25.1441 937.352 24.9628 937.539 24.8295C937.726 24.6961 937.92 24.6295 938.123 24.6295C938.256 24.6295 938.384 24.6561 938.507 24.7095C938.63 24.7628 938.723 24.8375 938.787 24.9335L938.267 25.9655ZM941.055 28.4775C940.628 28.4775 940.258 28.4001 939.943 28.2455C939.634 28.0855 939.394 27.8615 939.223 27.5735C939.052 27.2855 938.967 26.9468 938.967 26.5575C938.967 26.1628 939.05 25.8215 939.215 25.5335C939.38 25.2455 939.618 25.0241 939.927 24.8695C940.242 24.7148 940.612 24.6375 941.039 24.6375C941.466 24.6375 941.826 24.7121 942.119 24.8615C942.412 25.0055 942.636 25.2161 942.791 25.4935C942.946 25.7708 943.023 26.1068 943.023 26.5015C943.023 26.5601 943.023 26.6188 943.023 26.6775C943.023 26.7308 943.018 26.7761 943.007 26.8135H939.647V26.1415H941.919L941.631 26.5095C941.658 26.4721 941.679 26.4268 941.695 26.3735C941.716 26.3148 941.727 26.2668 941.727 26.2295C941.727 26.0695 941.698 25.9308 941.639 25.8135C941.58 25.6961 941.498 25.6055 941.391 25.5415C941.284 25.4775 941.159 25.4455 941.015 25.4455C940.834 25.4455 940.682 25.4855 940.559 25.5655C940.436 25.6455 940.343 25.7681 940.279 25.9335C940.22 26.0935 940.188 26.2961 940.183 26.5415C940.183 26.7655 940.215 26.9575 940.279 27.1175C940.343 27.2775 940.439 27.4001 940.567 27.4855C940.695 27.5655 940.852 27.6055 941.039 27.6055C941.252 27.6055 941.434 27.5655 941.583 27.4855C941.738 27.4055 941.86 27.2855 941.951 27.1255L943.031 27.3895C942.839 27.7521 942.578 28.0241 942.247 28.2055C941.922 28.3868 941.524 28.4775 941.055 28.4775ZM944.505 26.4295C944.617 26.6321 944.742 26.8081 944.881 26.9575C945.025 27.1068 945.18 27.2215 945.345 27.3015C945.516 27.3815 945.694 27.4215 945.881 27.4215C946.078 27.4215 946.241 27.3735 946.369 27.2775C946.497 27.1761 946.561 27.0401 946.561 26.8695C946.561 26.7255 946.524 26.6108 946.449 26.5255C946.374 26.4348 946.254 26.3495 946.089 26.2695C945.924 26.1895 945.705 26.0988 945.433 25.9975C945.3 25.9495 945.145 25.8828 944.969 25.7975C944.798 25.7121 944.636 25.6028 944.481 25.4695C944.326 25.3308 944.198 25.1655 944.097 24.9735C943.996 24.7761 943.945 24.5388 943.945 24.2615C943.945 23.9308 944.03 23.6455 944.201 23.4055C944.377 23.1655 944.612 22.9841 944.905 22.8615C945.204 22.7335 945.534 22.6695 945.897 22.6695C946.27 22.6695 946.593 22.7308 946.865 22.8535C947.142 22.9761 947.372 23.1308 947.553 23.3175C947.734 23.5041 947.873 23.6935 947.969 23.8855L946.937 24.4615C946.857 24.3281 946.764 24.2135 946.657 24.1175C946.556 24.0161 946.441 23.9388 946.313 23.8855C946.19 23.8268 946.057 23.7975 945.913 23.7975C945.721 23.7975 945.574 23.8401 945.473 23.9255C945.372 24.0055 945.321 24.1068 945.321 24.2295C945.321 24.3575 945.369 24.4695 945.465 24.5655C945.566 24.6615 945.708 24.7495 945.889 24.8295C946.076 24.9095 946.3 24.9948 946.561 25.0855C946.758 25.1601 946.942 25.2481 947.113 25.3495C947.284 25.4455 947.433 25.5628 947.561 25.7015C947.694 25.8401 947.798 26.0001 947.873 26.1815C947.948 26.3628 947.985 26.5708 947.985 26.8055C947.985 27.0881 947.926 27.3415 947.809 27.5655C947.697 27.7841 947.542 27.9681 947.345 28.1175C947.153 28.2668 946.932 28.3788 946.681 28.4535C946.436 28.5335 946.182 28.5735 945.921 28.5735C945.558 28.5735 945.22 28.5095 944.905 28.3815C944.596 28.2481 944.326 28.0695 944.097 27.8455C943.868 27.6215 943.689 27.3761 943.561 27.1095L944.505 26.4295ZM950.001 25.5975C950.001 25.9601 950.076 26.2748 950.225 26.5415C950.38 26.8081 950.585 27.0161 950.841 27.1655C951.102 27.3095 951.39 27.3815 951.705 27.3815C952.025 27.3815 952.305 27.3148 952.545 27.1815C952.785 27.0481 952.972 26.8588 953.105 26.6135C953.244 26.3628 953.313 26.0748 953.313 25.7495C953.313 25.4135 953.244 25.1068 953.105 24.8295C952.972 24.5521 952.777 24.3308 952.521 24.1655C952.27 23.9948 951.966 23.9095 951.609 23.9095C951.289 23.9095 951.009 23.9815 950.769 24.1255C950.529 24.2695 950.34 24.4695 950.201 24.7255C950.068 24.9761 950.001 25.2668 950.001 25.5975ZM948.569 25.5975C948.569 25.1655 948.646 24.7708 948.801 24.4135C948.956 24.0561 949.172 23.7468 949.449 23.4855C949.726 23.2241 950.049 23.0241 950.417 22.8855C950.785 22.7415 951.182 22.6695 951.609 22.6695C952.041 22.6695 952.438 22.7415 952.801 22.8855C953.164 23.0241 953.478 23.2241 953.745 23.4855C954.017 23.7468 954.225 24.0561 954.369 24.4135C954.518 24.7708 954.593 25.1655 954.593 25.5975C954.593 26.0295 954.521 26.4268 954.377 26.7895C954.233 27.1521 954.028 27.4668 953.761 27.7335C953.494 28.0001 953.177 28.2081 952.809 28.3575C952.446 28.5015 952.046 28.5735 951.609 28.5735C951.166 28.5735 950.761 28.5015 950.393 28.3575C950.025 28.2081 949.702 28.0001 949.425 27.7335C949.153 27.4668 948.942 27.1521 948.793 26.7895C948.644 26.4268 948.569 26.0295 948.569 25.5975ZM951.153 25.9975H952.553L955.249 28.4935H953.801L951.153 25.9975ZM955.795 22.7975H957.147V27.2375H959.395V28.3975H955.795V22.7975Z" fill="#101010"/>
<path d="M848.456 22.7975H849.76V28.6775L845.888 25.2455V28.3975H844.592V22.5175L848.456 25.9495V22.7975ZM850.608 26.5575C850.608 26.1681 850.698 25.8295 850.88 25.5415C851.061 25.2535 851.312 25.0295 851.632 24.8695C851.952 24.7095 852.312 24.6295 852.712 24.6295C853.112 24.6295 853.469 24.7095 853.784 24.8695C854.104 25.0295 854.354 25.2535 854.536 25.5415C854.722 25.8295 854.816 26.1681 854.816 26.5575C854.816 26.9415 854.722 27.2775 854.536 27.5655C854.354 27.8535 854.104 28.0775 853.784 28.2375C853.469 28.3975 853.112 28.4775 852.712 28.4775C852.312 28.4775 851.952 28.3975 851.632 28.2375C851.312 28.0775 851.061 27.8535 850.88 27.5655C850.698 27.2775 850.608 26.9415 850.608 26.5575ZM851.848 26.5575C851.848 26.7495 851.888 26.9148 851.968 27.0535C852.048 27.1868 852.152 27.2908 852.28 27.3655C852.408 27.4401 852.552 27.4775 852.712 27.4775C852.866 27.4775 853.008 27.4401 853.136 27.3655C853.269 27.2908 853.373 27.1868 853.448 27.0535C853.528 26.9148 853.568 26.7495 853.568 26.5575C853.568 26.3655 853.528 26.2001 853.448 26.0615C853.373 25.9228 853.269 25.8161 853.136 25.7415C853.008 25.6668 852.866 25.6295 852.712 25.6295C852.552 25.6295 852.408 25.6668 852.28 25.7415C852.152 25.8161 852.048 25.9228 851.968 26.0615C851.888 26.2001 851.848 26.3655 851.848 26.5575ZM858.334 22.1575H859.542V28.3975H858.334V22.1575ZM855.326 26.5575C855.326 26.1415 855.409 25.7921 855.574 25.5095C855.745 25.2268 855.964 25.0108 856.23 24.8615C856.497 24.7121 856.78 24.6375 857.078 24.6375C857.388 24.6375 857.66 24.7148 857.894 24.8695C858.134 25.0241 858.324 25.2455 858.462 25.5335C858.601 25.8161 858.67 26.1575 858.67 26.5575C858.67 26.9521 858.601 27.2935 858.462 27.5815C858.324 27.8695 858.134 28.0908 857.894 28.2455C857.66 28.4001 857.388 28.4775 857.078 28.4775C856.78 28.4775 856.497 28.4028 856.23 28.2535C855.964 28.1041 855.745 27.8881 855.574 27.6055C855.409 27.3175 855.326 26.9681 855.326 26.5575ZM856.598 26.5575C856.598 26.7495 856.638 26.9175 856.718 27.0615C856.798 27.2001 856.905 27.3095 857.038 27.3895C857.172 27.4641 857.318 27.5015 857.478 27.5015C857.617 27.5015 857.75 27.4641 857.878 27.3895C858.012 27.3148 858.121 27.2081 858.206 27.0695C858.292 26.9255 858.334 26.7548 858.334 26.5575C858.334 26.3601 858.292 26.1921 858.206 26.0535C858.121 25.9095 858.012 25.8001 857.878 25.7255C857.75 25.6508 857.617 25.6135 857.478 25.6135C857.318 25.6135 857.172 25.6535 857.038 25.7335C856.905 25.8081 856.798 25.9175 856.718 26.0615C856.638 26.2001 856.598 26.3655 856.598 26.5575ZM862.352 28.4775C861.925 28.4775 861.554 28.4001 861.24 28.2455C860.93 28.0855 860.69 27.8615 860.52 27.5735C860.349 27.2855 860.264 26.9468 860.264 26.5575C860.264 26.1628 860.346 25.8215 860.512 25.5335C860.677 25.2455 860.914 25.0241 861.224 24.8695C861.538 24.7148 861.909 24.6375 862.336 24.6375C862.762 24.6375 863.122 24.7121 863.416 24.8615C863.709 25.0055 863.933 25.2161 864.088 25.4935C864.242 25.7708 864.32 26.1068 864.32 26.5015C864.32 26.5601 864.32 26.6188 864.32 26.6775C864.32 26.7308 864.314 26.7761 864.304 26.8135H860.944V26.1415H863.216L862.928 26.5095C862.954 26.4721 862.976 26.4268 862.992 26.3735C863.013 26.3148 863.024 26.2668 863.024 26.2295C863.024 26.0695 862.994 25.9308 862.936 25.8135C862.877 25.6961 862.794 25.6055 862.688 25.5415C862.581 25.4775 862.456 25.4455 862.312 25.4455C862.13 25.4455 861.978 25.4855 861.856 25.5655C861.733 25.6455 861.64 25.7681 861.576 25.9335C861.517 26.0935 861.485 26.2961 861.48 26.5415C861.48 26.7655 861.512 26.9575 861.576 27.1175C861.64 27.2775 861.736 27.4001 861.864 27.4855C861.992 27.5655 862.149 27.6055 862.336 27.6055C862.549 27.6055 862.73 27.5655 862.88 27.4855C863.034 27.4055 863.157 27.2855 863.248 27.1255L864.328 27.3895C864.136 27.7521 863.874 28.0241 863.544 28.2055C863.218 28.3868 862.821 28.4775 862.352 28.4775Z" fill="#101010"/>
<path d="M854.997 19.1475C854.768 19.1472 854.543 19.0851 854.347 18.9678L852.277 17.7006C851.968 17.5224 852.12 17.4583 852.221 17.4217C852.634 17.274 852.757 17.2007 853.195 16.9418C853.243 16.9157 853.303 16.9252 853.35 16.9544L854.901 17.8725C854.959 17.9057 855.04 17.9057 855.094 17.8725L861.156 14.2691C861.213 14.2349 861.25 14.1658 861.25 14.0957V6.79859C861.25 6.72633 861.213 6.65828 861.154 6.62172L855.095 2.92359C855.037 2.88867 854.961 2.88867 854.904 2.92359L848.848 6.62301C848.788 6.65828 848.75 6.7284 848.75 6.79859V14.0957C848.75 14.1665 848.788 14.2329 848.847 14.2671L850.407 15.2035C851.329 15.6802 851.875 15.1969 851.875 14.6328V7.45703C851.875 7.35344 851.955 7.27238 852.055 7.27238H852.946C853.044 7.27238 853.125 7.35332 853.125 7.45703V14.6327C853.125 15.9047 852.369 16.6346 851.203 16.6346C850.846 16.6346 850.563 16.6346 849.775 16.2331L848.151 15.2651C847.749 15.0248 847.5 14.5758 847.5 14.095V6.69398C847.5 6.21289 847.749 5.76492 848.151 5.52535L854.35 1.81973C854.741 1.59004 855.263 1.59004 855.652 1.81973L861.849 5.52535C862.251 5.76555 862.5 6.21383 862.5 6.69398V14.095C862.5 14.5758 862.251 15.0227 861.849 15.265L855.652 18.9671C855.454 19.0849 855.229 19.1469 854.999 19.1468L854.997 19.1475Z" fill="#101010"/>
<path d="M856.912 14.1473C854.388 14.1473 853.63 12.9126 853.63 11.8321C853.63 11.7294 853.71 11.6473 853.809 11.6473H854.61C854.699 11.6473 854.775 11.7137 854.788 11.8042C854.909 12.648 855.443 13.021 856.91 13.021C858.215 13.021 858.75 12.6169 858.75 11.9005C858.75 11.4868 858.615 11.1809 856.586 10.9749C854.889 10.8014 853.84 10.4134 853.84 9.01023C853.84 7.71589 854.894 6.95984 856.662 6.95984C858.463 6.95984 859.648 7.50671 859.754 8.94535C859.758 8.99757 859.74 9.04804 859.706 9.08769C859.672 9.12539 859.625 9.14734 859.575 9.14734H858.77C858.687 9.14734 858.613 9.08632 858.596 9.0023C858.424 8.34007 857.933 8.08816 856.66 8.08816C855.235 8.08816 855.069 8.58632 855.069 8.97125C855.069 9.43855 855.265 9.57441 857.189 9.83734C859.094 10.0976 859.999 10.4669 859.999 11.8511C859.999 13.2488 858.874 14.1473 856.91 14.1473L856.912 14.1473Z" fill="#101010"/>
<path d="M780.992 1.8877C776.162 1.88574 772.25 5.7959 772.25 10.6221C772.25 14.4385 774.697 17.6826 778.105 18.874C778.564 18.9893 778.494 18.6631 778.494 18.4404V16.9268C775.844 17.2373 775.736 15.4834 775.559 15.1904C775.199 14.5772 774.35 14.4209 774.604 14.1279C775.207 13.8174 775.822 14.2061 776.535 15.2588C777.051 16.0225 778.057 15.8936 778.566 15.7666C778.678 15.3076 778.916 14.8975 779.244 14.5791C776.498 14.0869 775.354 12.4111 775.354 10.4189C775.354 9.45215 775.672 8.56348 776.297 7.84668C775.898 6.66504 776.334 5.65332 776.393 5.50293C777.527 5.40137 778.707 6.31543 778.799 6.3877C779.443 6.21387 780.18 6.12207 781.004 6.12207C781.832 6.12207 782.57 6.21777 783.221 6.39356C783.441 6.22559 784.535 5.44043 785.59 5.53613C785.646 5.68652 786.072 6.67481 785.697 7.84082C786.33 8.55957 786.652 9.45606 786.652 10.4248C786.652 12.4209 785.5 14.0986 782.746 14.583C782.982 14.815 783.169 15.0916 783.297 15.3968C783.425 15.702 783.49 16.0295 783.49 16.3604V18.5576C783.506 18.7334 783.49 18.9072 783.783 18.9072C787.242 17.7412 789.732 14.4736 789.732 10.624C789.732 5.7959 785.818 1.8877 780.992 1.8877Z" fill="#101010"/>
<path d="M771.368 25.3735V24.3335H774.2C774.227 24.7815 774.181 25.2001 774.064 25.5895C773.947 25.9788 773.765 26.3228 773.52 26.6215C773.275 26.9201 772.968 27.1548 772.6 27.3255C772.232 27.4908 771.811 27.5735 771.336 27.5735C770.888 27.5735 770.477 27.5041 770.104 27.3655C769.731 27.2215 769.408 27.0188 769.136 26.7575C768.864 26.4908 768.651 26.1761 768.496 25.8135C768.347 25.4455 768.272 25.0401 768.272 24.5975C768.272 24.1548 768.349 23.7548 768.504 23.3975C768.659 23.0348 768.877 22.7255 769.16 22.4695C769.443 22.2135 769.773 22.0161 770.152 21.8775C770.531 21.7388 770.941 21.6695 771.384 21.6695C771.779 21.6695 772.133 21.7255 772.448 21.8375C772.763 21.9495 773.04 22.1068 773.28 22.3095C773.525 22.5068 773.736 22.7361 773.912 22.9975L772.712 23.6215C772.584 23.3975 772.411 23.2135 772.192 23.0695C771.979 22.9201 771.709 22.8455 771.384 22.8455C771.075 22.8455 770.789 22.9148 770.528 23.0535C770.272 23.1921 770.067 23.3921 769.912 23.6535C769.763 23.9095 769.688 24.2241 769.688 24.5975C769.688 24.9655 769.76 25.2855 769.904 25.5575C770.053 25.8241 770.253 26.0321 770.504 26.1815C770.76 26.3255 771.053 26.3975 771.384 26.3975C771.587 26.3975 771.771 26.3735 771.936 26.3255C772.101 26.2721 772.243 26.2001 772.36 26.1095C772.477 26.0135 772.576 25.9041 772.656 25.7815C772.741 25.6535 772.808 25.5175 772.856 25.3735H771.368ZM774.916 22.3335C774.916 22.1415 774.985 21.9868 775.124 21.8695C775.262 21.7468 775.428 21.6855 775.62 21.6855C775.817 21.6855 775.982 21.7468 776.116 21.8695C776.254 21.9868 776.324 22.1415 776.324 22.3335C776.324 22.5255 776.254 22.6828 776.116 22.8055C775.982 22.9281 775.817 22.9895 775.62 22.9895C775.428 22.9895 775.262 22.9281 775.124 22.8055C774.985 22.6828 774.916 22.5255 774.916 22.3335ZM775.036 23.7175H776.204V27.3975H775.036V23.7175ZM776.767 23.7175H779.231V24.7175H776.767V23.7175ZM777.415 22.4375H778.575V27.3975H777.415V22.4375ZM780.961 21.1575V27.3975H779.745V21.1575H780.961ZM782.137 25.1575C782.137 24.9388 782.097 24.7708 782.017 24.6535C781.937 24.5361 781.799 24.4775 781.601 24.4775C781.473 24.4775 781.361 24.5068 781.265 24.5655C781.169 24.6188 781.095 24.6961 781.041 24.7975C780.988 24.8935 780.961 25.0135 780.961 25.1575H780.753C780.753 24.8641 780.801 24.6001 780.897 24.3655C780.993 24.1255 781.137 23.9361 781.329 23.7975C781.527 23.6535 781.777 23.5815 782.081 23.5815C782.385 23.5815 782.628 23.6348 782.809 23.7415C782.996 23.8481 783.132 24.0055 783.217 24.2135C783.303 24.4215 783.345 24.6775 783.345 24.9815V27.3975H782.137V25.1575ZM785.564 25.9575C785.564 26.1708 785.604 26.3388 785.684 26.4615C785.764 26.5788 785.903 26.6375 786.1 26.6375C786.233 26.6375 786.345 26.6108 786.436 26.5575C786.532 26.5041 786.607 26.4268 786.66 26.3255C786.713 26.2241 786.74 26.1015 786.74 25.9575V23.7175H787.948V27.3975H786.74V26.8455C786.628 27.0428 786.481 27.2001 786.3 27.3175C786.119 27.4295 785.892 27.4855 785.62 27.4855C785.161 27.4855 784.825 27.3628 784.612 27.1175C784.404 26.8668 784.3 26.5228 784.3 26.0855V23.7175H785.564V25.9575ZM790.102 21.1575V27.3975H788.894V21.1575H790.102ZM793.11 25.5575C793.11 25.9681 793.024 26.3175 792.854 26.6055C792.688 26.8881 792.472 27.1041 792.206 27.2535C791.944 27.4028 791.662 27.4775 791.358 27.4775C791.054 27.4775 790.782 27.4001 790.542 27.2455C790.302 27.0908 790.112 26.8695 789.974 26.5815C789.835 26.2935 789.766 25.9521 789.766 25.5575C789.766 25.1575 789.835 24.8161 789.974 24.5335C790.112 24.2455 790.302 24.0241 790.542 23.8695C790.782 23.7148 791.054 23.6375 791.358 23.6375C791.662 23.6375 791.944 23.7121 792.206 23.8615C792.472 24.0108 792.688 24.2268 792.854 24.5095C793.024 24.7921 793.11 25.1415 793.11 25.5575ZM791.838 25.5575C791.838 25.3655 791.798 25.2001 791.718 25.0615C791.638 24.9175 791.531 24.8081 791.398 24.7335C791.264 24.6535 791.118 24.6135 790.958 24.6135C790.819 24.6135 790.683 24.6508 790.55 24.7255C790.422 24.8001 790.315 24.9095 790.23 25.0535C790.144 25.1921 790.102 25.3601 790.102 25.5575C790.102 25.7548 790.144 25.9255 790.23 26.0695C790.315 26.2081 790.422 26.3148 790.55 26.3895C790.683 26.4641 790.819 26.5015 790.958 26.5015C791.118 26.5015 791.264 26.4641 791.398 26.3895C791.531 26.3095 791.638 26.2001 791.718 26.0615C791.798 25.9175 791.838 25.7495 791.838 25.5575Z" fill="#101010"/>
<path d="M704.368 26.3735V25.3335H707.2C707.227 25.7815 707.181 26.2001 707.064 26.5895C706.947 26.9788 706.765 27.3228 706.52 27.6215C706.275 27.9201 705.968 28.1548 705.6 28.3255C705.232 28.4908 704.811 28.5735 704.336 28.5735C703.888 28.5735 703.477 28.5041 703.104 28.3655C702.731 28.2215 702.408 28.0188 702.136 27.7575C701.864 27.4908 701.651 27.1761 701.496 26.8135C701.347 26.4455 701.272 26.0401 701.272 25.5975C701.272 25.1548 701.349 24.7548 701.504 24.3975C701.659 24.0348 701.877 23.7255 702.16 23.4695C702.443 23.2135 702.773 23.0161 703.152 22.8775C703.531 22.7388 703.941 22.6695 704.384 22.6695C704.779 22.6695 705.133 22.7255 705.448 22.8375C705.763 22.9495 706.04 23.1068 706.28 23.3095C706.525 23.5068 706.736 23.7361 706.912 23.9975L705.712 24.6215C705.584 24.3975 705.411 24.2135 705.192 24.0695C704.979 23.9201 704.709 23.8455 704.384 23.8455C704.075 23.8455 703.789 23.9148 703.528 24.0535C703.272 24.1921 703.067 24.3921 702.912 24.6535C702.763 24.9095 702.688 25.2241 702.688 25.5975C702.688 25.9655 702.76 26.2855 702.904 26.5575C703.053 26.8241 703.253 27.0321 703.504 27.1815C703.76 27.3255 704.053 27.3975 704.384 27.3975C704.587 27.3975 704.771 27.3735 704.936 27.3255C705.101 27.2721 705.243 27.2001 705.36 27.1095C705.477 27.0135 705.576 26.9041 705.656 26.7815C705.741 26.6535 705.808 26.5175 705.856 26.3735H704.368ZM708.108 22.7975H709.484V28.3975H708.108V22.7975ZM710.11 24.0055V22.7975H714.542V24.0055H712.998V28.3975H711.646V24.0055H710.11Z" fill="#101010"/>
<g clip-path="url(#clip2_117_6)">
<path d="M717.622 9.50616L708.89 0.774908C708.77 0.655285 708.628 0.560392 708.472 0.495649C708.316 0.430906 708.148 0.397583 707.979 0.397583C707.81 0.397583 707.643 0.430906 707.487 0.495649C707.33 0.560392 707.188 0.655285 707.069 0.774908L705.256 2.58741L707.556 4.88741C707.827 4.79479 708.119 4.78031 708.398 4.84559C708.678 4.91088 708.933 5.05332 709.135 5.25665C709.337 5.45998 709.477 5.71601 709.541 5.99552C709.604 6.27503 709.588 6.56675 709.494 6.83741L711.71 9.05491C712.038 8.93946 712.395 8.93911 712.723 9.05392C713.052 9.16872 713.331 9.39184 713.515 9.68653C713.7 9.98123 713.778 10.3299 713.738 10.6752C713.698 11.0205 713.541 11.3418 713.294 11.5862C713.043 11.838 712.714 11.9951 712.36 12.0306C712.007 12.0662 711.652 11.978 711.357 11.7812C711.062 11.5843 710.844 11.291 710.74 10.9513C710.637 10.6116 710.655 10.2466 710.791 9.91866L708.725 7.85116V13.2924C709.039 13.4479 709.29 13.7063 709.437 14.0246C709.584 14.3429 709.617 14.7018 709.531 15.0415C709.445 15.3813 709.245 15.6813 708.965 15.8917C708.685 16.102 708.341 16.2099 707.99 16.1974C707.64 16.1849 707.305 16.0527 707.04 15.8229C706.776 15.5931 706.598 15.2796 706.536 14.9346C706.475 14.5896 706.534 14.2339 706.703 13.9269C706.872 13.6199 707.141 13.3801 707.465 13.2474V7.75616C707.278 7.67948 707.108 7.56651 706.964 7.42378C706.821 7.28104 706.708 7.11136 706.63 6.92451C706.553 6.73766 706.513 6.53735 706.514 6.33511C706.514 6.13287 706.554 5.9327 706.632 5.74616L704.366 3.47866L698.379 9.46616C698.259 9.58572 698.164 9.72768 698.099 9.88393C698.035 10.0402 698.001 10.2077 698.001 10.3768C698.001 10.5459 698.035 10.7134 698.099 10.8696C698.164 11.0259 698.259 11.1678 698.379 11.2874L707.111 20.0199C707.231 20.1395 707.373 20.2344 707.529 20.2992C707.685 20.3639 707.853 20.3972 708.022 20.3972C708.191 20.3972 708.358 20.3639 708.515 20.2992C708.671 20.2344 708.813 20.1395 708.932 20.0199L717.624 11.3287C717.865 11.087 718.001 10.7595 718.001 10.418C718.001 10.0766 717.865 9.74904 717.624 9.50741" fill="#101010"/>
</g>
<path d="M633.936 25.1415L635.304 21.7975H636.888L633.936 27.7495L630.992 21.7975H632.568L633.936 25.1415ZM638.056 25.9575C638.056 26.1708 638.096 26.3388 638.176 26.4615C638.256 26.5788 638.395 26.6375 638.592 26.6375C638.726 26.6375 638.838 26.6108 638.928 26.5575C639.024 26.5041 639.099 26.4268 639.152 26.3255C639.206 26.2241 639.232 26.1015 639.232 25.9575V23.7175H640.44V27.3975H639.232V26.8455C639.12 27.0428 638.974 27.2001 638.792 27.3175C638.611 27.4295 638.384 27.4855 638.112 27.4855C637.654 27.4855 637.318 27.3628 637.104 27.1175C636.896 26.8668 636.792 26.5228 636.792 26.0855V23.7175H638.056V25.9575ZM643.266 27.4775C642.839 27.4775 642.469 27.4001 642.154 27.2455C641.845 27.0855 641.605 26.8615 641.434 26.5735C641.263 26.2855 641.178 25.9468 641.178 25.5575C641.178 25.1628 641.261 24.8215 641.426 24.5335C641.591 24.2455 641.829 24.0241 642.138 23.8695C642.453 23.7148 642.823 23.6375 643.25 23.6375C643.677 23.6375 644.037 23.7121 644.33 23.8615C644.623 24.0055 644.847 24.2161 645.002 24.4935C645.157 24.7708 645.234 25.1068 645.234 25.5015C645.234 25.5601 645.234 25.6188 645.234 25.6775C645.234 25.7308 645.229 25.7761 645.218 25.8135H641.858V25.1415H644.13L643.842 25.5095C643.869 25.4721 643.89 25.4268 643.906 25.3735C643.927 25.3148 643.938 25.2668 643.938 25.2295C643.938 25.0695 643.909 24.9308 643.85 24.8135C643.791 24.6961 643.709 24.6055 643.602 24.5415C643.495 24.4775 643.37 24.4455 643.226 24.4455C643.045 24.4455 642.893 24.4855 642.77 24.5655C642.647 24.6455 642.554 24.7681 642.49 24.9335C642.431 25.0935 642.399 25.2961 642.394 25.5415C642.394 25.7655 642.426 25.9575 642.49 26.1175C642.554 26.2775 642.65 26.4001 642.778 26.4855C642.906 26.5655 643.063 26.6055 643.25 26.6055C643.463 26.6055 643.645 26.5655 643.794 26.4855C643.949 26.4055 644.071 26.2855 644.162 26.1255L645.242 26.3895C645.05 26.7521 644.789 27.0241 644.458 27.2055C644.133 27.3868 643.735 27.4775 643.266 27.4775Z" fill="#101010"/>
<path d="M643.191 2.90918H640.188L638 6.37012L636.125 2.90918H629.25L638 17.8975L646.75 2.90918H643.191ZM631.426 4.15918H633.527L638 11.9014L642.469 4.15918H644.57L638 15.417L631.426 4.15918Z" fill="#101010"/>
<path d="M547.032 24.0055V22.7975H551.464V24.0055H549.92V28.3975H548.568V24.0055H547.032ZM552.096 27.2455C552.096 27.3415 552.12 27.4241 552.168 27.4935C552.216 27.5575 552.28 27.6081 552.36 27.6455C552.44 27.6775 552.528 27.6935 552.624 27.6935C552.762 27.6935 552.89 27.6641 553.008 27.6055C553.125 27.5468 553.221 27.4588 553.296 27.3415C553.37 27.2241 553.408 27.0801 553.408 26.9095L553.536 27.3895C553.536 27.6241 553.472 27.8241 553.344 27.9895C553.216 28.1495 553.05 28.2721 552.848 28.3575C552.645 28.4375 552.426 28.4775 552.192 28.4775C551.957 28.4775 551.738 28.4348 551.536 28.3495C551.338 28.2588 551.178 28.1255 551.056 27.9495C550.938 27.7735 550.88 27.5601 550.88 27.3095C550.88 26.9575 551.005 26.6801 551.256 26.4775C551.506 26.2695 551.861 26.1655 552.32 26.1655C552.544 26.1655 552.744 26.1868 552.92 26.2295C553.101 26.2721 553.256 26.3255 553.384 26.3895C553.512 26.4535 553.608 26.5201 553.672 26.5895V27.1255C553.544 27.0295 553.394 26.9575 553.224 26.9095C553.058 26.8561 552.882 26.8295 552.696 26.8295C552.552 26.8295 552.437 26.8455 552.352 26.8775C552.266 26.9095 552.202 26.9575 552.16 27.0215C552.117 27.0801 552.096 27.1548 552.096 27.2455ZM551.56 25.8455L551.152 25.0375C551.36 24.9361 551.61 24.8401 551.904 24.7495C552.197 24.6588 552.517 24.6135 552.864 24.6135C553.189 24.6135 553.48 24.6615 553.736 24.7575C553.992 24.8481 554.194 24.9815 554.344 25.1575C554.493 25.3335 554.568 25.5495 554.568 25.8055V28.3975H553.408V26.0775C553.408 25.9868 553.392 25.9095 553.36 25.8455C553.333 25.7761 553.29 25.7175 553.232 25.6695C553.173 25.6215 553.098 25.5868 553.008 25.5655C552.922 25.5441 552.824 25.5335 552.712 25.5335C552.546 25.5335 552.384 25.5521 552.224 25.5895C552.069 25.6268 551.933 25.6721 551.816 25.7255C551.698 25.7735 551.613 25.8135 551.56 25.8455ZM555.4 23.3335C555.4 23.1415 555.469 22.9868 555.608 22.8695C555.747 22.7468 555.912 22.6855 556.104 22.6855C556.301 22.6855 556.467 22.7468 556.6 22.8695C556.739 22.9868 556.808 23.1415 556.808 23.3335C556.808 23.5255 556.739 23.6828 556.6 23.8055C556.467 23.9281 556.301 23.9895 556.104 23.9895C555.912 23.9895 555.747 23.9281 555.608 23.8055C555.469 23.6828 555.4 23.5255 555.4 23.3335ZM555.52 24.7175H556.688V28.3975H555.52V24.7175ZM557.683 22.1575H558.899V28.3975H557.683V22.1575ZM559.311 24.7175H560.575L561.343 26.6055L562.399 24.4375L563.479 26.6055L564.247 24.7175H565.511L563.615 28.6295L562.399 26.4375L561.207 28.6295L559.311 24.7175ZM565.853 23.3335C565.853 23.1415 565.922 22.9868 566.061 22.8695C566.2 22.7468 566.365 22.6855 566.557 22.6855C566.754 22.6855 566.92 22.7468 567.053 22.8695C567.192 22.9868 567.261 23.1415 567.261 23.3335C567.261 23.5255 567.192 23.6828 567.053 23.8055C566.92 23.9281 566.754 23.9895 566.557 23.9895C566.365 23.9895 566.2 23.9281 566.061 23.8055C565.922 23.6828 565.853 23.5255 565.853 23.3335ZM565.973 24.7175H567.141V28.3975H565.973V24.7175ZM570.528 26.1575C570.528 25.9388 570.485 25.7708 570.4 25.6535C570.32 25.5361 570.184 25.4775 569.992 25.4775C569.864 25.4775 569.752 25.5041 569.656 25.5575C569.56 25.6108 569.485 25.6881 569.432 25.7895C569.379 25.8908 569.352 26.0135 569.352 26.1575V28.3975H568.136V24.7175H569.352V25.2695C569.459 25.0668 569.603 24.9095 569.784 24.7975C569.971 24.6855 570.2 24.6295 570.472 24.6295C570.931 24.6295 571.264 24.7521 571.472 24.9975C571.68 25.2428 571.784 25.5868 571.784 26.0295V28.3975H570.528V26.1575ZM575.53 22.1575H576.738V28.3975H575.53V22.1575ZM572.522 26.5575C572.522 26.1415 572.604 25.7921 572.77 25.5095C572.94 25.2268 573.159 25.0108 573.426 24.8615C573.692 24.7121 573.975 24.6375 574.274 24.6375C574.583 24.6375 574.855 24.7148 575.09 24.8695C575.33 25.0241 575.519 25.2455 575.658 25.5335C575.796 25.8161 575.866 26.1575 575.866 26.5575C575.866 26.9521 575.796 27.2935 575.658 27.5815C575.519 27.8695 575.33 28.0908 575.09 28.2455C574.855 28.4001 574.583 28.4775 574.274 28.4775C573.975 28.4775 573.692 28.4028 573.426 28.2535C573.159 28.1041 572.94 27.8881 572.77 27.6055C572.604 27.3175 572.522 26.9681 572.522 26.5575ZM573.794 26.5575C573.794 26.7495 573.834 26.9175 573.914 27.0615C573.994 27.2001 574.1 27.3095 574.234 27.3895C574.367 27.4641 574.514 27.5015 574.674 27.5015C574.812 27.5015 574.946 27.4641 575.074 27.3895C575.207 27.3148 575.316 27.2081 575.402 27.0695C575.487 26.9255 575.53 26.7548 575.53 26.5575C575.53 26.3601 575.487 26.1921 575.402 26.0535C575.316 25.9095 575.207 25.8001 575.074 25.7255C574.946 25.6508 574.812 25.6135 574.674 25.6135C574.514 25.6135 574.367 25.6535 574.234 25.7335C574.1 25.8081 573.994 25.9175 573.914 26.0615C573.834 26.2001 573.794 26.3655 573.794 26.5575Z" fill="#101010"/>
<g clip-path="url(#clip3_117_6)">
<path d="M562.001 4.39746C559.334 4.39746 557.667 5.73079 557.001 8.39746C558.001 7.06413 559.167 6.56413 560.501 6.89746C561.262 7.08746 561.805 7.63913 562.407 8.25079C563.388 9.24579 564.522 10.3975 567.001 10.3975C569.667 10.3975 571.334 9.06413 572.001 6.39746C571.001 7.73079 569.834 8.23079 568.501 7.89746C567.74 7.70746 567.197 7.15579 566.594 6.54413C565.614 5.54913 564.48 4.39746 562.001 4.39746ZM557.001 10.3975C554.334 10.3975 552.667 11.7308 552.001 14.3975C553.001 13.0641 554.167 12.5641 555.501 12.8975C556.262 13.0875 556.805 13.6391 557.407 14.2508C558.388 15.2458 559.522 16.3975 562.001 16.3975C564.667 16.3975 566.334 15.0641 567.001 12.3975C566.001 13.7308 564.834 14.2308 563.501 13.8975C562.74 13.7075 562.197 13.1558 561.594 12.5441C560.614 11.5491 559.48 10.3975 557.001 10.3975Z" fill="#101010"/>
</g>
<path d="M479.208 26.4295C479.32 26.6321 479.445 26.8081 479.584 26.9575C479.728 27.1068 479.883 27.2215 480.048 27.3015C480.219 27.3815 480.397 27.4215 480.584 27.4215C480.781 27.4215 480.944 27.3735 481.072 27.2775C481.2 27.1761 481.264 27.0401 481.264 26.8695C481.264 26.7255 481.227 26.6108 481.152 26.5255C481.077 26.4348 480.957 26.3495 480.792 26.2695C480.627 26.1895 480.408 26.0988 480.136 25.9975C480.003 25.9495 479.848 25.8828 479.672 25.7975C479.501 25.7121 479.339 25.6028 479.184 25.4695C479.029 25.3308 478.901 25.1655 478.8 24.9735C478.699 24.7761 478.648 24.5388 478.648 24.2615C478.648 23.9308 478.733 23.6455 478.904 23.4055C479.08 23.1655 479.315 22.9841 479.608 22.8615C479.907 22.7335 480.237 22.6695 480.6 22.6695C480.973 22.6695 481.296 22.7308 481.568 22.8535C481.845 22.9761 482.075 23.1308 482.256 23.3175C482.437 23.5041 482.576 23.6935 482.672 23.8855L481.64 24.4615C481.56 24.3281 481.467 24.2135 481.36 24.1175C481.259 24.0161 481.144 23.9388 481.016 23.8855C480.893 23.8268 480.76 23.7975 480.616 23.7975C480.424 23.7975 480.277 23.8401 480.176 23.9255C480.075 24.0055 480.024 24.1068 480.024 24.2295C480.024 24.3575 480.072 24.4695 480.168 24.5655C480.269 24.6615 480.411 24.7495 480.592 24.8295C480.779 24.9095 481.003 24.9948 481.264 25.0855C481.461 25.1601 481.645 25.2481 481.816 25.3495C481.987 25.4455 482.136 25.5628 482.264 25.7015C482.397 25.8401 482.501 26.0001 482.576 26.1815C482.651 26.3628 482.688 26.5708 482.688 26.8055C482.688 27.0881 482.629 27.3415 482.512 27.5655C482.4 27.7841 482.245 27.9681 482.048 28.1175C481.856 28.2668 481.635 28.3788 481.384 28.4535C481.139 28.5335 480.885 28.5735 480.624 28.5735C480.261 28.5735 479.923 28.5095 479.608 28.3815C479.299 28.2481 479.029 28.0695 478.8 27.8455C478.571 27.6215 478.392 27.3761 478.264 27.1095L479.208 26.4295ZM484.408 27.2455C484.408 27.3415 484.432 27.4241 484.48 27.4935C484.528 27.5575 484.592 27.6081 484.672 27.6455C484.752 27.6775 484.84 27.6935 484.936 27.6935C485.075 27.6935 485.203 27.6641 485.32 27.6055C485.437 27.5468 485.533 27.4588 485.608 27.3415C485.683 27.2241 485.72 27.0801 485.72 26.9095L485.848 27.3895C485.848 27.6241 485.784 27.8241 485.656 27.9895C485.528 28.1495 485.363 28.2721 485.16 28.3575C484.957 28.4375 484.739 28.4775 484.504 28.4775C484.269 28.4775 484.051 28.4348 483.848 28.3495C483.651 28.2588 483.491 28.1255 483.368 27.9495C483.251 27.7735 483.192 27.5601 483.192 27.3095C483.192 26.9575 483.317 26.6801 483.568 26.4775C483.819 26.2695 484.173 26.1655 484.632 26.1655C484.856 26.1655 485.056 26.1868 485.232 26.2295C485.413 26.2721 485.568 26.3255 485.696 26.3895C485.824 26.4535 485.92 26.5201 485.984 26.5895V27.1255C485.856 27.0295 485.707 26.9575 485.536 26.9095C485.371 26.8561 485.195 26.8295 485.008 26.8295C484.864 26.8295 484.749 26.8455 484.664 26.8775C484.579 26.9095 484.515 26.9575 484.472 27.0215C484.429 27.0801 484.408 27.1548 484.408 27.2455ZM483.872 25.8455L483.464 25.0375C483.672 24.9361 483.923 24.8401 484.216 24.7495C484.509 24.6588 484.829 24.6135 485.176 24.6135C485.501 24.6135 485.792 24.6615 486.048 24.7575C486.304 24.8481 486.507 24.9815 486.656 25.1575C486.805 25.3335 486.88 25.5495 486.88 25.8055V28.3975H485.72V26.0775C485.72 25.9868 485.704 25.9095 485.672 25.8455C485.645 25.7761 485.603 25.7175 485.544 25.6695C485.485 25.6215 485.411 25.5868 485.32 25.5655C485.235 25.5441 485.136 25.5335 485.024 25.5335C484.859 25.5335 484.696 25.5521 484.536 25.5895C484.381 25.6268 484.245 25.6721 484.128 25.7255C484.011 25.7735 483.925 25.8135 483.872 25.8455ZM487.985 27.0615C488.171 27.2161 488.339 27.3388 488.488 27.4295C488.643 27.5148 488.779 27.5761 488.897 27.6135C489.014 27.6455 489.115 27.6615 489.201 27.6615C489.323 27.6615 489.414 27.6348 489.473 27.5815C489.531 27.5281 489.561 27.4588 489.561 27.3735C489.561 27.2935 489.537 27.2268 489.489 27.1735C489.441 27.1148 489.358 27.0588 489.241 27.0055C489.129 26.9521 488.974 26.8961 488.777 26.8375C488.601 26.7735 488.433 26.6988 488.273 26.6135C488.118 26.5228 487.99 26.4028 487.889 26.2535C487.787 26.1041 487.737 25.9121 487.737 25.6775C487.737 25.4535 487.795 25.2641 487.913 25.1095C488.035 24.9548 488.198 24.8375 488.401 24.7575C488.609 24.6775 488.846 24.6375 489.113 24.6375C489.326 24.6375 489.523 24.6615 489.705 24.7095C489.891 24.7575 490.065 24.8215 490.225 24.9015C490.39 24.9815 490.545 25.0748 490.689 25.1815L490.257 25.9655C490.102 25.8215 489.926 25.7041 489.729 25.6135C489.531 25.5175 489.35 25.4695 489.185 25.4695C489.073 25.4695 488.987 25.4908 488.929 25.5335C488.875 25.5761 488.849 25.6321 488.849 25.7015C488.849 25.7815 488.881 25.8481 488.945 25.9015C489.014 25.9548 489.11 26.0055 489.233 26.0535C489.361 26.0961 489.515 26.1521 489.697 26.2215C489.889 26.2908 490.065 26.3708 490.225 26.4615C490.39 26.5521 490.521 26.6668 490.617 26.8055C490.718 26.9441 490.769 27.1281 490.769 27.3575C490.769 27.7521 490.646 28.0508 490.401 28.2535C490.161 28.4508 489.822 28.5495 489.385 28.5495C489.118 28.5495 488.87 28.5175 488.641 28.4535C488.417 28.3948 488.209 28.3148 488.017 28.2135C487.825 28.1068 487.646 27.9895 487.481 27.8615L487.985 27.0615ZM491.633 27.0615C491.82 27.2161 491.988 27.3388 492.137 27.4295C492.292 27.5148 492.428 27.5761 492.545 27.6135C492.662 27.6455 492.764 27.6615 492.849 27.6615C492.972 27.6615 493.062 27.6348 493.121 27.5815C493.18 27.5281 493.209 27.4588 493.209 27.3735C493.209 27.2935 493.185 27.2268 493.137 27.1735C493.089 27.1148 493.006 27.0588 492.889 27.0055C492.777 26.9521 492.622 26.8961 492.425 26.8375C492.249 26.7735 492.081 26.6988 491.921 26.6135C491.766 26.5228 491.638 26.4028 491.537 26.2535C491.436 26.1041 491.385 25.9121 491.385 25.6775C491.385 25.4535 491.444 25.2641 491.561 25.1095C491.684 24.9548 491.846 24.8375 492.049 24.7575C492.257 24.6775 492.494 24.6375 492.761 24.6375C492.974 24.6375 493.172 24.6615 493.353 24.7095C493.54 24.7575 493.713 24.8215 493.873 24.9015C494.038 24.9815 494.193 25.0748 494.337 25.1815L493.905 25.9655C493.75 25.8215 493.574 25.7041 493.377 25.6135C493.18 25.5175 492.998 25.4695 492.833 25.4695C492.721 25.4695 492.636 25.4908 492.577 25.5335C492.524 25.5761 492.497 25.6321 492.497 25.7015C492.497 25.7815 492.529 25.8481 492.593 25.9015C492.662 25.9548 492.758 26.0055 492.881 26.0535C493.009 26.0961 493.164 26.1521 493.345 26.2215C493.537 26.2908 493.713 26.3708 493.873 26.4615C494.038 26.5521 494.169 26.6668 494.265 26.8055C494.366 26.9441 494.417 27.1281 494.417 27.3575C494.417 27.7521 494.294 28.0508 494.049 28.2535C493.809 28.4508 493.47 28.5495 493.033 28.5495C492.766 28.5495 492.518 28.5175 492.289 28.4535C492.065 28.3948 491.857 28.3148 491.665 28.2135C491.473 28.1068 491.294 27.9895 491.129 27.8615L491.633 27.0615Z" fill="#101010"/>
<path d="M486.433 14.2387C486.423 14.2575 486.414 14.2725 486.433 14.2387ZM494.218 11.52C493.589 11.5197 492.969 11.6641 492.405 11.9418C492.221 11.57 492.03 11.245 491.999 11.0012C491.962 10.7168 491.921 10.5481 491.965 10.2106C492.008 9.87308 492.205 9.39495 492.202 9.36058C492.199 9.3262 492.158 9.15433 491.755 9.1512C491.352 9.14808 491.005 9.22933 490.965 9.33558C490.894 9.52975 490.838 9.72936 490.799 9.93245C490.728 10.2981 489.993 11.6043 489.578 12.2856C489.44 12.02 489.325 11.7856 489.3 11.5981C489.262 11.3137 489.222 11.145 489.265 10.8075C489.309 10.47 489.506 9.99183 489.503 9.95745C489.5 9.92308 489.459 9.7512 489.056 9.74808C488.653 9.74495 488.306 9.8262 488.266 9.93245C488.225 10.0387 488.181 10.2887 488.1 10.5293C488.019 10.77 487.041 12.945 486.785 13.5106C486.654 13.7981 486.541 14.0293 486.46 14.1856C486.448 14.2106 486.438 14.2262 486.432 14.2387C486.441 14.2231 486.448 14.2075 486.448 14.2137C486.379 14.3481 486.338 14.4231 486.338 14.4231V14.4262C486.285 14.5262 486.226 14.6168 486.198 14.6168C486.179 14.6168 486.138 14.3543 486.207 13.995C486.354 13.2387 486.701 12.0637 486.698 12.0231C486.694 12.0012 486.763 11.7981 486.469 11.6887C486.185 11.5856 486.082 11.7575 486.057 11.7575C486.032 11.7575 486.013 11.82 486.013 11.82C486.013 11.82 486.329 10.495 485.407 10.495C484.832 10.495 484.032 11.1262 483.639 11.6981C483.392 11.8325 482.858 12.1231 482.295 12.4325C482.08 12.5512 481.858 12.6731 481.648 12.7887C481.633 12.7731 481.62 12.7575 481.605 12.7418C480.486 11.5481 478.421 10.7043 478.509 9.1012C478.54 8.51683 478.743 6.98245 482.48 5.11995C485.542 3.59495 487.991 4.0137 488.412 4.94495C489.018 6.27308 487.103 8.74495 483.923 9.1012C482.711 9.23558 482.073 8.76683 481.914 8.59183C481.748 8.40745 481.723 8.39808 481.661 8.43245C481.558 8.4887 481.623 8.6512 481.661 8.74808C481.755 8.99495 482.145 9.43245 482.811 9.6512C483.395 9.84183 484.816 9.94808 486.535 9.28245C488.465 8.5387 489.968 6.46683 489.528 4.73245C489.079 2.96995 486.156 2.39183 483.393 3.37308C481.746 3.95745 479.966 4.8762 478.685 6.07308C477.163 7.49808 476.92 8.7387 477.02 9.25745C477.376 11.0981 479.913 12.2981 480.928 13.1856C480.878 13.2137 480.831 13.2387 480.787 13.2637C480.278 13.5168 478.344 14.5293 477.86 15.5981C477.313 16.8106 477.951 17.6793 478.369 17.7981C479.675 18.1606 481.012 17.5075 481.731 16.4356C482.449 15.3637 482.362 13.9637 482.031 13.3262C482.028 13.3168 482.021 13.3106 482.018 13.3012C482.149 13.2231 482.284 13.145 482.418 13.0668C482.677 12.9137 482.93 12.7731 483.152 12.6512C483.027 12.9887 482.937 13.395 482.89 13.9825C482.833 14.67 483.118 15.5606 483.487 15.9106C483.649 16.0637 483.846 16.0668 483.968 16.0668C484.399 16.0668 484.593 15.7106 484.808 15.2856C485.073 14.7668 485.308 14.1637 485.308 14.1637C485.308 14.1637 485.014 15.795 485.817 15.795C486.111 15.795 486.404 15.4168 486.536 15.2231V15.2262C486.536 15.2262 486.542 15.2137 486.558 15.1887C486.589 15.1418 486.605 15.1137 486.605 15.1137V15.1043C486.723 14.9012 486.983 14.4356 487.373 13.6668C487.879 12.6731 488.363 11.4325 488.363 11.4325C488.41 11.7052 488.475 11.9745 488.557 12.2387C488.645 12.5356 488.829 12.8606 488.976 13.1762C488.857 13.3387 488.785 13.4325 488.785 13.4325C488.786 13.4349 488.787 13.4371 488.788 13.4387C488.695 13.5637 488.588 13.6981 488.479 13.8293C488.079 14.3043 487.604 14.8481 487.542 15.0043C487.467 15.1887 487.485 15.3262 487.629 15.4325C487.735 15.5137 487.923 15.5262 488.119 15.5106C488.479 15.4856 488.732 15.3981 488.854 15.3418C489.078 15.2613 489.291 15.1498 489.485 15.0106C489.875 14.7231 490.113 14.3106 490.091 13.7668C490.078 13.4668 489.982 13.1668 489.863 12.8856C489.897 12.8356 489.935 12.7825 489.969 12.7293C490.588 11.8262 491.066 10.835 491.066 10.835C491.112 11.1077 491.177 11.377 491.259 11.6412C491.334 11.8943 491.481 12.1725 491.615 12.4443C491.034 12.9162 490.675 13.4631 490.55 13.8225C490.319 14.4881 490.5 14.7881 490.841 14.8568C490.994 14.8881 491.213 14.8162 491.375 14.7475C491.616 14.6671 491.844 14.5501 492.05 14.4006C492.44 14.1131 492.818 13.71 492.793 13.1631C492.784 12.9162 492.715 12.6693 492.624 12.4318C493.115 12.2256 493.752 12.1131 494.565 12.2068C496.305 12.41 496.645 13.4975 496.58 13.9506C496.514 14.4037 496.148 14.6568 496.027 14.7318C495.905 14.8068 495.867 14.835 495.877 14.8912C495.892 14.9725 495.948 14.9693 496.052 14.9506C496.195 14.9256 496.964 14.5818 496.998 13.7412C497.048 12.6787 496.027 11.51 494.217 11.5193L494.218 11.52ZM480.806 16.0418C480.231 16.67 479.425 16.9075 479.078 16.7075C478.707 16.4912 478.853 15.5668 479.563 14.8975C479.994 14.4912 480.55 14.1162 480.918 13.885C481.003 13.835 481.125 13.76 481.275 13.6693C481.3 13.6537 481.312 13.6475 481.312 13.6475C481.34 13.6287 481.372 13.6131 481.403 13.5943C481.662 14.5443 481.412 15.3818 480.806 16.0412V16.0418ZM485.005 13.1856C484.805 13.6762 484.383 14.9262 484.127 14.8606C483.908 14.8043 483.774 13.8512 484.083 12.9137C484.239 12.4418 484.571 11.8793 484.768 11.6606C485.083 11.3075 485.43 11.195 485.511 11.3356C485.62 11.52 485.13 12.8793 485.005 13.1856ZM488.473 14.8418C488.389 14.8856 488.311 14.9137 488.273 14.8918C488.245 14.8762 488.308 14.8168 488.308 14.8168C488.308 14.8168 488.742 14.3512 488.914 14.1387C489.014 14.0137 489.13 13.8668 489.254 13.7043C489.254 13.72 489.258 13.7356 489.258 13.7543C489.253 14.3137 488.716 14.6918 488.473 14.8418H488.473ZM491.148 14.2325C491.085 14.1887 491.095 14.0418 491.304 13.5856C491.385 13.4075 491.573 13.1075 491.898 12.82C491.935 12.9288 491.955 13.0426 491.957 13.1575C491.954 13.8606 491.451 14.1231 491.148 14.2325H491.148Z" fill="#101010"/>
<path d="M391.6 25.6135V25.0215H392.504C392.659 25.0215 392.789 24.9975 392.896 24.9495C393.008 24.9015 393.093 24.8348 393.152 24.7495C393.211 24.6588 393.24 24.5495 393.24 24.4215C393.24 24.2295 393.176 24.0855 393.048 23.9895C392.92 23.8935 392.739 23.8455 392.504 23.8455H391.944V27.3495H392.632C392.808 27.3495 392.965 27.3281 393.104 27.2855C393.243 27.2375 393.352 27.1628 393.432 27.0615C393.517 26.9548 393.56 26.8108 393.56 26.6295C393.56 26.5121 393.536 26.4108 393.488 26.3255C393.44 26.2401 393.373 26.1708 393.288 26.1175C393.203 26.0641 393.104 26.0268 392.992 26.0055C392.885 25.9788 392.765 25.9655 392.632 25.9655H391.6V25.2295H392.784C393.056 25.2295 393.32 25.2588 393.576 25.3175C393.832 25.3761 394.064 25.4721 394.272 25.6055C394.48 25.7335 394.645 25.8988 394.768 26.1015C394.896 26.2988 394.96 26.5388 394.96 26.8215C394.96 27.1948 394.869 27.4961 394.688 27.7255C394.512 27.9548 394.261 28.1255 393.936 28.2375C393.611 28.3441 393.227 28.3975 392.784 28.3975H390.592V22.7975H392.648C393.037 22.7975 393.379 22.8508 393.672 22.9575C393.971 23.0588 394.205 23.2161 394.376 23.4295C394.552 23.6375 394.64 23.9015 394.64 24.2215C394.64 24.5148 394.552 24.7655 394.376 24.9735C394.205 25.1815 393.971 25.3415 393.672 25.4535C393.379 25.5601 393.037 25.6135 392.648 25.6135H391.6ZM395.569 26.5575C395.569 26.1681 395.659 25.8295 395.84 25.5415C396.022 25.2535 396.273 25.0295 396.593 24.8695C396.913 24.7095 397.273 24.6295 397.673 24.6295C398.073 24.6295 398.43 24.7095 398.745 24.8695C399.065 25.0295 399.315 25.2535 399.497 25.5415C399.683 25.8295 399.777 26.1681 399.777 26.5575C399.777 26.9415 399.683 27.2775 399.497 27.5655C399.315 27.8535 399.065 28.0775 398.745 28.2375C398.43 28.3975 398.073 28.4775 397.673 28.4775C397.273 28.4775 396.913 28.3975 396.593 28.2375C396.273 28.0775 396.022 27.8535 395.84 27.5655C395.659 27.2775 395.569 26.9415 395.569 26.5575ZM396.809 26.5575C396.809 26.7495 396.849 26.9148 396.929 27.0535C397.009 27.1868 397.113 27.2908 397.241 27.3655C397.369 27.4401 397.513 27.4775 397.673 27.4775C397.827 27.4775 397.969 27.4401 398.097 27.3655C398.23 27.2908 398.334 27.1868 398.409 27.0535C398.489 26.9148 398.529 26.7495 398.529 26.5575C398.529 26.3655 398.489 26.2001 398.409 26.0615C398.334 25.9228 398.23 25.8161 398.097 25.7415C397.969 25.6668 397.827 25.6295 397.673 25.6295C397.513 25.6295 397.369 25.6668 397.241 25.7415C397.113 25.8161 397.009 25.9228 396.929 26.0615C396.849 26.2001 396.809 26.3655 396.809 26.5575ZM400.287 26.5575C400.287 26.1681 400.378 25.8295 400.559 25.5415C400.741 25.2535 400.991 25.0295 401.311 24.8695C401.631 24.7095 401.991 24.6295 402.391 24.6295C402.791 24.6295 403.149 24.7095 403.463 24.8695C403.783 25.0295 404.034 25.2535 404.215 25.5415C404.402 25.8295 404.495 26.1681 404.495 26.5575C404.495 26.9415 404.402 27.2775 404.215 27.5655C404.034 27.8535 403.783 28.0775 403.463 28.2375C403.149 28.3975 402.791 28.4775 402.391 28.4775C401.991 28.4775 401.631 28.3975 401.311 28.2375C400.991 28.0775 400.741 27.8535 400.559 27.5655C400.378 27.2775 400.287 26.9415 400.287 26.5575ZM401.527 26.5575C401.527 26.7495 401.567 26.9148 401.647 27.0535C401.727 27.1868 401.831 27.2908 401.959 27.3655C402.087 27.4401 402.231 27.4775 402.391 27.4775C402.546 27.4775 402.687 27.4401 402.815 27.3655C402.949 27.2908 403.053 27.1868 403.127 27.0535C403.207 26.9148 403.247 26.7495 403.247 26.5575C403.247 26.3655 403.207 26.2001 403.127 26.0615C403.053 25.9228 402.949 25.8161 402.815 25.7415C402.687 25.6668 402.546 25.6295 402.391 25.6295C402.231 25.6295 402.087 25.6668 401.959 25.7415C401.831 25.8161 401.727 25.9228 401.647 26.0615C401.567 26.2001 401.527 26.3655 401.527 26.5575ZM404.79 24.7175H407.254V25.7175H404.79V24.7175ZM405.438 23.4375H406.598V28.3975H405.438V23.4375ZM407.969 27.0615C408.156 27.2161 408.324 27.3388 408.473 27.4295C408.628 27.5148 408.764 27.5761 408.881 27.6135C408.998 27.6455 409.1 27.6615 409.185 27.6615C409.308 27.6615 409.398 27.6348 409.457 27.5815C409.516 27.5281 409.545 27.4588 409.545 27.3735C409.545 27.2935 409.521 27.2268 409.473 27.1735C409.425 27.1148 409.342 27.0588 409.225 27.0055C409.113 26.9521 408.958 26.8961 408.761 26.8375C408.585 26.7735 408.417 26.6988 408.257 26.6135C408.102 26.5228 407.974 26.4028 407.873 26.2535C407.772 26.1041 407.721 25.9121 407.721 25.6775C407.721 25.4535 407.78 25.2641 407.897 25.1095C408.02 24.9548 408.182 24.8375 408.385 24.7575C408.593 24.6775 408.83 24.6375 409.097 24.6375C409.31 24.6375 409.508 24.6615 409.689 24.7095C409.876 24.7575 410.049 24.8215 410.209 24.9015C410.374 24.9815 410.529 25.0748 410.673 25.1815L410.241 25.9655C410.086 25.8215 409.91 25.7041 409.713 25.6135C409.516 25.5175 409.334 25.4695 409.169 25.4695C409.057 25.4695 408.972 25.4908 408.913 25.5335C408.86 25.5761 408.833 25.6321 408.833 25.7015C408.833 25.7815 408.865 25.8481 408.929 25.9015C408.998 25.9548 409.094 26.0055 409.217 26.0535C409.345 26.0961 409.5 26.1521 409.681 26.2215C409.873 26.2908 410.049 26.3708 410.209 26.4615C410.374 26.5521 410.505 26.6668 410.601 26.8055C410.702 26.9441 410.753 27.1281 410.753 27.3575C410.753 27.7521 410.63 28.0508 410.385 28.2535C410.145 28.4508 409.806 28.5495 409.369 28.5495C409.102 28.5495 408.854 28.5175 408.625 28.4535C408.401 28.3948 408.193 28.3148 408.001 28.2135C407.809 28.1068 407.63 27.9895 407.465 27.8615L407.969 27.0615ZM410.985 24.7175H413.449V25.7175H410.985V24.7175ZM411.633 23.4375H412.793V28.3975H411.633V23.4375ZM415.156 24.7175V28.3975H413.964V24.7175H415.156ZM416.22 25.9655C416.156 25.9015 416.087 25.8508 416.012 25.8135C415.943 25.7761 415.855 25.7575 415.748 25.7575C415.631 25.7575 415.527 25.7895 415.436 25.8535C415.346 25.9175 415.276 26.0108 415.228 26.1335C415.18 26.2561 415.156 26.4055 415.156 26.5815L414.868 26.1575C414.868 25.8641 414.924 25.6028 415.036 25.3735C415.154 25.1441 415.306 24.9628 415.492 24.8295C415.679 24.6961 415.874 24.6295 416.076 24.6295C416.21 24.6295 416.338 24.6561 416.46 24.7095C416.583 24.7628 416.676 24.8375 416.74 24.9335L416.22 25.9655ZM418.189 27.2455C418.189 27.3415 418.213 27.4241 418.261 27.4935C418.309 27.5575 418.373 27.6081 418.453 27.6455C418.533 27.6775 418.621 27.6935 418.717 27.6935C418.856 27.6935 418.984 27.6641 419.101 27.6055C419.219 27.5468 419.315 27.4588 419.389 27.3415C419.464 27.2241 419.501 27.0801 419.501 26.9095L419.629 27.3895C419.629 27.6241 419.565 27.8241 419.437 27.9895C419.309 28.1495 419.144 28.2721 418.941 28.3575C418.739 28.4375 418.52 28.4775 418.285 28.4775C418.051 28.4775 417.832 28.4348 417.629 28.3495C417.432 28.2588 417.272 28.1255 417.149 27.9495C417.032 27.7735 416.973 27.5601 416.973 27.3095C416.973 26.9575 417.099 26.6801 417.349 26.4775C417.6 26.2695 417.955 26.1655 418.413 26.1655C418.637 26.1655 418.837 26.1868 419.013 26.2295C419.195 26.2721 419.349 26.3255 419.477 26.3895C419.605 26.4535 419.701 26.5201 419.765 26.5895V27.1255C419.637 27.0295 419.488 26.9575 419.317 26.9095C419.152 26.8561 418.976 26.8295 418.789 26.8295C418.645 26.8295 418.531 26.8455 418.445 26.8775C418.36 26.9095 418.296 26.9575 418.253 27.0215C418.211 27.0801 418.189 27.1548 418.189 27.2455ZM417.653 25.8455L417.245 25.0375C417.453 24.9361 417.704 24.8401 417.997 24.7495C418.291 24.6588 418.611 24.6135 418.957 24.6135C419.283 24.6135 419.573 24.6615 419.829 24.7575C420.085 24.8481 420.288 24.9815 420.437 25.1575C420.587 25.3335 420.661 25.5495 420.661 25.8055V28.3975H419.501V26.0775C419.501 25.9868 419.485 25.9095 419.453 25.8455C419.427 25.7761 419.384 25.7175 419.325 25.6695C419.267 25.6215 419.192 25.5868 419.101 25.5655C419.016 25.5441 418.917 25.5335 418.805 25.5335C418.64 25.5335 418.477 25.5521 418.317 25.5895C418.163 25.6268 418.027 25.6721 417.909 25.7255C417.792 25.7735 417.707 25.8135 417.653 25.8455ZM422.766 30.1575H421.558V24.7175H422.766V30.1575ZM425.774 26.5575C425.774 26.9841 425.688 27.3441 425.518 27.6375C425.352 27.9308 425.136 28.1521 424.87 28.3015C424.608 28.4508 424.326 28.5255 424.022 28.5255C423.702 28.5255 423.424 28.4455 423.19 28.2855C422.96 28.1201 422.784 27.8908 422.662 27.5975C422.539 27.2988 422.478 26.9521 422.478 26.5575C422.478 26.1575 422.539 25.8108 422.662 25.5175C422.784 25.2241 422.96 24.9975 423.19 24.8375C423.424 24.6721 423.702 24.5895 424.022 24.5895C424.326 24.5895 424.608 24.6641 424.87 24.8135C425.136 24.9628 425.352 25.1841 425.518 25.4775C425.688 25.7655 425.774 26.1255 425.774 26.5575ZM424.502 26.5575C424.502 26.3655 424.462 26.2028 424.382 26.0695C424.302 25.9361 424.195 25.8348 424.062 25.7655C423.928 25.6961 423.782 25.6615 423.622 25.6615C423.483 25.6615 423.347 25.6961 423.214 25.7655C423.086 25.8295 422.979 25.9281 422.894 26.0615C422.808 26.1948 422.766 26.3601 422.766 26.5575C422.766 26.7548 422.808 26.9201 422.894 27.0535C422.979 27.1868 423.086 27.2881 423.214 27.3575C423.347 27.4215 423.483 27.4535 423.622 27.4535C423.782 27.4535 423.928 27.4188 424.062 27.3495C424.195 27.2801 424.302 27.1788 424.382 27.0455C424.462 26.9121 424.502 26.7495 424.502 26.5575Z" fill="#101010"/>
<path d="M409.58 7.50157C409.58 6.73421 409.038 6.3106 408.087 6.3106H406.337V8.78282H407.812C408.951 8.77935 409.58 8.32102 409.58 7.50157ZM415.951 7.05713C415.622 5.98421 415.573 4.66824 415.611 3.65088C415.649 2.59185 414.823 1.61963 413.712 1.61963H402.295C401.181 1.61963 400.358 2.59532 400.396 3.65088C400.431 4.66824 400.385 5.98421 400.056 7.05713C399.722 8.13352 399.163 8.81407 398.243 8.90088V9.89046C399.16 9.97727 399.722 10.6578 400.056 11.7342C400.385 12.8071 400.434 14.1231 400.396 15.1405C400.358 16.1995 401.184 17.1717 402.295 17.1717H413.708C414.823 17.1717 415.646 16.196 415.608 15.1405C415.573 14.1231 415.618 12.8071 415.948 11.7342C416.281 10.6578 416.84 9.97727 417.757 9.89046V8.90088C416.844 8.81407 416.281 8.13352 415.951 7.05713ZM408.424 13.5328H405.024V5.25852H408.406C409.91 5.25852 410.896 6.07102 410.896 7.32102C410.896 8.19949 410.233 8.98421 409.385 9.11963V9.16477C410.538 9.28977 411.312 10.0884 411.312 11.1891C411.312 12.6509 410.226 13.5328 408.424 13.5328ZM408.076 9.75852H406.337V12.4807H408.153C409.34 12.4807 409.969 12.005 409.969 11.1092C409.969 10.2169 409.323 9.75852 408.076 9.75852Z" fill="#101010"/>
<path d="M230.032 24.608V23.4H234.464V24.608H232.92V29H231.568V24.608H230.032ZM238.482 25.32L236.082 30.76H234.866L235.762 28.704L234.17 25.32H235.498L236.69 28.272L236.066 28.264L237.242 25.32H238.482ZM240.086 30.76H238.878V25.32H240.086V30.76ZM243.094 27.16C243.094 27.5867 243.009 27.9467 242.838 28.24C242.673 28.5333 242.457 28.7547 242.19 28.904C241.929 29.0533 241.646 29.128 241.342 29.128C241.022 29.128 240.745 29.048 240.51 28.888C240.281 28.7227 240.105 28.4933 239.982 28.2C239.859 27.9013 239.798 27.5547 239.798 27.16C239.798 26.76 239.859 26.4133 239.982 26.12C240.105 25.8267 240.281 25.6 240.51 25.44C240.745 25.2747 241.022 25.192 241.342 25.192C241.646 25.192 241.929 25.2667 242.19 25.416C242.457 25.5653 242.673 25.7867 242.838 26.08C243.009 26.368 243.094 26.728 243.094 27.16ZM241.822 27.16C241.822 26.968 241.782 26.8053 241.702 26.672C241.622 26.5387 241.515 26.4373 241.382 26.368C241.249 26.2987 241.102 26.264 240.942 26.264C240.803 26.264 240.667 26.2987 240.534 26.368C240.406 26.432 240.299 26.5307 240.214 26.664C240.129 26.7973 240.086 26.9627 240.086 27.16C240.086 27.3573 240.129 27.5227 240.214 27.656C240.299 27.7893 240.406 27.8907 240.534 27.96C240.667 28.024 240.803 28.056 240.942 28.056C241.102 28.056 241.249 28.0213 241.382 27.952C241.515 27.8827 241.622 27.7813 241.702 27.648C241.782 27.5147 241.822 27.352 241.822 27.16ZM245.696 29.08C245.269 29.08 244.898 29.0027 244.584 28.848C244.274 28.688 244.034 28.464 243.864 28.176C243.693 27.888 243.608 27.5493 243.608 27.16C243.608 26.7653 243.69 26.424 243.856 26.136C244.021 25.848 244.258 25.6267 244.568 25.472C244.882 25.3173 245.253 25.24 245.68 25.24C246.106 25.24 246.466 25.3147 246.76 25.464C247.053 25.608 247.277 25.8187 247.432 26.096C247.586 26.3733 247.664 26.7093 247.664 27.104C247.664 27.1627 247.664 27.2213 247.664 27.28C247.664 27.3333 247.658 27.3787 247.648 27.416H244.288V26.744H246.56L246.272 27.112C246.298 27.0747 246.32 27.0293 246.336 26.976C246.357 26.9173 246.368 26.8693 246.368 26.832C246.368 26.672 246.338 26.5333 246.28 26.416C246.221 26.2987 246.138 26.208 246.032 26.144C245.925 26.08 245.8 26.048 245.656 26.048C245.474 26.048 245.322 26.088 245.2 26.168C245.077 26.248 244.984 26.3707 244.92 26.536C244.861 26.696 244.829 26.8987 244.824 27.144C244.824 27.368 244.856 27.56 244.92 27.72C244.984 27.88 245.08 28.0027 245.208 28.088C245.336 28.168 245.493 28.208 245.68 28.208C245.893 28.208 246.074 28.168 246.224 28.088C246.378 28.008 246.501 27.888 246.592 27.728L247.672 27.992C247.48 28.3547 247.218 28.6267 246.888 28.808C246.562 28.9893 246.165 29.08 245.696 29.08ZM248.61 27.664C248.796 27.8187 248.964 27.9413 249.113 28.032C249.268 28.1173 249.404 28.1787 249.522 28.216C249.639 28.248 249.74 28.264 249.826 28.264C249.948 28.264 250.039 28.2373 250.098 28.184C250.156 28.1307 250.186 28.0613 250.186 27.976C250.186 27.896 250.162 27.8293 250.114 27.776C250.066 27.7173 249.983 27.6613 249.866 27.608C249.754 27.5547 249.599 27.4987 249.402 27.44C249.226 27.376 249.058 27.3013 248.898 27.216C248.743 27.1253 248.615 27.0053 248.514 26.856C248.412 26.7067 248.362 26.5147 248.362 26.28C248.362 26.056 248.42 25.8667 248.538 25.712C248.66 25.5573 248.823 25.44 249.026 25.36C249.234 25.28 249.471 25.24 249.738 25.24C249.951 25.24 250.148 25.264 250.33 25.312C250.516 25.36 250.69 25.424 250.85 25.504C251.015 25.584 251.17 25.6773 251.314 25.784L250.882 26.568C250.727 26.424 250.551 26.3067 250.354 26.216C250.156 26.12 249.975 26.072 249.81 26.072C249.698 26.072 249.612 26.0933 249.554 26.136C249.5 26.1787 249.474 26.2347 249.474 26.304C249.474 26.384 249.506 26.4507 249.57 26.504C249.639 26.5573 249.735 26.608 249.858 26.656C249.986 26.6987 250.14 26.7547 250.322 26.824C250.514 26.8933 250.69 26.9733 250.85 27.064C251.015 27.1547 251.146 27.2693 251.242 27.408C251.343 27.5467 251.394 27.7307 251.394 27.96C251.394 28.3547 251.271 28.6533 251.026 28.856C250.786 29.0533 250.447 29.152 250.01 29.152C249.743 29.152 249.495 29.12 249.266 29.056C249.042 28.9973 248.834 28.9173 248.642 28.816C248.45 28.7093 248.271 28.592 248.106 28.464L248.61 27.664ZM253.074 27.16C253.074 27.3573 253.117 27.528 253.202 27.672C253.287 27.8107 253.405 27.92 253.554 28C253.709 28.08 253.874 28.12 254.05 28.12C254.199 28.12 254.341 28.0987 254.474 28.056C254.613 28.008 254.738 27.944 254.85 27.864C254.967 27.784 255.063 27.6853 255.138 27.568V28.744C255.01 28.8453 254.85 28.928 254.658 28.992C254.466 29.0507 254.231 29.08 253.954 29.08C253.549 29.08 253.183 29 252.858 28.84C252.538 28.68 252.285 28.456 252.098 28.168C251.917 27.88 251.826 27.544 251.826 27.16C251.826 26.7707 251.917 26.4347 252.098 26.152C252.285 25.864 252.538 25.64 252.858 25.48C253.183 25.32 253.549 25.24 253.954 25.24C254.231 25.24 254.466 25.272 254.658 25.336C254.85 25.3947 255.01 25.4693 255.138 25.56V26.744C255.063 26.6267 254.965 26.528 254.842 26.448C254.725 26.368 254.597 26.3067 254.458 26.264C254.319 26.2213 254.183 26.2 254.05 26.2C253.874 26.2 253.709 26.2427 253.554 26.328C253.405 26.4133 253.287 26.528 253.202 26.672C253.117 26.816 253.074 26.9787 253.074 27.16ZM257.203 25.32V29H256.011V25.32H257.203ZM258.267 26.568C258.203 26.504 258.134 26.4533 258.059 26.416C257.99 26.3787 257.902 26.36 257.795 26.36C257.678 26.36 257.574 26.392 257.483 26.456C257.392 26.52 257.323 26.6133 257.275 26.736C257.227 26.8587 257.203 27.008 257.203 27.184L256.915 26.76C256.915 26.4667 256.971 26.2053 257.083 25.976C257.2 25.7467 257.352 25.5653 257.539 25.432C257.726 25.2987 257.92 25.232 258.123 25.232C258.256 25.232 258.384 25.2587 258.507 25.312C258.63 25.3653 258.723 25.44 258.787 25.536L258.267 26.568ZM259.228 23.936C259.228 23.744 259.297 23.5893 259.436 23.472C259.575 23.3493 259.74 23.288 259.932 23.288C260.129 23.288 260.295 23.3493 260.428 23.472C260.567 23.5893 260.636 23.744 260.636 23.936C260.636 24.128 260.567 24.2853 260.428 24.408C260.295 24.5307 260.129 24.592 259.932 24.592C259.74 24.592 259.575 24.5307 259.436 24.408C259.297 24.2853 259.228 24.128 259.228 23.936ZM259.348 25.32H260.516V29H259.348V25.32ZM262.711 30.76H261.503V25.32H262.711V30.76ZM265.719 27.16C265.719 27.5867 265.634 27.9467 265.463 28.24C265.298 28.5333 265.082 28.7547 264.815 28.904C264.554 29.0533 264.271 29.128 263.967 29.128C263.647 29.128 263.37 29.048 263.135 28.888C262.906 28.7227 262.73 28.4933 262.607 28.2C262.484 27.9013 262.423 27.5547 262.423 27.16C262.423 26.76 262.484 26.4133 262.607 26.12C262.73 25.8267 262.906 25.6 263.135 25.44C263.37 25.2747 263.647 25.192 263.967 25.192C264.271 25.192 264.554 25.2667 264.815 25.416C265.082 25.5653 265.298 25.7867 265.463 26.08C265.634 26.368 265.719 26.728 265.719 27.16ZM264.447 27.16C264.447 26.968 264.407 26.8053 264.327 26.672C264.247 26.5387 264.14 26.4373 264.007 26.368C263.874 26.2987 263.727 26.264 263.567 26.264C263.428 26.264 263.292 26.2987 263.159 26.368C263.031 26.432 262.924 26.5307 262.839 26.664C262.754 26.7973 262.711 26.9627 262.711 27.16C262.711 27.3573 262.754 27.5227 262.839 27.656C262.924 27.7893 263.031 27.8907 263.159 27.96C263.292 28.024 263.428 28.056 263.567 28.056C263.727 28.056 263.874 28.0213 264.007 27.952C264.14 27.8827 264.247 27.7813 264.327 27.648C264.407 27.5147 264.447 27.352 264.447 27.16ZM266.017 25.32H268.481V26.32H266.017V25.32ZM266.665 24.04H267.825V29H266.665V24.04Z" fill="#101010"/>
<g clip-path="url(#clip4_117_6)">
<path d="M239.937 0C239.418 0 239 0.418333 239 0.9375V19.0625C239 19.5817 239.418 20 239.937 20H258.062C258.582 20 259 19.5817 259 19.0625V0.9375C259 0.418333 258.582 0 258.062 0H239.937ZM254.407 8.125C254.917 8.125 255.368 8.15583 255.762 8.2175C256.134 8.2732 256.499 8.36818 256.851 8.50083V10.5492C256.682 10.4324 256.503 10.3317 256.315 10.2483C256.122 10.1613 255.922 10.0889 255.718 10.0317C255.33 9.92383 254.931 9.86778 254.529 9.865C254.279 9.865 254.052 9.88833 253.847 9.93667C253.664 9.97574 253.489 10.0438 253.328 10.1383C253.186 10.225 253.077 10.3292 253 10.45C252.922 10.5718 252.881 10.7137 252.883 10.8583C252.883 11.0217 252.927 11.1692 253.013 11.2992C253.1 11.4292 253.223 11.5525 253.383 11.6692C253.542 11.7858 253.735 11.8992 253.962 12.0108C254.19 12.1233 254.448 12.2392 254.734 12.3575C255.126 12.5217 255.477 12.6967 255.789 12.8808C256.101 13.0658 256.368 13.275 256.592 13.5083C256.815 13.7408 256.985 14.0067 257.103 14.3058C257.222 14.605 257.282 14.9525 257.282 15.35C257.282 15.8975 257.178 16.3583 256.971 16.73C256.769 17.0966 256.479 17.4072 256.127 17.6342C255.748 17.8745 255.328 18.0429 254.888 18.1308C254.417 18.2308 253.919 18.2808 253.397 18.2808C252.882 18.2831 252.369 18.2373 251.863 18.1442C251.426 18.0685 251.001 17.9301 250.603 17.7333V15.5417C251.356 16.1826 252.312 16.5368 253.301 16.5417C253.578 16.5417 253.821 16.5167 254.028 16.4667C254.235 16.4167 254.407 16.3467 254.547 16.2583C254.685 16.1683 254.788 16.0633 254.857 15.9417C254.934 15.8 254.969 15.6396 254.958 15.479C254.947 15.3184 254.891 15.1642 254.796 15.0342C254.672 14.8703 254.521 14.7293 254.348 14.6175C254.135 14.4759 253.91 14.3521 253.676 14.2475C253.399 14.1209 253.119 13.9997 252.837 13.8842C252.072 13.565 251.502 13.1742 251.126 12.7133C250.751 12.2525 250.562 11.695 250.562 11.0425C250.562 10.5308 250.665 10.0917 250.87 9.72417C251.075 9.35667 251.353 9.05417 251.707 8.81667C252.08 8.57012 252.495 8.39259 252.932 8.2925C253.415 8.17855 253.91 8.12232 254.407 8.125ZM241.812 8.28167H249.782V10.0867H246.922V18.125H244.657V10.0867H241.812V8.28167Z" fill="#101010"/>
</g>
<path d="M142.424 28.9095C142.504 28.9788 142.603 29.0375 142.72 29.0855C142.837 29.1388 142.955 29.1655 143.072 29.1655C143.195 29.1655 143.312 29.1175 143.424 29.0215C143.536 28.9255 143.592 28.7601 143.592 28.5255V22.7975H145.048V28.8295C145.048 29.0961 145 29.3228 144.904 29.5095C144.808 29.7015 144.675 29.8535 144.504 29.9655C144.333 30.0828 144.136 30.1681 143.912 30.2215C143.688 30.2801 143.453 30.3095 143.208 30.3095C143 30.3095 142.8 30.2855 142.608 30.2375C142.416 30.1895 142.243 30.1308 142.088 30.0615C141.933 29.9975 141.8 29.9281 141.688 29.8535L142.424 28.9095ZM147.049 27.2455C147.049 27.3415 147.073 27.4241 147.121 27.4935C147.169 27.5575 147.233 27.6081 147.313 27.6455C147.393 27.6775 147.481 27.6935 147.577 27.6935C147.715 27.6935 147.843 27.6641 147.961 27.6055C148.078 27.5468 148.174 27.4588 148.249 27.3415C148.323 27.2241 148.361 27.0801 148.361 26.9095L148.489 27.3895C148.489 27.6241 148.425 27.8241 148.297 27.9895C148.169 28.1495 148.003 28.2721 147.801 28.3575C147.598 28.4375 147.379 28.4775 147.145 28.4775C146.91 28.4775 146.691 28.4348 146.489 28.3495C146.291 28.2588 146.131 28.1255 146.009 27.9495C145.891 27.7735 145.833 27.5601 145.833 27.3095C145.833 26.9575 145.958 26.6801 146.209 26.4775C146.459 26.2695 146.814 26.1655 147.273 26.1655C147.497 26.1655 147.697 26.1868 147.873 26.2295C148.054 26.2721 148.209 26.3255 148.337 26.3895C148.465 26.4535 148.561 26.5201 148.625 26.5895V27.1255C148.497 27.0295 148.347 26.9575 148.177 26.9095C148.011 26.8561 147.835 26.8295 147.649 26.8295C147.505 26.8295 147.39 26.8455 147.305 26.8775C147.219 26.9095 147.155 26.9575 147.113 27.0215C147.07 27.0801 147.049 27.1548 147.049 27.2455ZM146.513 25.8455L146.105 25.0375C146.313 24.9361 146.563 24.8401 146.857 24.7495C147.15 24.6588 147.47 24.6135 147.817 24.6135C148.142 24.6135 148.433 24.6615 148.689 24.7575C148.945 24.8481 149.147 24.9815 149.297 25.1575C149.446 25.3335 149.521 25.5495 149.521 25.8055V28.3975H148.361V26.0775C148.361 25.9868 148.345 25.9095 148.313 25.8455C148.286 25.7761 148.243 25.7175 148.185 25.6695C148.126 25.6215 148.051 25.5868 147.961 25.5655C147.875 25.5441 147.777 25.5335 147.665 25.5335C147.499 25.5335 147.337 25.5521 147.177 25.5895C147.022 25.6268 146.886 25.6721 146.769 25.7255C146.651 25.7735 146.566 25.8135 146.513 25.8455ZM149.89 24.7175H151.178L152.026 26.7575L152.866 24.7175H154.154L152.026 28.8295L149.89 24.7175ZM155.541 27.2455C155.541 27.3415 155.565 27.4241 155.613 27.4935C155.661 27.5575 155.725 27.6081 155.805 27.6455C155.885 27.6775 155.973 27.6935 156.069 27.6935C156.207 27.6935 156.335 27.6641 156.453 27.6055C156.57 27.5468 156.666 27.4588 156.741 27.3415C156.815 27.2241 156.853 27.0801 156.853 26.9095L156.981 27.3895C156.981 27.6241 156.917 27.8241 156.789 27.9895C156.661 28.1495 156.495 28.2721 156.293 28.3575C156.09 28.4375 155.871 28.4775 155.637 28.4775C155.402 28.4775 155.183 28.4348 154.981 28.3495C154.783 28.2588 154.623 28.1255 154.501 27.9495C154.383 27.7735 154.325 27.5601 154.325 27.3095C154.325 26.9575 154.45 26.6801 154.701 26.4775C154.951 26.2695 155.306 26.1655 155.765 26.1655C155.989 26.1655 156.189 26.1868 156.365 26.2295C156.546 26.2721 156.701 26.3255 156.829 26.3895C156.957 26.4535 157.053 26.5201 157.117 26.5895V27.1255C156.989 27.0295 156.839 26.9575 156.669 26.9095C156.503 26.8561 156.327 26.8295 156.141 26.8295C155.997 26.8295 155.882 26.8455 155.797 26.8775C155.711 26.9095 155.647 26.9575 155.605 27.0215C155.562 27.0801 155.541 27.1548 155.541 27.2455ZM155.005 25.8455L154.597 25.0375C154.805 24.9361 155.055 24.8401 155.349 24.7495C155.642 24.6588 155.962 24.6135 156.309 24.6135C156.634 24.6135 156.925 24.6615 157.181 24.7575C157.437 24.8481 157.639 24.9815 157.789 25.1575C157.938 25.3335 158.013 25.5495 158.013 25.8055V28.3975H156.853V26.0775C156.853 25.9868 156.837 25.9095 156.805 25.8455C156.778 25.7761 156.735 25.7175 156.677 25.6695C156.618 25.6215 156.543 25.5868 156.453 25.5655C156.367 25.5441 156.269 25.5335 156.157 25.5335C155.991 25.5335 155.829 25.5521 155.669 25.5895C155.514 25.6268 155.378 25.6721 155.261 25.7255C155.143 25.7735 155.058 25.8135 155.005 25.8455ZM159.117 27.0615C159.304 27.2161 159.472 27.3388 159.621 27.4295C159.776 27.5148 159.912 27.5761 160.029 27.6135C160.147 27.6455 160.248 27.6615 160.333 27.6615C160.456 27.6615 160.547 27.6348 160.605 27.5815C160.664 27.5281 160.693 27.4588 160.693 27.3735C160.693 27.2935 160.669 27.2268 160.621 27.1735C160.573 27.1148 160.491 27.0588 160.373 27.0055C160.261 26.9521 160.107 26.8961 159.909 26.8375C159.733 26.7735 159.565 26.6988 159.405 26.6135C159.251 26.5228 159.123 26.4028 159.021 26.2535C158.92 26.1041 158.869 25.9121 158.869 25.6775C158.869 25.4535 158.928 25.2641 159.045 25.1095C159.168 24.9548 159.331 24.8375 159.533 24.7575C159.741 24.6775 159.979 24.6375 160.245 24.6375C160.459 24.6375 160.656 24.6615 160.837 24.7095C161.024 24.7575 161.197 24.8215 161.357 24.9015C161.523 24.9815 161.677 25.0748 161.821 25.1815L161.389 25.9655C161.235 25.8215 161.059 25.7041 160.861 25.6135C160.664 25.5175 160.483 25.4695 160.317 25.4695C160.205 25.4695 160.12 25.4908 160.061 25.5335C160.008 25.5761 159.981 25.6321 159.981 25.7015C159.981 25.7815 160.013 25.8481 160.077 25.9015C160.147 25.9548 160.243 26.0055 160.365 26.0535C160.493 26.0961 160.648 26.1521 160.829 26.2215C161.021 26.2908 161.197 26.3708 161.357 26.4615C161.523 26.5521 161.653 26.6668 161.749 26.8055C161.851 26.9441 161.901 27.1281 161.901 27.3575C161.901 27.7521 161.779 28.0508 161.533 28.2535C161.293 28.4508 160.955 28.5495 160.517 28.5495C160.251 28.5495 160.003 28.5175 159.773 28.4535C159.549 28.3948 159.341 28.3148 159.149 28.2135C158.957 28.1068 158.779 27.9895 158.613 27.8615L159.117 27.0615ZM163.582 26.5575C163.582 26.7548 163.624 26.9255 163.71 27.0695C163.795 27.2081 163.912 27.3175 164.062 27.3975C164.216 27.4775 164.382 27.5175 164.558 27.5175C164.707 27.5175 164.848 27.4961 164.982 27.4535C165.12 27.4055 165.246 27.3415 165.358 27.2615C165.475 27.1815 165.571 27.0828 165.646 26.9655V28.1415C165.518 28.2428 165.358 28.3255 165.166 28.3895C164.974 28.4481 164.739 28.4775 164.462 28.4775C164.056 28.4775 163.691 28.3975 163.366 28.2375C163.046 28.0775 162.792 27.8535 162.606 27.5655C162.424 27.2775 162.334 26.9415 162.334 26.5575C162.334 26.1681 162.424 25.8321 162.606 25.5495C162.792 25.2615 163.046 25.0375 163.366 24.8775C163.691 24.7175 164.056 24.6375 164.462 24.6375C164.739 24.6375 164.974 24.6695 165.166 24.7335C165.358 24.7921 165.518 24.8668 165.646 24.9575V26.1415C165.571 26.0241 165.472 25.9255 165.35 25.8455C165.232 25.7655 165.104 25.7041 164.966 25.6615C164.827 25.6188 164.691 25.5975 164.558 25.5975C164.382 25.5975 164.216 25.6401 164.062 25.7255C163.912 25.8108 163.795 25.9255 163.71 26.0695C163.624 26.2135 163.582 26.3761 163.582 26.5575ZM167.711 24.7175V28.3975H166.519V24.7175H167.711ZM168.775 25.9655C168.711 25.9015 168.642 25.8508 168.567 25.8135C168.498 25.7761 168.41 25.7575 168.303 25.7575C168.186 25.7575 168.082 25.7895 167.991 25.8535C167.9 25.9175 167.831 26.0108 167.783 26.1335C167.735 26.2561 167.711 26.4055 167.711 26.5815L167.423 26.1575C167.423 25.8641 167.479 25.6028 167.591 25.3735C167.708 25.1441 167.86 24.9628 168.047 24.8295C168.234 24.6961 168.428 24.6295 168.631 24.6295C168.764 24.6295 168.892 24.6561 169.015 24.7095C169.138 24.7628 169.231 24.8375 169.295 24.9335L168.775 25.9655ZM169.736 23.3335C169.736 23.1415 169.805 22.9868 169.944 22.8695C170.083 22.7468 170.248 22.6855 170.44 22.6855C170.637 22.6855 170.803 22.7468 170.936 22.8695C171.075 22.9868 171.144 23.1415 171.144 23.3335C171.144 23.5255 171.075 23.6828 170.936 23.8055C170.803 23.9281 170.637 23.9895 170.44 23.9895C170.248 23.9895 170.083 23.9281 169.944 23.8055C169.805 23.6828 169.736 23.5255 169.736 23.3335ZM169.856 24.7175H171.024V28.3975H169.856V24.7175ZM173.219 30.1575H172.011V24.7175H173.219V30.1575ZM176.227 26.5575C176.227 26.9841 176.142 27.3441 175.971 27.6375C175.806 27.9308 175.59 28.1521 175.323 28.3015C175.062 28.4508 174.779 28.5255 174.475 28.5255C174.155 28.5255 173.878 28.4455 173.643 28.2855C173.414 28.1201 173.238 27.8908 173.115 27.5975C172.992 27.2988 172.931 26.9521 172.931 26.5575C172.931 26.1575 172.992 25.8108 173.115 25.5175C173.238 25.2241 173.414 24.9975 173.643 24.8375C173.878 24.6721 174.155 24.5895 174.475 24.5895C174.779 24.5895 175.062 24.6641 175.323 24.8135C175.59 24.9628 175.806 25.1841 175.971 25.4775C176.142 25.7655 176.227 26.1255 176.227 26.5575ZM174.955 26.5575C174.955 26.3655 174.915 26.2028 174.835 26.0695C174.755 25.9361 174.648 25.8348 174.515 25.7655C174.382 25.6961 174.235 25.6615 174.075 25.6615C173.936 25.6615 173.8 25.6961 173.667 25.7655C173.539 25.8295 173.432 25.9281 173.347 26.0615C173.262 26.1948 173.219 26.3601 173.219 26.5575C173.219 26.7548 173.262 26.9201 173.347 27.0535C173.432 27.1868 173.539 27.2881 173.667 27.3575C173.8 27.4215 173.936 27.4535 174.075 27.4535C174.235 27.4535 174.382 27.4188 174.515 27.3495C174.648 27.2801 174.755 27.1788 174.835 27.0455C174.915 26.9121 174.955 26.7495 174.955 26.5575ZM176.524 24.7175H178.988V25.7175H176.524V24.7175ZM177.172 23.4375H178.332V28.3975H177.172V23.4375Z" fill="#101010"/>
<path d="M152.25 0.647461V18.1475H169.75V0.647461H152.25ZM161.625 14.2412C161.625 15.9447 160.619 16.7752 159.162 16.7752C157.846 16.7752 157.083 16.0939 156.695 15.2717L158.034 14.4611C158.293 14.9193 158.489 15.3068 159.052 15.3068C159.521 15.3068 159.906 15.0955 159.906 14.2732V8.77246H161.625V14.2412ZM165.506 16.7361C163.979 16.7361 162.992 16.0471 162.511 15.0955L163.852 14.3193C164.203 14.8951 164.662 15.2787 165.473 15.2787C166.154 15.2787 166.55 14.9771 166.55 14.5072C166.55 13.9436 166.142 13.7439 165.39 13.4135L164.979 13.2369C163.793 12.7322 163.006 12.0979 163.006 10.7584C163.006 9.5252 163.945 8.62441 165.414 8.62441C166.459 8.62441 167.211 8.94941 167.752 9.90098L166.469 10.7256C166.187 10.2205 165.883 10.0225 165.412 10.0225C164.93 10.0225 164.625 10.3279 164.625 10.7256C164.625 11.2189 164.93 11.4186 165.635 11.724L166.046 11.9002C167.444 12.4994 168.231 13.1111 168.231 14.4846C168.231 15.965 167.068 16.7361 165.506 16.7361Z" fill="#101010"/>
<path d="M76.744 25.5975C76.744 25.9388 76.8213 26.2348 76.976 26.4855C77.1307 26.7308 77.3333 26.9175 77.584 27.0455C77.84 27.1735 78.12 27.2375 78.424 27.2375C78.6907 27.2375 78.9253 27.2028 79.128 27.1335C79.3307 27.0641 79.512 26.9735 79.672 26.8615C79.832 26.7495 79.9733 26.6295 80.096 26.5015V27.9575C79.872 28.1335 79.6267 28.2721 79.36 28.3735C79.0933 28.4748 78.7547 28.5255 78.344 28.5255C77.896 28.5255 77.4827 28.4561 77.104 28.3175C76.7253 28.1788 76.4 27.9788 76.128 27.7175C75.856 27.4561 75.6453 27.1468 75.496 26.7895C75.3467 26.4321 75.272 26.0348 75.272 25.5975C75.272 25.1601 75.3467 24.7628 75.496 24.4055C75.6453 24.0481 75.856 23.7388 76.128 23.4775C76.4 23.2161 76.7253 23.0161 77.104 22.8775C77.4827 22.7388 77.896 22.6695 78.344 22.6695C78.7547 22.6695 79.0933 22.7201 79.36 22.8215C79.6267 22.9228 79.872 23.0615 80.096 23.2375V24.6935C79.9733 24.5655 79.832 24.4455 79.672 24.3335C79.512 24.2161 79.3307 24.1255 79.128 24.0615C78.9253 23.9921 78.6907 23.9575 78.424 23.9575C78.12 23.9575 77.84 24.0215 77.584 24.1495C77.3333 24.2775 77.1307 24.4641 76.976 24.7095C76.8213 24.9548 76.744 25.2508 76.744 25.5975ZM81.8174 26.4295C81.9294 26.6321 82.0547 26.8081 82.1934 26.9575C82.3374 27.1068 82.492 27.2215 82.6574 27.3015C82.828 27.3815 83.0067 27.4215 83.1934 27.4215C83.3907 27.4215 83.5534 27.3735 83.6814 27.2775C83.8094 27.1761 83.8734 27.0401 83.8734 26.8695C83.8734 26.7255 83.836 26.6108 83.7614 26.5255C83.6867 26.4348 83.5667 26.3495 83.4014 26.2695C83.236 26.1895 83.0174 26.0988 82.7454 25.9975C82.612 25.9495 82.4574 25.8828 82.2814 25.7975C82.1107 25.7121 81.948 25.6028 81.7934 25.4695C81.6387 25.3308 81.5107 25.1655 81.4094 24.9735C81.308 24.7761 81.2574 24.5388 81.2574 24.2615C81.2574 23.9308 81.3427 23.6455 81.5134 23.4055C81.6894 23.1655 81.924 22.9841 82.2174 22.8615C82.516 22.7335 82.8467 22.6695 83.2094 22.6695C83.5827 22.6695 83.9054 22.7308 84.1774 22.8535C84.4547 22.9761 84.684 23.1308 84.8654 23.3175C85.0467 23.5041 85.1854 23.6935 85.2814 23.8855L84.2494 24.4615C84.1694 24.3281 84.076 24.2135 83.9694 24.1175C83.868 24.0161 83.7534 23.9388 83.6254 23.8855C83.5027 23.8268 83.3694 23.7975 83.2254 23.7975C83.0334 23.7975 82.8867 23.8401 82.7854 23.9255C82.684 24.0055 82.6334 24.1068 82.6334 24.2295C82.6334 24.3575 82.6814 24.4695 82.7774 24.5655C82.8787 24.6615 83.02 24.7495 83.2014 24.8295C83.388 24.9095 83.612 24.9948 83.8734 25.0855C84.0707 25.1601 84.2547 25.2481 84.4254 25.3495C84.596 25.4455 84.7454 25.5628 84.8734 25.7015C85.0067 25.8401 85.1107 26.0001 85.1854 26.1815C85.26 26.3628 85.2974 26.5708 85.2974 26.8055C85.2974 27.0881 85.2387 27.3415 85.1214 27.5655C85.0094 27.7841 84.8547 27.9681 84.6574 28.1175C84.4654 28.2668 84.244 28.3788 83.9934 28.4535C83.748 28.5335 83.4947 28.5735 83.2334 28.5735C82.8707 28.5735 82.532 28.5095 82.2174 28.3815C81.908 28.2481 81.6387 28.0695 81.4094 27.8455C81.18 27.6215 81.0014 27.3761 80.8734 27.1095L81.8174 26.4295ZM86.8174 26.4295C86.9294 26.6321 87.0547 26.8081 87.1934 26.9575C87.3374 27.1068 87.492 27.2215 87.6574 27.3015C87.828 27.3815 88.0067 27.4215 88.1934 27.4215C88.3907 27.4215 88.5534 27.3735 88.6814 27.2775C88.8094 27.1761 88.8734 27.0401 88.8734 26.8695C88.8734 26.7255 88.836 26.6108 88.7614 26.5255C88.6867 26.4348 88.5667 26.3495 88.4014 26.2695C88.236 26.1895 88.0174 26.0988 87.7454 25.9975C87.612 25.9495 87.4574 25.8828 87.2814 25.7975C87.1107 25.7121 86.948 25.6028 86.7934 25.4695C86.6387 25.3308 86.5107 25.1655 86.4094 24.9735C86.308 24.7761 86.2574 24.5388 86.2574 24.2615C86.2574 23.9308 86.3427 23.6455 86.5134 23.4055C86.6894 23.1655 86.924 22.9841 87.2174 22.8615C87.516 22.7335 87.8467 22.6695 88.2094 22.6695C88.5827 22.6695 88.9054 22.7308 89.1774 22.8535C89.4547 22.9761 89.684 23.1308 89.8654 23.3175C90.0467 23.5041 90.1854 23.6935 90.2814 23.8855L89.2494 24.4615C89.1694 24.3281 89.076 24.2135 88.9694 24.1175C88.868 24.0161 88.7534 23.9388 88.6254 23.8855C88.5027 23.8268 88.3694 23.7975 88.2254 23.7975C88.0334 23.7975 87.8867 23.8401 87.7854 23.9255C87.684 24.0055 87.6334 24.1068 87.6334 24.2295C87.6334 24.3575 87.6814 24.4695 87.7774 24.5655C87.8787 24.6615 88.02 24.7495 88.2014 24.8295C88.388 24.9095 88.612 24.9948 88.8734 25.0855C89.0707 25.1601 89.2547 25.2481 89.4254 25.3495C89.596 25.4455 89.7454 25.5628 89.8734 25.7015C90.0067 25.8401 90.1107 26.0001 90.1854 26.1815C90.26 26.3628 90.2974 26.5708 90.2974 26.8055C90.2974 27.0881 90.2387 27.3415 90.1214 27.5655C90.0094 27.7841 89.8547 27.9681 89.6574 28.1175C89.4654 28.2668 89.244 28.3788 88.9934 28.4535C88.748 28.5335 88.4947 28.5735 88.2334 28.5735C87.8707 28.5735 87.532 28.5095 87.2174 28.3815C86.908 28.2481 86.6387 28.0695 86.4094 27.8455C86.18 27.6215 86.0014 27.3761 85.8734 27.1095L86.8174 26.4295Z" fill="#101010"/>
<path d="M75.9644 1.5968L77.245 15.9599L82.9912 17.5549L88.7537 15.9574L90.0356 1.5968H75.9644ZM87.375 4.8818L86.9419 9.73618L86.6419 13.0856L86.6156 13.3831L83.0025 14.3849L79.3944 13.3831L79.1475 10.6168H80.9156L81.0412 12.0218L83.005 12.5512L83.0106 12.5499L84.97 12.0212L85.1756 9.7368H81.0637L81.0287 9.34118L80.9481 8.44805L80.9062 7.97555H85.3319L85.4931 6.1718H78.7519L78.7169 5.77555L78.6362 4.88243L78.5944 4.40993H87.4181L87.3756 4.88243L87.375 4.8818Z" fill="#101010"/>
<path d="M0.968 26.0535V24.8375H5.208V26.0535H0.968ZM4.352 22.7975H5.704V28.3975H4.352V22.7975ZM0.592 22.7975H1.944V28.3975H0.592V22.7975ZM6.32106 24.0055V22.7975H10.7531V24.0055H9.20906V28.3975H7.85706V24.0055H6.32106ZM12.8054 25.5415L12.4694 28.3975H11.0454L11.9494 22.5175L14.3334 25.9335L16.7254 22.5175L17.6294 28.3975H16.2054L15.8694 25.5415L14.3334 27.8775L12.8054 25.5415ZM18.4904 22.7975H19.8424V27.2375H22.0904V28.3975H18.4904V22.7975Z" fill="#101010"/>
<path d="M3.83594 1.27246L5.125 15.8545L11 17.5225L16.8516 15.8545L18.166 1.27246H3.83594ZM15.457 4.73145L15.3633 5.65332L15.3301 6.03418H8.4668L8.62695 7.87402H15.1719L15.1074 8.34863L14.6934 13.0791L14.6602 13.3955L11.0078 14.4033V14.4092H10.9844L10.9785 14.4111V14.4092H10.9766L7.29297 13.3936L7.07031 10.5693H8.84961L8.97656 11.999L10.9766 12.54H10.9844L12.9766 12.001L13.1992 9.68457H10.9785V9.68262H6.97656L6.53125 4.73145L6.49805 4.25684H15.4883L15.457 4.73145Z" fill="#101010"/>
<path d="M320.992 26.464H322.392L324.144 29H322.56L320.992 26.464ZM319.592 23.4H320.944V29H319.592V23.4ZM320.44 24.544V23.4H321.632C322.112 23.4 322.512 23.4773 322.832 23.632C323.152 23.7867 323.395 24.0027 323.56 24.28C323.725 24.552 323.808 24.8693 323.808 25.232C323.808 25.5893 323.725 25.9067 323.56 26.184C323.395 26.456 323.152 26.6693 322.832 26.824C322.512 26.9787 322.112 27.056 321.632 27.056H320.44V26.008H321.536C321.717 26.008 321.872 25.9813 322 25.928C322.133 25.8693 322.235 25.7867 322.304 25.68C322.373 25.568 322.408 25.4347 322.408 25.28C322.408 25.1253 322.373 24.9947 322.304 24.888C322.235 24.776 322.133 24.6907 322 24.632C321.872 24.5733 321.717 24.544 321.536 24.544H320.44ZM326.524 29.08C326.097 29.08 325.726 29.0027 325.412 28.848C325.102 28.688 324.862 28.464 324.692 28.176C324.521 27.888 324.436 27.5493 324.436 27.16C324.436 26.7653 324.518 26.424 324.684 26.136C324.849 25.848 325.086 25.6267 325.396 25.472C325.71 25.3173 326.081 25.24 326.508 25.24C326.934 25.24 327.294 25.3147 327.588 25.464C327.881 25.608 328.105 25.8187 328.26 26.096C328.414 26.3733 328.492 26.7093 328.492 27.104C328.492 27.1627 328.492 27.2213 328.492 27.28C328.492 27.3333 328.486 27.3787 328.476 27.416H325.116V26.744H327.388L327.1 27.112C327.126 27.0747 327.148 27.0293 327.164 26.976C327.185 26.9173 327.196 26.8693 327.196 26.832C327.196 26.672 327.166 26.5333 327.108 26.416C327.049 26.2987 326.966 26.208 326.86 26.144C326.753 26.08 326.628 26.048 326.484 26.048C326.302 26.048 326.15 26.088 326.028 26.168C325.905 26.248 325.812 26.3707 325.748 26.536C325.689 26.696 325.657 26.8987 325.652 27.144C325.652 27.368 325.684 27.56 325.748 27.72C325.812 27.88 325.908 28.0027 326.036 28.088C326.164 28.168 326.321 28.208 326.508 28.208C326.721 28.208 326.902 28.168 327.052 28.088C327.206 28.008 327.329 27.888 327.42 27.728L328.5 27.992C328.308 28.3547 328.046 28.6267 327.716 28.808C327.39 28.9893 326.993 29.08 326.524 29.08ZM330.174 27.848C330.174 27.944 330.198 28.0267 330.246 28.096C330.294 28.16 330.358 28.2107 330.438 28.248C330.518 28.28 330.606 28.296 330.702 28.296C330.84 28.296 330.968 28.2667 331.086 28.208C331.203 28.1493 331.299 28.0613 331.374 27.944C331.448 27.8267 331.486 27.6827 331.486 27.512L331.614 27.992C331.614 28.2267 331.55 28.4267 331.422 28.592C331.294 28.752 331.128 28.8747 330.926 28.96C330.723 29.04 330.504 29.08 330.27 29.08C330.035 29.08 329.816 29.0373 329.614 28.952C329.416 28.8613 329.256 28.728 329.134 28.552C329.016 28.376 328.958 28.1627 328.958 27.912C328.958 27.56 329.083 27.2827 329.334 27.08C329.584 26.872 329.939 26.768 330.398 26.768C330.622 26.768 330.822 26.7893 330.998 26.832C331.179 26.8747 331.334 26.928 331.462 26.992C331.59 27.056 331.686 27.1227 331.75 27.192V27.728C331.622 27.632 331.472 27.56 331.302 27.512C331.136 27.4587 330.96 27.432 330.774 27.432C330.63 27.432 330.515 27.448 330.43 27.48C330.344 27.512 330.28 27.56 330.238 27.624C330.195 27.6827 330.174 27.7573 330.174 27.848ZM329.638 26.448L329.23 25.64C329.438 25.5387 329.688 25.4427 329.982 25.352C330.275 25.2613 330.595 25.216 330.942 25.216C331.267 25.216 331.558 25.264 331.814 25.36C332.07 25.4507 332.272 25.584 332.422 25.76C332.571 25.936 332.646 26.152 332.646 26.408V29H331.486V26.68C331.486 26.5893 331.47 26.512 331.438 26.448C331.411 26.3787 331.368 26.32 331.31 26.272C331.251 26.224 331.176 26.1893 331.086 26.168C331 26.1467 330.902 26.136 330.79 26.136C330.624 26.136 330.462 26.1547 330.302 26.192C330.147 26.2293 330.011 26.2747 329.894 26.328C329.776 26.376 329.691 26.416 329.638 26.448ZM334.566 27.16C334.566 27.3573 334.609 27.528 334.694 27.672C334.779 27.8107 334.897 27.92 335.046 28C335.201 28.08 335.366 28.12 335.542 28.12C335.691 28.12 335.833 28.0987 335.966 28.056C336.105 28.008 336.23 27.944 336.342 27.864C336.459 27.784 336.555 27.6853 336.63 27.568V28.744C336.502 28.8453 336.342 28.928 336.15 28.992C335.958 29.0507 335.723 29.08 335.446 29.08C335.041 29.08 334.675 29 334.35 28.84C334.03 28.68 333.777 28.456 333.59 28.168C333.409 27.88 333.318 27.544 333.318 27.16C333.318 26.7707 333.409 26.4347 333.59 26.152C333.777 25.864 334.03 25.64 334.35 25.48C334.675 25.32 335.041 25.24 335.446 25.24C335.723 25.24 335.958 25.272 336.15 25.336C336.342 25.3947 336.502 25.4693 336.63 25.56V26.744C336.555 26.6267 336.457 26.528 336.334 26.448C336.217 26.368 336.089 26.3067 335.95 26.264C335.811 26.2213 335.675 26.2 335.542 26.2C335.366 26.2 335.201 26.2427 335.046 26.328C334.897 26.4133 334.779 26.528 334.694 26.672C334.609 26.816 334.566 26.9787 334.566 27.16ZM337.071 25.32H339.535V26.32H337.071V25.32ZM337.719 24.04H338.879V29H337.719V24.04Z" fill="#101010"/>
<path d="M330.361 9.99239C330.361 10.7694 329.731 11.3994 328.954 11.3994C328.177 11.3994 327.547 10.7694 327.547 9.99239C327.547 9.21533 328.177 8.58533 328.954 8.58533C329.731 8.58533 330.361 9.21533 330.361 9.99239Z" fill="#101010"/>
<path d="M328.954 15.1665C330.059 16.2406 331.148 16.8759 332.025 16.8759C332.313 16.8759 332.585 16.8153 332.812 16.6794C333.598 16.2253 333.886 15.0906 333.614 13.4718C333.568 13.1841 333.508 12.8971 333.432 12.5941C333.734 12.5035 334.006 12.4124 334.279 12.3218C335.807 11.7318 336.654 10.9147 336.654 10.0224C336.654 9.11471 335.807 8.29765 334.279 7.72295C334.006 7.61706 333.734 7.52648 333.432 7.45059C333.508 7.14824 333.568 6.86059 333.614 6.57295C333.871 4.92412 333.584 3.77412 332.796 3.32001C332.569 3.18412 332.297 3.12354 332.01 3.12354C331.148 3.12354 330.043 3.75883 328.939 4.83295C327.849 3.75883 326.76 3.12354 325.883 3.12354C325.595 3.12354 325.323 3.18412 325.096 3.32001C324.31 3.77412 324.022 4.90883 324.295 6.52765C324.34 6.8153 324.401 7.10236 324.476 7.4053C324.174 7.49589 323.902 7.58706 323.629 7.67765C322.101 8.26765 321.254 9.08471 321.254 9.97707C321.254 10.8847 322.101 11.7018 323.629 12.2765C323.902 12.3824 324.174 12.4729 324.476 12.5488C324.401 12.8512 324.34 13.1388 324.295 13.4265C324.038 15.0453 324.325 16.1953 325.096 16.6341C325.324 16.7706 325.596 16.8306 325.883 16.8306C326.761 16.8606 327.85 16.2253 328.954 15.1665ZM328.106 13.1241C328.379 13.1394 328.666 13.1394 328.954 13.1394C329.241 13.1394 329.528 13.1394 329.801 13.1241C329.528 13.4871 329.241 13.82 328.954 14.1377C328.666 13.82 328.379 13.4871 328.106 13.1241ZM326.231 11.5659C326.382 11.8229 326.518 12.0653 326.685 12.3071C326.216 12.2465 325.777 12.1706 325.354 12.08C325.49 11.6718 325.641 11.2477 325.822 10.8241C325.944 11.0659 326.079 11.3235 326.231 11.5653V11.5659ZM325.353 7.91942C325.776 7.82883 326.215 7.75295 326.684 7.69236C326.533 7.93471 326.382 8.17648 326.23 8.43354C326.078 8.69059 325.942 8.93295 325.822 9.19001C325.625 8.75118 325.474 8.32824 325.353 7.91942ZM326.185 9.99236C326.382 9.58412 326.594 9.1753 326.836 8.76706C327.063 8.37354 327.32 7.98059 327.577 7.58706C328.031 7.55706 328.485 7.54177 328.954 7.54177C329.438 7.54177 329.892 7.55706 330.331 7.58706C330.604 7.98059 330.845 8.37354 331.072 8.76706C331.315 9.1753 331.526 9.58412 331.723 9.99236C331.526 10.4006 331.315 10.8094 331.072 11.2177C330.845 11.6112 330.588 12.0041 330.331 12.3977C329.877 12.4277 329.424 12.4429 328.954 12.4429C328.47 12.4429 328.016 12.4277 327.577 12.3977C327.305 12.0041 327.063 11.6112 326.836 11.2177C326.594 10.8088 326.382 10.4006 326.185 9.99236ZM332.101 9.1753L331.693 8.41883C331.542 8.16177 331.405 7.91942 331.239 7.67765C331.708 7.73824 332.146 7.81412 332.57 7.90471C332.434 8.32824 332.282 8.75118 332.101 9.1753ZM332.101 10.8094C332.283 11.2329 332.434 11.6565 332.57 12.0653C332.146 12.1559 331.708 12.2318 331.239 12.2924C331.39 12.05 331.541 11.8082 331.693 11.5512C331.829 11.3241 331.965 11.0671 332.101 10.81V10.8094ZM332.449 16.0594C332.328 16.1353 332.176 16.1653 332.01 16.1653C331.269 16.1653 330.346 15.56 329.438 14.6524C329.877 14.1835 330.301 13.6535 330.724 13.0635C331.435 13.0029 332.116 12.8971 332.752 12.7459C332.828 13.0182 332.873 13.2906 332.918 13.5629C333.13 14.8488 332.963 15.7718 332.449 16.0594ZM333.236 8.08589C334.931 8.57001 335.944 9.31118 335.944 9.99236C335.944 10.5824 335.248 11.1724 334.023 11.6418C333.781 11.7324 333.509 11.8235 333.236 11.8988C333.04 11.2782 332.798 10.6429 332.495 9.99236C332.798 9.34177 333.055 8.70648 333.236 8.08589ZM332.025 3.81942C332.192 3.81942 332.328 3.84942 332.464 3.9253C332.964 4.21295 333.145 5.12059 332.933 6.42177C332.888 6.67883 332.827 6.95118 332.766 7.23883C332.131 7.10236 331.45 6.99648 330.739 6.92118C330.331 6.33118 329.892 5.80177 329.453 5.33236C330.361 4.43942 331.284 3.81942 332.025 3.81942ZM329.801 6.86059C329.529 6.8453 329.241 6.8453 328.954 6.8453C328.667 6.8453 328.379 6.8453 328.107 6.86059C328.379 6.49765 328.667 6.16471 328.954 5.84706C329.242 6.16471 329.529 6.51295 329.801 6.86059ZM325.459 3.9253C325.58 3.84942 325.731 3.81942 325.898 3.81942C326.639 3.81942 327.562 4.42471 328.469 5.33236C328.031 5.80118 327.607 6.33059 327.184 6.92118C326.472 6.98177 325.792 7.08765 325.156 7.23883C325.08 6.96648 325.035 6.69412 324.989 6.42177C324.778 5.13589 324.945 4.22824 325.459 3.9253ZM324.672 11.8988C322.978 11.4147 321.964 10.6735 321.964 9.99236C321.964 9.40236 322.66 8.81236 323.885 8.34354C324.128 8.25295 324.399 8.16177 324.672 8.08648C324.868 8.70706 325.111 9.34236 325.413 9.99295C325.111 10.6435 324.853 11.2941 324.672 11.8994L324.672 11.8988ZM324.99 13.5629C325.035 13.3059 325.096 13.0335 325.156 12.7459C325.792 12.8824 326.473 12.9882 327.184 13.0635C327.592 13.6535 328.031 14.1829 328.47 14.6524C327.562 15.5447 326.639 16.1653 325.898 16.1653C325.732 16.1653 325.596 16.1353 325.459 16.0594C324.945 15.7718 324.779 14.8488 324.991 13.5629H324.99Z" fill="#101010"/>
</g>
<defs>
<clipPath id="clip0_117_6">
<rect width="960" height="31" fill="white"/>
</clipPath>
<clipPath id="clip1_117_6">
<rect width="20" height="20" fill="white" transform="translate(927 0.397461)"/>
</clipPath>
<clipPath id="clip2_117_6">
<rect width="20" height="20" fill="white" transform="translate(698 0.397461)"/>
</clipPath>
<clipPath id="clip3_117_6">
<rect width="20" height="20" fill="white" transform="translate(552 0.397461)"/>
</clipPath>
<clipPath id="clip4_117_6">
<rect width="20" height="20" fill="white" transform="translate(239)"/>
</clipPath>
</defs>
</svg>
