<svg width="660" height="31" viewBox="0 0 660 31" fill="none" xmlns="http://www.w3.org/2000/svg">
<g clip-path="url(#clip0_117_113)">
<g clip-path="url(#clip1_117_113)">
<path d="M646.633 12.6665C646.621 12.6315 646.606 12.5982 646.586 12.5672C646.47 12.3479 646.189 12.2824 645.746 12.3738C644.369 12.658 643.835 12.4831 643.642 12.3579C644.76 10.651 645.679 8.58955 646.176 6.66646C646.402 5.79088 646.841 3.73005 646.278 2.72346C646.242 2.65457 646.2 2.58903 646.152 2.52763C645.078 1.15463 643.501 0.418129 641.592 0.397879C640.346 0.384712 639.283 0.686295 638.995 0.797379C638.852 0.770755 638.709 0.74808 638.565 0.729379C638.204 0.664054 637.839 0.628434 637.472 0.622879C636.487 0.607545 635.636 0.843045 634.931 1.32338C634.216 1.0558 630.94 -0.0474545 628.912 1.38905C627.78 2.1913 627.257 3.62521 627.358 5.65105C627.393 6.33271 627.781 8.42938 628.394 10.4374C628.777 11.6928 629.176 12.689 629.588 13.4224C630.049 14.2509 630.526 14.7501 631.017 14.9136C631.39 15.0379 631.961 15.0337 632.565 14.307C633.233 13.5041 633.89 12.7855 634.186 12.468C634.548 12.6642 634.941 12.77 635.344 12.7823C635.344 12.7834 635.344 12.7846 635.344 12.7857C635.274 12.8693 635.206 12.9542 635.138 13.0402C634.856 13.3987 634.797 13.4733 633.888 13.6605C633.63 13.7138 632.943 13.8554 632.933 14.3367C632.931 14.4387 632.96 14.5291 633.009 14.609C633.199 14.9616 633.777 15.1171 633.855 15.1366C634.967 15.4145 635.942 15.2133 636.665 14.571C636.651 16.4302 636.729 18.2522 636.953 18.8105C637.137 19.2713 637.587 20.3976 639.01 20.3975C639.219 20.3975 639.449 20.3732 639.702 20.319C641.187 20.0006 641.831 19.3444 642.081 17.8975C642.206 17.1719 642.415 15.5014 642.53 14.4798C642.544 14.4212 642.56 14.3792 642.577 14.3663C642.578 14.3659 642.635 14.327 642.933 14.3919C642.945 14.3945 642.958 14.3964 642.97 14.3975L643.182 14.4161L643.194 14.417C643.9 14.449 644.787 14.2981 645.304 14.058C645.84 13.809 646.808 13.1977 646.633 12.6665ZM628.976 10.2945C628.356 8.26471 627.994 6.22363 627.966 5.6513C627.875 3.8418 628.313 2.58221 629.267 1.90738C630.798 0.825212 633.301 1.45671 634.357 1.79905C634.355 1.80171 634.352 1.80413 634.349 1.80688C632.663 3.51021 632.703 6.42021 632.707 6.59813C632.707 6.66671 632.712 6.76388 632.72 6.89755C632.749 7.38696 632.803 8.29788 632.659 9.32955C632.525 10.2882 632.821 11.2265 633.47 11.9039C633.537 11.974 633.607 12.0398 633.68 12.1017C633.391 12.4112 632.763 13.0955 632.094 13.8997C631.621 14.4685 631.295 14.3595 631.187 14.3236C630.861 14.2147 630.51 13.8344 630.155 13.2217C629.756 12.5225 629.352 11.5286 628.976 10.2945ZM633.982 14.5338C633.839 14.4981 633.709 14.4395 633.622 14.3861C633.696 14.3533 633.819 14.311 634.024 14.2687C635.094 14.0486 635.259 13.8932 635.62 13.4352C635.702 13.3302 635.796 13.2113 635.926 13.0664C635.954 13.0351 635.975 12.9982 635.987 12.9582C636.129 12.8321 636.214 12.8666 636.351 12.9235C636.481 12.9773 636.608 13.1401 636.659 13.3195C636.683 13.4041 636.711 13.5649 636.621 13.6898C635.868 14.7446 634.77 14.731 633.982 14.5338ZM635.727 11.2105L635.683 11.328C635.572 11.6251 635.469 11.9014 635.405 12.1638C634.849 12.162 634.308 11.9245 633.896 11.4951C633.373 10.9492 633.136 10.1898 633.244 9.41146C633.397 8.32155 633.34 7.37246 633.31 6.86263C633.306 6.79121 633.302 6.72871 633.3 6.67938C633.546 6.46096 634.688 5.84921 635.502 6.03571C635.874 6.12088 636.1 6.3738 636.195 6.80905C636.682 9.06221 636.259 10.0013 635.919 10.756C635.849 10.9115 635.783 11.0584 635.727 11.2105ZM641.863 15.0209C641.849 15.1682 641.833 15.3342 641.812 15.5175L641.69 15.8827C641.68 15.9117 641.675 15.9419 641.675 15.9725C641.67 16.368 641.63 16.5132 641.579 16.6969C641.526 16.8879 641.466 17.1045 641.43 17.5781C641.338 18.7567 640.698 19.4337 639.415 19.7085C638.152 19.9795 637.928 19.2945 637.731 18.6905C637.711 18.6271 637.689 18.5642 637.667 18.5016C637.487 18.0135 637.508 17.325 637.536 16.3724C637.549 15.9047 637.515 14.788 637.26 14.1672C637.264 13.9229 637.269 13.6748 637.276 13.424C637.277 13.3923 637.273 13.3606 637.264 13.3302C637.256 13.2716 637.243 13.2137 637.227 13.1569C637.125 12.8 636.876 12.5014 636.577 12.3776C636.459 12.3285 636.241 12.2383 635.979 12.3052C636.035 12.0752 636.132 11.8156 636.237 11.5345L636.281 11.4161C636.33 11.2828 636.392 11.1447 636.458 10.9985C636.814 10.2088 637.3 9.12738 636.772 6.68413C636.574 5.76905 635.913 5.32221 634.912 5.42596C634.311 5.48813 633.762 5.73046 633.488 5.86938C633.433 5.89723 633.378 5.92615 633.324 5.95613C633.401 5.03413 633.69 3.31105 634.771 2.22088C634.851 2.13997 634.936 2.06321 635.024 1.99088C635.067 1.98235 635.109 1.964 635.144 1.93721C635.771 1.46171 636.556 1.22838 637.479 1.24346C637.82 1.24905 638.147 1.27171 638.458 1.31096C640.074 1.6063 641.161 2.51663 641.821 3.29655C642.5 4.09846 642.867 4.90613 643.014 5.3418C641.911 5.22963 641.161 5.44746 640.781 5.99096C639.953 7.17338 641.233 9.46838 641.848 10.5713C641.961 10.7735 642.058 10.9481 642.089 11.0224C642.289 11.5078 642.548 11.8318 642.738 12.0684C642.796 12.1409 642.852 12.2112 642.895 12.2725C642.561 12.3688 641.961 12.5913 642.016 13.7034C642.005 13.8336 641.98 14.0758 641.946 14.3824C641.908 14.5555 641.888 14.766 641.863 15.0209ZM642.605 13.67C642.572 12.977 642.83 12.9045 643.103 12.8279C643.14 12.8175 643.178 12.8062 643.215 12.794C643.25 12.8252 643.288 12.8539 643.327 12.8799C643.802 13.1936 644.645 13.231 645.833 12.9919C645.665 13.1393 645.4 13.3247 645.038 13.4928C644.697 13.6514 644.125 13.7703 643.582 13.7958C642.982 13.8238 642.677 13.7285 642.605 13.67ZM643.08 5.94396C643.075 6.2363 643.035 6.50163 642.992 6.77871C642.946 7.07671 642.899 7.38488 642.887 7.75888C642.875 8.12288 642.92 8.5013 642.964 8.8673C643.053 9.60646 643.144 10.3675 642.791 11.1185C642.733 11.0146 642.681 10.9073 642.635 10.7971C642.591 10.6908 642.496 10.52 642.364 10.2836C641.851 9.36355 640.65 7.20896 641.265 6.3298C641.581 5.87755 642.382 5.85805 643.08 5.94396ZM643.27 11.7887C643.247 11.7587 643.223 11.7289 643.199 11.6992L643.17 11.6622C643.775 10.6626 643.656 9.67371 643.551 8.7968C643.508 8.43696 643.467 8.09713 643.477 7.77796C643.488 7.43955 643.533 7.14938 643.576 6.86871C643.629 6.52288 643.683 6.16513 643.668 5.7433C643.68 5.69905 643.684 5.6468 643.678 5.5848C643.64 5.18021 643.178 3.9698 642.237 2.87396C641.731 2.28455 640.996 1.6263 639.996 1.17438C640.434 1.08555 641.024 1.0048 641.683 1.01946C643.393 1.05746 644.746 1.69738 645.704 2.92146C645.724 2.94804 645.742 2.97593 645.759 3.00496C646.362 4.13463 645.529 8.23421 643.27 11.7887ZM635.923 6.69188C635.902 6.84138 635.666 7.04396 635.405 7.04396C635.383 7.04398 635.36 7.04242 635.338 7.0393C635.182 7.01763 635.024 6.9193 634.916 6.7763C634.878 6.72588 634.816 6.62796 634.829 6.5393C634.833 6.50588 634.85 6.45721 634.906 6.4153C635.004 6.3408 635.199 6.31313 635.414 6.34305C635.677 6.3798 635.949 6.50455 635.923 6.69188ZM642.532 6.34905C642.541 6.41505 642.491 6.51655 642.404 6.60755C642.347 6.6673 642.228 6.77096 642.064 6.79355C642.044 6.79643 642.023 6.79787 642.002 6.79788C641.757 6.79788 641.551 6.60255 641.535 6.48813C641.515 6.34105 641.755 6.2293 642.002 6.1948C642.25 6.1603 642.511 6.20213 642.532 6.34905Z" fill="black"/>
</g>
<path d="M615.592 22.7975H616.944V28.3975H615.592V22.7975ZM616.44 23.9095V22.7975H617.536C618.011 22.7975 618.408 22.8721 618.728 23.0215C619.053 23.1655 619.299 23.3735 619.464 23.6455C619.629 23.9175 619.712 24.2455 619.712 24.6295C619.712 25.0028 619.629 25.3281 619.464 25.6055C619.299 25.8775 619.053 26.0881 618.728 26.2375C618.408 26.3815 618.011 26.4535 617.536 26.4535H616.44V25.3415H617.536C617.808 25.3415 618.021 25.2801 618.176 25.1575C618.331 25.0348 618.408 24.8588 618.408 24.6295C618.408 24.3948 618.331 24.2161 618.176 24.0935C618.021 23.9708 617.808 23.9095 617.536 23.9095H616.44ZM619.998 26.5575C619.998 26.1681 620.089 25.8295 620.27 25.5415C620.452 25.2535 620.702 25.0295 621.022 24.8695C621.342 24.7095 621.702 24.6295 622.102 24.6295C622.502 24.6295 622.86 24.7095 623.174 24.8695C623.494 25.0295 623.745 25.2535 623.926 25.5415C624.113 25.8295 624.206 26.1681 624.206 26.5575C624.206 26.9415 624.113 27.2775 623.926 27.5655C623.745 27.8535 623.494 28.0775 623.174 28.2375C622.86 28.3975 622.502 28.4775 622.102 28.4775C621.702 28.4775 621.342 28.3975 621.022 28.2375C620.702 28.0775 620.452 27.8535 620.27 27.5655C620.089 27.2775 619.998 26.9415 619.998 26.5575ZM621.238 26.5575C621.238 26.7495 621.278 26.9148 621.358 27.0535C621.438 27.1868 621.542 27.2908 621.67 27.3655C621.798 27.4401 621.942 27.4775 622.102 27.4775C622.257 27.4775 622.398 27.4401 622.526 27.3655C622.66 27.2908 622.764 27.1868 622.838 27.0535C622.918 26.9148 622.958 26.7495 622.958 26.5575C622.958 26.3655 622.918 26.2001 622.838 26.0615C622.764 25.9228 622.66 25.8161 622.526 25.7415C622.398 25.6668 622.257 25.6295 622.102 25.6295C621.942 25.6295 621.798 25.6668 621.67 25.7415C621.542 25.8161 621.438 25.9228 621.358 26.0615C621.278 26.2001 621.238 26.3655 621.238 26.5575ZM625.133 27.0615C625.32 27.2161 625.488 27.3388 625.637 27.4295C625.792 27.5148 625.928 27.5761 626.045 27.6135C626.162 27.6455 626.264 27.6615 626.349 27.6615C626.472 27.6615 626.562 27.6348 626.621 27.5815C626.68 27.5281 626.709 27.4588 626.709 27.3735C626.709 27.2935 626.685 27.2268 626.637 27.1735C626.589 27.1148 626.506 27.0588 626.389 27.0055C626.277 26.9521 626.122 26.8961 625.925 26.8375C625.749 26.7735 625.581 26.6988 625.421 26.6135C625.266 26.5228 625.138 26.4028 625.037 26.2535C624.936 26.1041 624.885 25.9121 624.885 25.6775C624.885 25.4535 624.944 25.2641 625.061 25.1095C625.184 24.9548 625.346 24.8375 625.549 24.7575C625.757 24.6775 625.994 24.6375 626.261 24.6375C626.474 24.6375 626.672 24.6615 626.853 24.7095C627.04 24.7575 627.213 24.8215 627.373 24.9015C627.538 24.9815 627.693 25.0748 627.837 25.1815L627.405 25.9655C627.25 25.8215 627.074 25.7041 626.877 25.6135C626.68 25.5175 626.498 25.4695 626.333 25.4695C626.221 25.4695 626.136 25.4908 626.077 25.5335C626.024 25.5761 625.997 25.6321 625.997 25.7015C625.997 25.7815 626.029 25.8481 626.093 25.9015C626.162 25.9548 626.258 26.0055 626.381 26.0535C626.509 26.0961 626.664 26.1521 626.845 26.2215C627.037 26.2908 627.213 26.3708 627.373 26.4615C627.538 26.5521 627.669 26.6668 627.765 26.8055C627.866 26.9441 627.917 27.1281 627.917 27.3575C627.917 27.7521 627.794 28.0508 627.549 28.2535C627.309 28.4508 626.97 28.5495 626.533 28.5495C626.266 28.5495 626.018 28.5175 625.789 28.4535C625.565 28.3948 625.357 28.3148 625.165 28.2135C624.973 28.1068 624.794 27.9895 624.629 27.8615L625.133 27.0615ZM628.149 24.7175H630.613V25.7175H628.149V24.7175ZM628.797 23.4375H629.957V28.3975H628.797V23.4375ZM630.992 28.6615H632.16C632.176 28.8108 632.219 28.9361 632.288 29.0375C632.363 29.1388 632.462 29.2135 632.584 29.2615C632.707 29.3148 632.846 29.3415 633 29.3415C633.171 29.3415 633.326 29.3015 633.464 29.2215C633.603 29.1468 633.712 29.0321 633.792 28.8775C633.878 28.7281 633.92 28.5415 633.92 28.3175V24.7175H635.08V28.3175C635.08 28.7868 634.987 29.1681 634.8 29.4615C634.619 29.7548 634.376 29.9681 634.072 30.1015C633.768 30.2401 633.427 30.3095 633.048 30.3095C632.595 30.3095 632.219 30.2401 631.92 30.1015C631.627 29.9628 631.406 29.7681 631.256 29.5175C631.107 29.2721 631.019 28.9868 630.992 28.6615ZM630.912 26.5095C630.912 26.0935 630.995 25.7468 631.16 25.4695C631.331 25.1921 631.55 24.9841 631.816 24.8455C632.083 24.7068 632.366 24.6375 632.664 24.6375C632.974 24.6375 633.246 24.7121 633.48 24.8615C633.72 25.0055 633.91 25.2161 634.048 25.4935C634.187 25.7708 634.256 26.1095 634.256 26.5095C634.256 26.9041 634.187 27.2428 634.048 27.5255C633.91 27.8028 633.72 28.0161 633.48 28.1655C633.246 28.3095 632.974 28.3815 632.664 28.3815C632.366 28.3815 632.083 28.3121 631.816 28.1735C631.55 28.0295 631.331 27.8188 631.16 27.5415C630.995 27.2641 630.912 26.9201 630.912 26.5095ZM632.184 26.5095C632.184 26.6961 632.224 26.8588 632.304 26.9975C632.384 27.1308 632.491 27.2321 632.624 27.3015C632.758 27.3708 632.904 27.4055 633.064 27.4055C633.203 27.4055 633.336 27.3735 633.464 27.3095C633.598 27.2401 633.707 27.1388 633.792 27.0055C633.878 26.8721 633.92 26.7068 633.92 26.5095C633.92 26.3601 633.894 26.2295 633.84 26.1175C633.792 26.0055 633.726 25.9121 633.64 25.8375C633.56 25.7628 633.47 25.7068 633.368 25.6695C633.267 25.6321 633.166 25.6135 633.064 25.6135C632.904 25.6135 632.758 25.6481 632.624 25.7175C632.491 25.7868 632.384 25.8881 632.304 26.0215C632.224 26.1548 632.184 26.3175 632.184 26.5095ZM637.203 24.7175V28.3975H636.011V24.7175H637.203ZM638.267 25.9655C638.203 25.9015 638.134 25.8508 638.059 25.8135C637.99 25.7761 637.902 25.7575 637.795 25.7575C637.678 25.7575 637.574 25.7895 637.483 25.8535C637.392 25.9175 637.323 26.0108 637.275 26.1335C637.227 26.2561 637.203 26.4055 637.203 26.5815L636.915 26.1575C636.915 25.8641 636.971 25.6028 637.083 25.3735C637.2 25.1441 637.352 24.9628 637.539 24.8295C637.726 24.6961 637.92 24.6295 638.123 24.6295C638.256 24.6295 638.384 24.6561 638.507 24.7095C638.63 24.7628 638.723 24.8375 638.787 24.9335L638.267 25.9655ZM641.055 28.4775C640.628 28.4775 640.258 28.4001 639.943 28.2455C639.634 28.0855 639.394 27.8615 639.223 27.5735C639.052 27.2855 638.967 26.9468 638.967 26.5575C638.967 26.1628 639.05 25.8215 639.215 25.5335C639.38 25.2455 639.618 25.0241 639.927 24.8695C640.242 24.7148 640.612 24.6375 641.039 24.6375C641.466 24.6375 641.826 24.7121 642.119 24.8615C642.412 25.0055 642.636 25.2161 642.791 25.4935C642.946 25.7708 643.023 26.1068 643.023 26.5015C643.023 26.5601 643.023 26.6188 643.023 26.6775C643.023 26.7308 643.018 26.7761 643.007 26.8135H639.647V26.1415H641.919L641.631 26.5095C641.658 26.4721 641.679 26.4268 641.695 26.3735C641.716 26.3148 641.727 26.2668 641.727 26.2295C641.727 26.0695 641.698 25.9308 641.639 25.8135C641.58 25.6961 641.498 25.6055 641.391 25.5415C641.284 25.4775 641.159 25.4455 641.015 25.4455C640.834 25.4455 640.682 25.4855 640.559 25.5655C640.436 25.6455 640.343 25.7681 640.279 25.9335C640.22 26.0935 640.188 26.2961 640.183 26.5415C640.183 26.7655 640.215 26.9575 640.279 27.1175C640.343 27.2775 640.439 27.4001 640.567 27.4855C640.695 27.5655 640.852 27.6055 641.039 27.6055C641.252 27.6055 641.434 27.5655 641.583 27.4855C641.738 27.4055 641.86 27.2855 641.951 27.1255L643.031 27.3895C642.839 27.7521 642.578 28.0241 642.247 28.2055C641.922 28.3868 641.524 28.4775 641.055 28.4775ZM644.505 26.4295C644.617 26.6321 644.742 26.8081 644.881 26.9575C645.025 27.1068 645.18 27.2215 645.345 27.3015C645.516 27.3815 645.694 27.4215 645.881 27.4215C646.078 27.4215 646.241 27.3735 646.369 27.2775C646.497 27.1761 646.561 27.0401 646.561 26.8695C646.561 26.7255 646.524 26.6108 646.449 26.5255C646.374 26.4348 646.254 26.3495 646.089 26.2695C645.924 26.1895 645.705 26.0988 645.433 25.9975C645.3 25.9495 645.145 25.8828 644.969 25.7975C644.798 25.7121 644.636 25.6028 644.481 25.4695C644.326 25.3308 644.198 25.1655 644.097 24.9735C643.996 24.7761 643.945 24.5388 643.945 24.2615C643.945 23.9308 644.03 23.6455 644.201 23.4055C644.377 23.1655 644.612 22.9841 644.905 22.8615C645.204 22.7335 645.534 22.6695 645.897 22.6695C646.27 22.6695 646.593 22.7308 646.865 22.8535C647.142 22.9761 647.372 23.1308 647.553 23.3175C647.734 23.5041 647.873 23.6935 647.969 23.8855L646.937 24.4615C646.857 24.3281 646.764 24.2135 646.657 24.1175C646.556 24.0161 646.441 23.9388 646.313 23.8855C646.19 23.8268 646.057 23.7975 645.913 23.7975C645.721 23.7975 645.574 23.8401 645.473 23.9255C645.372 24.0055 645.321 24.1068 645.321 24.2295C645.321 24.3575 645.369 24.4695 645.465 24.5655C645.566 24.6615 645.708 24.7495 645.889 24.8295C646.076 24.9095 646.3 24.9948 646.561 25.0855C646.758 25.1601 646.942 25.2481 647.113 25.3495C647.284 25.4455 647.433 25.5628 647.561 25.7015C647.694 25.8401 647.798 26.0001 647.873 26.1815C647.948 26.3628 647.985 26.5708 647.985 26.8055C647.985 27.0881 647.926 27.3415 647.809 27.5655C647.697 27.7841 647.542 27.9681 647.345 28.1175C647.153 28.2668 646.932 28.3788 646.681 28.4535C646.436 28.5335 646.182 28.5735 645.921 28.5735C645.558 28.5735 645.22 28.5095 644.905 28.3815C644.596 28.2481 644.326 28.0695 644.097 27.8455C643.868 27.6215 643.689 27.3761 643.561 27.1095L644.505 26.4295ZM650.001 25.5975C650.001 25.9601 650.076 26.2748 650.225 26.5415C650.38 26.8081 650.585 27.0161 650.841 27.1655C651.102 27.3095 651.39 27.3815 651.705 27.3815C652.025 27.3815 652.305 27.3148 652.545 27.1815C652.785 27.0481 652.972 26.8588 653.105 26.6135C653.244 26.3628 653.313 26.0748 653.313 25.7495C653.313 25.4135 653.244 25.1068 653.105 24.8295C652.972 24.5521 652.777 24.3308 652.521 24.1655C652.27 23.9948 651.966 23.9095 651.609 23.9095C651.289 23.9095 651.009 23.9815 650.769 24.1255C650.529 24.2695 650.34 24.4695 650.201 24.7255C650.068 24.9761 650.001 25.2668 650.001 25.5975ZM648.569 25.5975C648.569 25.1655 648.646 24.7708 648.801 24.4135C648.956 24.0561 649.172 23.7468 649.449 23.4855C649.726 23.2241 650.049 23.0241 650.417 22.8855C650.785 22.7415 651.182 22.6695 651.609 22.6695C652.041 22.6695 652.438 22.7415 652.801 22.8855C653.164 23.0241 653.478 23.2241 653.745 23.4855C654.017 23.7468 654.225 24.0561 654.369 24.4135C654.518 24.7708 654.593 25.1655 654.593 25.5975C654.593 26.0295 654.521 26.4268 654.377 26.7895C654.233 27.1521 654.028 27.4668 653.761 27.7335C653.494 28.0001 653.177 28.2081 652.809 28.3575C652.446 28.5015 652.046 28.5735 651.609 28.5735C651.166 28.5735 650.761 28.5015 650.393 28.3575C650.025 28.2081 649.702 28.0001 649.425 27.7335C649.153 27.4668 648.942 27.1521 648.793 26.7895C648.644 26.4268 648.569 26.0295 648.569 25.5975ZM651.153 25.9975H652.553L655.249 28.4935H653.801L651.153 25.9975ZM655.795 22.7975H657.147V27.2375H659.395V28.3975H655.795V22.7975Z" fill="black"/>
<path d="M573.456 22.7975H574.76V28.6775L570.888 25.2455V28.3975H569.592V22.5175L573.456 25.9495V22.7975ZM575.608 26.5575C575.608 26.1681 575.698 25.8295 575.88 25.5415C576.061 25.2535 576.312 25.0295 576.632 24.8695C576.952 24.7095 577.312 24.6295 577.712 24.6295C578.112 24.6295 578.469 24.7095 578.784 24.8695C579.104 25.0295 579.354 25.2535 579.536 25.5415C579.722 25.8295 579.816 26.1681 579.816 26.5575C579.816 26.9415 579.722 27.2775 579.536 27.5655C579.354 27.8535 579.104 28.0775 578.784 28.2375C578.469 28.3975 578.112 28.4775 577.712 28.4775C577.312 28.4775 576.952 28.3975 576.632 28.2375C576.312 28.0775 576.061 27.8535 575.88 27.5655C575.698 27.2775 575.608 26.9415 575.608 26.5575ZM576.848 26.5575C576.848 26.7495 576.888 26.9148 576.968 27.0535C577.048 27.1868 577.152 27.2908 577.28 27.3655C577.408 27.4401 577.552 27.4775 577.712 27.4775C577.866 27.4775 578.008 27.4401 578.136 27.3655C578.269 27.2908 578.373 27.1868 578.448 27.0535C578.528 26.9148 578.568 26.7495 578.568 26.5575C578.568 26.3655 578.528 26.2001 578.448 26.0615C578.373 25.9228 578.269 25.8161 578.136 25.7415C578.008 25.6668 577.866 25.6295 577.712 25.6295C577.552 25.6295 577.408 25.6668 577.28 25.7415C577.152 25.8161 577.048 25.9228 576.968 26.0615C576.888 26.2001 576.848 26.3655 576.848 26.5575ZM583.334 22.1575H584.542V28.3975H583.334V22.1575ZM580.326 26.5575C580.326 26.1415 580.409 25.7921 580.574 25.5095C580.745 25.2268 580.964 25.0108 581.23 24.8615C581.497 24.7121 581.78 24.6375 582.078 24.6375C582.388 24.6375 582.66 24.7148 582.894 24.8695C583.134 25.0241 583.324 25.2455 583.462 25.5335C583.601 25.8161 583.67 26.1575 583.67 26.5575C583.67 26.9521 583.601 27.2935 583.462 27.5815C583.324 27.8695 583.134 28.0908 582.894 28.2455C582.66 28.4001 582.388 28.4775 582.078 28.4775C581.78 28.4775 581.497 28.4028 581.23 28.2535C580.964 28.1041 580.745 27.8881 580.574 27.6055C580.409 27.3175 580.326 26.9681 580.326 26.5575ZM581.598 26.5575C581.598 26.7495 581.638 26.9175 581.718 27.0615C581.798 27.2001 581.905 27.3095 582.038 27.3895C582.172 27.4641 582.318 27.5015 582.478 27.5015C582.617 27.5015 582.75 27.4641 582.878 27.3895C583.012 27.3148 583.121 27.2081 583.206 27.0695C583.292 26.9255 583.334 26.7548 583.334 26.5575C583.334 26.3601 583.292 26.1921 583.206 26.0535C583.121 25.9095 583.012 25.8001 582.878 25.7255C582.75 25.6508 582.617 25.6135 582.478 25.6135C582.318 25.6135 582.172 25.6535 582.038 25.7335C581.905 25.8081 581.798 25.9175 581.718 26.0615C581.638 26.2001 581.598 26.3655 581.598 26.5575ZM587.352 28.4775C586.925 28.4775 586.554 28.4001 586.24 28.2455C585.93 28.0855 585.69 27.8615 585.52 27.5735C585.349 27.2855 585.264 26.9468 585.264 26.5575C585.264 26.1628 585.346 25.8215 585.512 25.5335C585.677 25.2455 585.914 25.0241 586.224 24.8695C586.538 24.7148 586.909 24.6375 587.336 24.6375C587.762 24.6375 588.122 24.7121 588.416 24.8615C588.709 25.0055 588.933 25.2161 589.088 25.4935C589.242 25.7708 589.32 26.1068 589.32 26.5015C589.32 26.5601 589.32 26.6188 589.32 26.6775C589.32 26.7308 589.314 26.7761 589.304 26.8135H585.944V26.1415H588.216L587.928 26.5095C587.954 26.4721 587.976 26.4268 587.992 26.3735C588.013 26.3148 588.024 26.2668 588.024 26.2295C588.024 26.0695 587.994 25.9308 587.936 25.8135C587.877 25.6961 587.794 25.6055 587.688 25.5415C587.581 25.4775 587.456 25.4455 587.312 25.4455C587.13 25.4455 586.978 25.4855 586.856 25.5655C586.733 25.6455 586.64 25.7681 586.576 25.9335C586.517 26.0935 586.485 26.2961 586.48 26.5415C586.48 26.7655 586.512 26.9575 586.576 27.1175C586.64 27.2775 586.736 27.4001 586.864 27.4855C586.992 27.5655 587.149 27.6055 587.336 27.6055C587.549 27.6055 587.73 27.5655 587.88 27.4855C588.034 27.4055 588.157 27.2855 588.248 27.1255L589.328 27.3895C589.136 27.7521 588.874 28.0241 588.544 28.2055C588.218 28.3868 587.821 28.4775 587.352 28.4775Z" fill="black"/>
<path d="M579.997 19.1475C579.768 19.1472 579.543 19.0851 579.347 18.9678L577.277 17.7006C576.968 17.5224 577.12 17.4583 577.221 17.4217C577.634 17.274 577.757 17.2007 578.195 16.9418C578.243 16.9157 578.303 16.9252 578.35 16.9544L579.901 17.8725C579.959 17.9057 580.04 17.9057 580.094 17.8725L586.156 14.2691C586.213 14.2349 586.25 14.1658 586.25 14.0957V6.79859C586.25 6.72633 586.213 6.65828 586.154 6.62172L580.095 2.92359C580.037 2.88867 579.961 2.88867 579.904 2.92359L573.848 6.62301C573.788 6.65828 573.75 6.7284 573.75 6.79859V14.0957C573.75 14.1665 573.788 14.2329 573.847 14.2671L575.407 15.2035C576.329 15.6802 576.875 15.1969 576.875 14.6328V7.45703C576.875 7.35344 576.955 7.27238 577.055 7.27238H577.946C578.044 7.27238 578.125 7.35332 578.125 7.45703V14.6327C578.125 15.9047 577.369 16.6346 576.203 16.6346C575.846 16.6346 575.563 16.6346 574.775 16.2331L573.151 15.2651C572.749 15.0248 572.5 14.5758 572.5 14.095V6.69398C572.5 6.21289 572.749 5.76492 573.151 5.52535L579.35 1.81973C579.741 1.59004 580.263 1.59004 580.652 1.81973L586.849 5.52535C587.251 5.76555 587.5 6.21383 587.5 6.69398V14.095C587.5 14.5758 587.251 15.0227 586.849 15.265L580.652 18.9671C580.454 19.0849 580.229 19.1469 579.999 19.1468L579.997 19.1475Z" fill="black"/>
<path d="M581.912 14.1473C579.388 14.1473 578.63 12.9126 578.63 11.8321C578.63 11.7294 578.71 11.6473 578.809 11.6473H579.61C579.699 11.6473 579.775 11.7137 579.788 11.8042C579.909 12.648 580.443 13.021 581.91 13.021C583.215 13.021 583.75 12.6169 583.75 11.9005C583.75 11.4868 583.615 11.1809 581.586 10.9749C579.889 10.8014 578.84 10.4134 578.84 9.01023C578.84 7.71589 579.894 6.95984 581.662 6.95984C583.463 6.95984 584.648 7.50671 584.754 8.94535C584.758 8.99757 584.74 9.04804 584.706 9.08769C584.672 9.12539 584.625 9.14734 584.575 9.14734H583.77C583.687 9.14734 583.613 9.08632 583.596 9.0023C583.424 8.34007 582.933 8.08816 581.66 8.08816C580.235 8.08816 580.069 8.58632 580.069 8.97125C580.069 9.43855 580.265 9.57441 582.189 9.83734C584.094 10.0976 584.999 10.4669 584.999 11.8511C584.999 13.2488 583.874 14.1473 581.91 14.1473L581.912 14.1473Z" fill="black"/>
<path d="M530.992 1.8877C526.162 1.88574 522.25 5.7959 522.25 10.6221C522.25 14.4385 524.697 17.6826 528.105 18.874C528.564 18.9893 528.494 18.6631 528.494 18.4404V16.9268C525.844 17.2373 525.736 15.4834 525.559 15.1904C525.199 14.5772 524.35 14.4209 524.604 14.1279C525.207 13.8174 525.822 14.2061 526.535 15.2588C527.051 16.0225 528.057 15.8936 528.566 15.7666C528.678 15.3076 528.916 14.8975 529.244 14.5791C526.498 14.0869 525.354 12.4111 525.354 10.4189C525.354 9.45215 525.672 8.56348 526.297 7.84668C525.898 6.66504 526.334 5.65332 526.393 5.50293C527.527 5.40137 528.707 6.31543 528.799 6.3877C529.443 6.21387 530.18 6.12207 531.004 6.12207C531.832 6.12207 532.57 6.21777 533.221 6.39356C533.441 6.22559 534.535 5.44043 535.59 5.53613C535.646 5.68652 536.072 6.67481 535.697 7.84082C536.33 8.55957 536.652 9.45606 536.652 10.4248C536.652 12.4209 535.5 14.0986 532.746 14.583C532.982 14.815 533.169 15.0916 533.297 15.3968C533.425 15.702 533.49 16.0295 533.49 16.3604V18.5576C533.506 18.7334 533.49 18.9072 533.783 18.9072C537.242 17.7412 539.732 14.4736 539.732 10.624C539.732 5.7959 535.818 1.8877 530.992 1.8877Z" fill="black"/>
<path d="M521.368 25.3735V24.3335H524.2C524.227 24.7815 524.181 25.2001 524.064 25.5895C523.947 25.9788 523.765 26.3228 523.52 26.6215C523.275 26.9201 522.968 27.1548 522.6 27.3255C522.232 27.4908 521.811 27.5735 521.336 27.5735C520.888 27.5735 520.477 27.5041 520.104 27.3655C519.731 27.2215 519.408 27.0188 519.136 26.7575C518.864 26.4908 518.651 26.1761 518.496 25.8135C518.347 25.4455 518.272 25.0401 518.272 24.5975C518.272 24.1548 518.349 23.7548 518.504 23.3975C518.659 23.0348 518.877 22.7255 519.16 22.4695C519.443 22.2135 519.773 22.0161 520.152 21.8775C520.531 21.7388 520.941 21.6695 521.384 21.6695C521.779 21.6695 522.133 21.7255 522.448 21.8375C522.763 21.9495 523.04 22.1068 523.28 22.3095C523.525 22.5068 523.736 22.7361 523.912 22.9975L522.712 23.6215C522.584 23.3975 522.411 23.2135 522.192 23.0695C521.979 22.9201 521.709 22.8455 521.384 22.8455C521.075 22.8455 520.789 22.9148 520.528 23.0535C520.272 23.1921 520.067 23.3921 519.912 23.6535C519.763 23.9095 519.688 24.2241 519.688 24.5975C519.688 24.9655 519.76 25.2855 519.904 25.5575C520.053 25.8241 520.253 26.0321 520.504 26.1815C520.76 26.3255 521.053 26.3975 521.384 26.3975C521.587 26.3975 521.771 26.3735 521.936 26.3255C522.101 26.2721 522.243 26.2001 522.36 26.1095C522.477 26.0135 522.576 25.9041 522.656 25.7815C522.741 25.6535 522.808 25.5175 522.856 25.3735H521.368ZM524.916 22.3335C524.916 22.1415 524.985 21.9868 525.124 21.8695C525.262 21.7468 525.428 21.6855 525.62 21.6855C525.817 21.6855 525.982 21.7468 526.116 21.8695C526.254 21.9868 526.324 22.1415 526.324 22.3335C526.324 22.5255 526.254 22.6828 526.116 22.8055C525.982 22.9281 525.817 22.9895 525.62 22.9895C525.428 22.9895 525.262 22.9281 525.124 22.8055C524.985 22.6828 524.916 22.5255 524.916 22.3335ZM525.036 23.7175H526.204V27.3975H525.036V23.7175ZM526.767 23.7175H529.231V24.7175H526.767V23.7175ZM527.415 22.4375H528.575V27.3975H527.415V22.4375ZM530.961 21.1575V27.3975H529.745V21.1575H530.961ZM532.137 25.1575C532.137 24.9388 532.097 24.7708 532.017 24.6535C531.937 24.5361 531.799 24.4775 531.601 24.4775C531.473 24.4775 531.361 24.5068 531.265 24.5655C531.169 24.6188 531.095 24.6961 531.041 24.7975C530.988 24.8935 530.961 25.0135 530.961 25.1575H530.753C530.753 24.8641 530.801 24.6001 530.897 24.3655C530.993 24.1255 531.137 23.9361 531.329 23.7975C531.527 23.6535 531.777 23.5815 532.081 23.5815C532.385 23.5815 532.628 23.6348 532.809 23.7415C532.996 23.8481 533.132 24.0055 533.217 24.2135C533.303 24.4215 533.345 24.6775 533.345 24.9815V27.3975H532.137V25.1575ZM535.564 25.9575C535.564 26.1708 535.604 26.3388 535.684 26.4615C535.764 26.5788 535.903 26.6375 536.1 26.6375C536.233 26.6375 536.345 26.6108 536.436 26.5575C536.532 26.5041 536.607 26.4268 536.66 26.3255C536.713 26.2241 536.74 26.1015 536.74 25.9575V23.7175H537.948V27.3975H536.74V26.8455C536.628 27.0428 536.481 27.2001 536.3 27.3175C536.119 27.4295 535.892 27.4855 535.62 27.4855C535.161 27.4855 534.825 27.3628 534.612 27.1175C534.404 26.8668 534.3 26.5228 534.3 26.0855V23.7175H535.564V25.9575ZM540.102 21.1575V27.3975H538.894V21.1575H540.102ZM543.11 25.5575C543.11 25.9681 543.024 26.3175 542.854 26.6055C542.688 26.8881 542.472 27.1041 542.206 27.2535C541.944 27.4028 541.662 27.4775 541.358 27.4775C541.054 27.4775 540.782 27.4001 540.542 27.2455C540.302 27.0908 540.112 26.8695 539.974 26.5815C539.835 26.2935 539.766 25.9521 539.766 25.5575C539.766 25.1575 539.835 24.8161 539.974 24.5335C540.112 24.2455 540.302 24.0241 540.542 23.8695C540.782 23.7148 541.054 23.6375 541.358 23.6375C541.662 23.6375 541.944 23.7121 542.206 23.8615C542.472 24.0108 542.688 24.2268 542.854 24.5095C543.024 24.7921 543.11 25.1415 543.11 25.5575ZM541.838 25.5575C541.838 25.3655 541.798 25.2001 541.718 25.0615C541.638 24.9175 541.531 24.8081 541.398 24.7335C541.264 24.6535 541.118 24.6135 540.958 24.6135C540.819 24.6135 540.683 24.6508 540.55 24.7255C540.422 24.8001 540.315 24.9095 540.23 25.0535C540.144 25.1921 540.102 25.3601 540.102 25.5575C540.102 25.7548 540.144 25.9255 540.23 26.0695C540.315 26.2081 540.422 26.3148 540.55 26.3895C540.683 26.4641 540.819 26.5015 540.958 26.5015C541.118 26.5015 541.264 26.4641 541.398 26.3895C541.531 26.3095 541.638 26.2001 541.718 26.0615C541.798 25.9175 541.838 25.7495 541.838 25.5575Z" fill="black"/>
<path d="M479.368 26.3735V25.3335H482.2C482.227 25.7815 482.181 26.2001 482.064 26.5895C481.947 26.9788 481.765 27.3228 481.52 27.6215C481.275 27.9201 480.968 28.1548 480.6 28.3255C480.232 28.4908 479.811 28.5735 479.336 28.5735C478.888 28.5735 478.477 28.5041 478.104 28.3655C477.731 28.2215 477.408 28.0188 477.136 27.7575C476.864 27.4908 476.651 27.1761 476.496 26.8135C476.347 26.4455 476.272 26.0401 476.272 25.5975C476.272 25.1548 476.349 24.7548 476.504 24.3975C476.659 24.0348 476.877 23.7255 477.16 23.4695C477.443 23.2135 477.773 23.0161 478.152 22.8775C478.531 22.7388 478.941 22.6695 479.384 22.6695C479.779 22.6695 480.133 22.7255 480.448 22.8375C480.763 22.9495 481.04 23.1068 481.28 23.3095C481.525 23.5068 481.736 23.7361 481.912 23.9975L480.712 24.6215C480.584 24.3975 480.411 24.2135 480.192 24.0695C479.979 23.9201 479.709 23.8455 479.384 23.8455C479.075 23.8455 478.789 23.9148 478.528 24.0535C478.272 24.1921 478.067 24.3921 477.912 24.6535C477.763 24.9095 477.688 25.2241 477.688 25.5975C477.688 25.9655 477.76 26.2855 477.904 26.5575C478.053 26.8241 478.253 27.0321 478.504 27.1815C478.76 27.3255 479.053 27.3975 479.384 27.3975C479.587 27.3975 479.771 27.3735 479.936 27.3255C480.101 27.2721 480.243 27.2001 480.36 27.1095C480.477 27.0135 480.576 26.9041 480.656 26.7815C480.741 26.6535 480.808 26.5175 480.856 26.3735H479.368ZM483.108 22.7975H484.484V28.3975H483.108V22.7975ZM485.11 24.0055V22.7975H489.542V24.0055H487.998V28.3975H486.646V24.0055H485.11Z" fill="black"/>
<g clip-path="url(#clip2_117_113)">
<path d="M492.623 9.50616L483.89 0.774908C483.77 0.655285 483.628 0.560392 483.472 0.495649C483.316 0.430906 483.149 0.397583 482.979 0.397583C482.81 0.397583 482.643 0.430906 482.487 0.495649C482.33 0.560392 482.188 0.655285 482.069 0.774908L480.256 2.58741L482.556 4.88741C482.828 4.79479 483.119 4.78031 483.398 4.84559C483.678 4.91088 483.933 5.05332 484.135 5.25665C484.337 5.45998 484.477 5.71601 484.541 5.99552C484.604 6.27503 484.588 6.56675 484.494 6.83741L486.71 9.05491C487.038 8.93946 487.395 8.93911 487.723 9.05392C488.052 9.16872 488.331 9.39184 488.515 9.68653C488.7 9.98123 488.778 10.3299 488.738 10.6752C488.698 11.0205 488.541 11.3418 488.294 11.5862C488.043 11.838 487.714 11.9951 487.36 12.0306C487.007 12.0662 486.652 11.978 486.357 11.7812C486.062 11.5843 485.844 11.291 485.74 10.9513C485.637 10.6116 485.655 10.2466 485.791 9.91866L483.725 7.85116V13.2924C484.039 13.4479 484.29 13.7063 484.437 14.0246C484.584 14.3429 484.617 14.7018 484.531 15.0415C484.445 15.3813 484.245 15.6813 483.965 15.8917C483.685 16.102 483.341 16.2099 482.99 16.1974C482.64 16.1849 482.305 16.0527 482.04 15.8229C481.776 15.5931 481.598 15.2796 481.536 14.9346C481.475 14.5896 481.534 14.2339 481.703 13.9269C481.872 13.6199 482.141 13.3801 482.465 13.2474V7.75616C482.278 7.67948 482.108 7.56651 481.964 7.42378C481.821 7.28104 481.708 7.11136 481.63 6.92451C481.553 6.73766 481.513 6.53735 481.514 6.33511C481.514 6.13287 481.554 5.9327 481.633 5.74616L479.366 3.47866L473.379 9.46616C473.259 9.58572 473.164 9.72768 473.1 9.88393C473.035 10.0402 473.001 10.2077 473.001 10.3768C473.001 10.5459 473.035 10.7134 473.1 10.8696C473.164 11.0259 473.259 11.1678 473.379 11.2874L482.111 20.0199C482.231 20.1395 482.373 20.2344 482.529 20.2992C482.685 20.3639 482.853 20.3972 483.022 20.3972C483.191 20.3972 483.358 20.3639 483.515 20.2992C483.671 20.2344 483.813 20.1395 483.933 20.0199L492.624 11.3287C492.865 11.087 493.001 10.7595 493.001 10.418C493.001 10.0766 492.865 9.74904 492.624 9.50741" fill="black"/>
</g>
<path d="M433.936 25.1415L435.304 21.7975H436.888L433.936 27.7495L430.992 21.7975H432.568L433.936 25.1415ZM438.056 25.9575C438.056 26.1708 438.096 26.3388 438.176 26.4615C438.256 26.5788 438.395 26.6375 438.592 26.6375C438.726 26.6375 438.838 26.6108 438.928 26.5575C439.024 26.5041 439.099 26.4268 439.152 26.3255C439.206 26.2241 439.232 26.1015 439.232 25.9575V23.7175H440.44V27.3975H439.232V26.8455C439.12 27.0428 438.974 27.2001 438.792 27.3175C438.611 27.4295 438.384 27.4855 438.112 27.4855C437.654 27.4855 437.318 27.3628 437.104 27.1175C436.896 26.8668 436.792 26.5228 436.792 26.0855V23.7175H438.056V25.9575ZM443.266 27.4775C442.839 27.4775 442.469 27.4001 442.154 27.2455C441.845 27.0855 441.605 26.8615 441.434 26.5735C441.263 26.2855 441.178 25.9468 441.178 25.5575C441.178 25.1628 441.261 24.8215 441.426 24.5335C441.591 24.2455 441.829 24.0241 442.138 23.8695C442.453 23.7148 442.823 23.6375 443.25 23.6375C443.677 23.6375 444.037 23.7121 444.33 23.8615C444.623 24.0055 444.847 24.2161 445.002 24.4935C445.157 24.7708 445.234 25.1068 445.234 25.5015C445.234 25.5601 445.234 25.6188 445.234 25.6775C445.234 25.7308 445.229 25.7761 445.218 25.8135H441.858V25.1415H444.13L443.842 25.5095C443.869 25.4721 443.89 25.4268 443.906 25.3735C443.927 25.3148 443.938 25.2668 443.938 25.2295C443.938 25.0695 443.909 24.9308 443.85 24.8135C443.791 24.6961 443.709 24.6055 443.602 24.5415C443.495 24.4775 443.37 24.4455 443.226 24.4455C443.045 24.4455 442.893 24.4855 442.77 24.5655C442.647 24.6455 442.554 24.7681 442.49 24.9335C442.431 25.0935 442.399 25.2961 442.394 25.5415C442.394 25.7655 442.426 25.9575 442.49 26.1175C442.554 26.2775 442.65 26.4001 442.778 26.4855C442.906 26.5655 443.063 26.6055 443.25 26.6055C443.463 26.6055 443.645 26.5655 443.794 26.4855C443.949 26.4055 444.071 26.2855 444.162 26.1255L445.242 26.3895C445.05 26.7521 444.789 27.0241 444.458 27.2055C444.133 27.3868 443.735 27.4775 443.266 27.4775Z" fill="black"/>
<path d="M443.191 2.90918H440.188L438 6.37012L436.125 2.90918H429.25L438 17.8975L446.75 2.90918H443.191ZM431.426 4.15918H433.527L438 11.9014L442.469 4.15918H444.57L438 15.417L431.426 4.15918Z" fill="black"/>
<path d="M372.032 24.0055V22.7975H376.464V24.0055H374.92V28.3975H373.568V24.0055H372.032ZM377.096 27.2455C377.096 27.3415 377.12 27.4241 377.168 27.4935C377.216 27.5575 377.28 27.6081 377.36 27.6455C377.44 27.6775 377.528 27.6935 377.624 27.6935C377.762 27.6935 377.89 27.6641 378.008 27.6055C378.125 27.5468 378.221 27.4588 378.296 27.3415C378.37 27.2241 378.408 27.0801 378.408 26.9095L378.536 27.3895C378.536 27.6241 378.472 27.8241 378.344 27.9895C378.216 28.1495 378.05 28.2721 377.848 28.3575C377.645 28.4375 377.426 28.4775 377.192 28.4775C376.957 28.4775 376.738 28.4348 376.536 28.3495C376.338 28.2588 376.178 28.1255 376.056 27.9495C375.938 27.7735 375.88 27.5601 375.88 27.3095C375.88 26.9575 376.005 26.6801 376.256 26.4775C376.506 26.2695 376.861 26.1655 377.32 26.1655C377.544 26.1655 377.744 26.1868 377.92 26.2295C378.101 26.2721 378.256 26.3255 378.384 26.3895C378.512 26.4535 378.608 26.5201 378.672 26.5895V27.1255C378.544 27.0295 378.394 26.9575 378.224 26.9095C378.058 26.8561 377.882 26.8295 377.696 26.8295C377.552 26.8295 377.437 26.8455 377.352 26.8775C377.266 26.9095 377.202 26.9575 377.16 27.0215C377.117 27.0801 377.096 27.1548 377.096 27.2455ZM376.56 25.8455L376.152 25.0375C376.36 24.9361 376.61 24.8401 376.904 24.7495C377.197 24.6588 377.517 24.6135 377.864 24.6135C378.189 24.6135 378.48 24.6615 378.736 24.7575C378.992 24.8481 379.194 24.9815 379.344 25.1575C379.493 25.3335 379.568 25.5495 379.568 25.8055V28.3975H378.408V26.0775C378.408 25.9868 378.392 25.9095 378.36 25.8455C378.333 25.7761 378.29 25.7175 378.232 25.6695C378.173 25.6215 378.098 25.5868 378.008 25.5655C377.922 25.5441 377.824 25.5335 377.712 25.5335C377.546 25.5335 377.384 25.5521 377.224 25.5895C377.069 25.6268 376.933 25.6721 376.816 25.7255C376.698 25.7735 376.613 25.8135 376.56 25.8455ZM380.4 23.3335C380.4 23.1415 380.469 22.9868 380.608 22.8695C380.747 22.7468 380.912 22.6855 381.104 22.6855C381.301 22.6855 381.467 22.7468 381.6 22.8695C381.739 22.9868 381.808 23.1415 381.808 23.3335C381.808 23.5255 381.739 23.6828 381.6 23.8055C381.467 23.9281 381.301 23.9895 381.104 23.9895C380.912 23.9895 380.747 23.9281 380.608 23.8055C380.469 23.6828 380.4 23.5255 380.4 23.3335ZM380.52 24.7175H381.688V28.3975H380.52V24.7175ZM382.683 22.1575H383.899V28.3975H382.683V22.1575ZM384.311 24.7175H385.575L386.343 26.6055L387.399 24.4375L388.479 26.6055L389.247 24.7175H390.511L388.615 28.6295L387.399 26.4375L386.207 28.6295L384.311 24.7175ZM390.853 23.3335C390.853 23.1415 390.922 22.9868 391.061 22.8695C391.2 22.7468 391.365 22.6855 391.557 22.6855C391.754 22.6855 391.92 22.7468 392.053 22.8695C392.192 22.9868 392.261 23.1415 392.261 23.3335C392.261 23.5255 392.192 23.6828 392.053 23.8055C391.92 23.9281 391.754 23.9895 391.557 23.9895C391.365 23.9895 391.2 23.9281 391.061 23.8055C390.922 23.6828 390.853 23.5255 390.853 23.3335ZM390.973 24.7175H392.141V28.3975H390.973V24.7175ZM395.528 26.1575C395.528 25.9388 395.485 25.7708 395.4 25.6535C395.32 25.5361 395.184 25.4775 394.992 25.4775C394.864 25.4775 394.752 25.5041 394.656 25.5575C394.56 25.6108 394.485 25.6881 394.432 25.7895C394.379 25.8908 394.352 26.0135 394.352 26.1575V28.3975H393.136V24.7175H394.352V25.2695C394.459 25.0668 394.603 24.9095 394.784 24.7975C394.971 24.6855 395.2 24.6295 395.472 24.6295C395.931 24.6295 396.264 24.7521 396.472 24.9975C396.68 25.2428 396.784 25.5868 396.784 26.0295V28.3975H395.528V26.1575ZM400.53 22.1575H401.738V28.3975H400.53V22.1575ZM397.522 26.5575C397.522 26.1415 397.604 25.7921 397.77 25.5095C397.94 25.2268 398.159 25.0108 398.426 24.8615C398.692 24.7121 398.975 24.6375 399.274 24.6375C399.583 24.6375 399.855 24.7148 400.09 24.8695C400.33 25.0241 400.519 25.2455 400.658 25.5335C400.796 25.8161 400.866 26.1575 400.866 26.5575C400.866 26.9521 400.796 27.2935 400.658 27.5815C400.519 27.8695 400.33 28.0908 400.09 28.2455C399.855 28.4001 399.583 28.4775 399.274 28.4775C398.975 28.4775 398.692 28.4028 398.426 28.2535C398.159 28.1041 397.94 27.8881 397.77 27.6055C397.604 27.3175 397.522 26.9681 397.522 26.5575ZM398.794 26.5575C398.794 26.7495 398.834 26.9175 398.914 27.0615C398.994 27.2001 399.1 27.3095 399.234 27.3895C399.367 27.4641 399.514 27.5015 399.674 27.5015C399.812 27.5015 399.946 27.4641 400.074 27.3895C400.207 27.3148 400.316 27.2081 400.402 27.0695C400.487 26.9255 400.53 26.7548 400.53 26.5575C400.53 26.3601 400.487 26.1921 400.402 26.0535C400.316 25.9095 400.207 25.8001 400.074 25.7255C399.946 25.6508 399.812 25.6135 399.674 25.6135C399.514 25.6135 399.367 25.6535 399.234 25.7335C399.1 25.8081 398.994 25.9175 398.914 26.0615C398.834 26.2001 398.794 26.3655 398.794 26.5575Z" fill="black"/>
<g clip-path="url(#clip3_117_113)">
<path d="M387.001 4.39746C384.334 4.39746 382.667 5.73079 382.001 8.39746C383.001 7.06413 384.167 6.56413 385.501 6.89746C386.262 7.08746 386.805 7.63913 387.407 8.25079C388.388 9.24579 389.522 10.3975 392.001 10.3975C394.667 10.3975 396.334 9.06413 397.001 6.39746C396.001 7.73079 394.834 8.23079 393.501 7.89746C392.74 7.70746 392.197 7.15579 391.594 6.54413C390.614 5.54913 389.48 4.39746 387.001 4.39746ZM382.001 10.3975C379.334 10.3975 377.667 11.7308 377.001 14.3975C378.001 13.0641 379.167 12.5641 380.501 12.8975C381.262 13.0875 381.805 13.6391 382.407 14.2508C383.388 15.2458 384.522 16.3975 387.001 16.3975C389.667 16.3975 391.334 15.0641 392.001 12.3975C391.001 13.7308 389.834 14.2308 388.501 13.8975C387.74 13.7075 387.197 13.1558 386.594 12.5441C385.614 11.5491 384.48 10.3975 382.001 10.3975Z" fill="black"/>
</g>
<path d="M329.208 26.4295C329.32 26.6321 329.445 26.8081 329.584 26.9575C329.728 27.1068 329.883 27.2215 330.048 27.3015C330.219 27.3815 330.397 27.4215 330.584 27.4215C330.781 27.4215 330.944 27.3735 331.072 27.2775C331.2 27.1761 331.264 27.0401 331.264 26.8695C331.264 26.7255 331.227 26.6108 331.152 26.5255C331.077 26.4348 330.957 26.3495 330.792 26.2695C330.627 26.1895 330.408 26.0988 330.136 25.9975C330.003 25.9495 329.848 25.8828 329.672 25.7975C329.501 25.7121 329.339 25.6028 329.184 25.4695C329.029 25.3308 328.901 25.1655 328.8 24.9735C328.699 24.7761 328.648 24.5388 328.648 24.2615C328.648 23.9308 328.733 23.6455 328.904 23.4055C329.08 23.1655 329.315 22.9841 329.608 22.8615C329.907 22.7335 330.237 22.6695 330.6 22.6695C330.973 22.6695 331.296 22.7308 331.568 22.8535C331.845 22.9761 332.075 23.1308 332.256 23.3175C332.437 23.5041 332.576 23.6935 332.672 23.8855L331.64 24.4615C331.56 24.3281 331.467 24.2135 331.36 24.1175C331.259 24.0161 331.144 23.9388 331.016 23.8855C330.893 23.8268 330.76 23.7975 330.616 23.7975C330.424 23.7975 330.277 23.8401 330.176 23.9255C330.075 24.0055 330.024 24.1068 330.024 24.2295C330.024 24.3575 330.072 24.4695 330.168 24.5655C330.269 24.6615 330.411 24.7495 330.592 24.8295C330.779 24.9095 331.003 24.9948 331.264 25.0855C331.461 25.1601 331.645 25.2481 331.816 25.3495C331.987 25.4455 332.136 25.5628 332.264 25.7015C332.397 25.8401 332.501 26.0001 332.576 26.1815C332.651 26.3628 332.688 26.5708 332.688 26.8055C332.688 27.0881 332.629 27.3415 332.512 27.5655C332.4 27.7841 332.245 27.9681 332.048 28.1175C331.856 28.2668 331.635 28.3788 331.384 28.4535C331.139 28.5335 330.885 28.5735 330.624 28.5735C330.261 28.5735 329.923 28.5095 329.608 28.3815C329.299 28.2481 329.029 28.0695 328.8 27.8455C328.571 27.6215 328.392 27.3761 328.264 27.1095L329.208 26.4295ZM334.408 27.2455C334.408 27.3415 334.432 27.4241 334.48 27.4935C334.528 27.5575 334.592 27.6081 334.672 27.6455C334.752 27.6775 334.84 27.6935 334.936 27.6935C335.075 27.6935 335.203 27.6641 335.32 27.6055C335.437 27.5468 335.533 27.4588 335.608 27.3415C335.683 27.2241 335.72 27.0801 335.72 26.9095L335.848 27.3895C335.848 27.6241 335.784 27.8241 335.656 27.9895C335.528 28.1495 335.363 28.2721 335.16 28.3575C334.957 28.4375 334.739 28.4775 334.504 28.4775C334.269 28.4775 334.051 28.4348 333.848 28.3495C333.651 28.2588 333.491 28.1255 333.368 27.9495C333.251 27.7735 333.192 27.5601 333.192 27.3095C333.192 26.9575 333.317 26.6801 333.568 26.4775C333.819 26.2695 334.173 26.1655 334.632 26.1655C334.856 26.1655 335.056 26.1868 335.232 26.2295C335.413 26.2721 335.568 26.3255 335.696 26.3895C335.824 26.4535 335.92 26.5201 335.984 26.5895V27.1255C335.856 27.0295 335.707 26.9575 335.536 26.9095C335.371 26.8561 335.195 26.8295 335.008 26.8295C334.864 26.8295 334.749 26.8455 334.664 26.8775C334.579 26.9095 334.515 26.9575 334.472 27.0215C334.429 27.0801 334.408 27.1548 334.408 27.2455ZM333.872 25.8455L333.464 25.0375C333.672 24.9361 333.923 24.8401 334.216 24.7495C334.509 24.6588 334.829 24.6135 335.176 24.6135C335.501 24.6135 335.792 24.6615 336.048 24.7575C336.304 24.8481 336.507 24.9815 336.656 25.1575C336.805 25.3335 336.88 25.5495 336.88 25.8055V28.3975H335.72V26.0775C335.72 25.9868 335.704 25.9095 335.672 25.8455C335.645 25.7761 335.603 25.7175 335.544 25.6695C335.485 25.6215 335.411 25.5868 335.32 25.5655C335.235 25.5441 335.136 25.5335 335.024 25.5335C334.859 25.5335 334.696 25.5521 334.536 25.5895C334.381 25.6268 334.245 25.6721 334.128 25.7255C334.011 25.7735 333.925 25.8135 333.872 25.8455ZM337.985 27.0615C338.171 27.2161 338.339 27.3388 338.488 27.4295C338.643 27.5148 338.779 27.5761 338.897 27.6135C339.014 27.6455 339.115 27.6615 339.201 27.6615C339.323 27.6615 339.414 27.6348 339.473 27.5815C339.531 27.5281 339.561 27.4588 339.561 27.3735C339.561 27.2935 339.537 27.2268 339.489 27.1735C339.441 27.1148 339.358 27.0588 339.241 27.0055C339.129 26.9521 338.974 26.8961 338.777 26.8375C338.601 26.7735 338.433 26.6988 338.273 26.6135C338.118 26.5228 337.99 26.4028 337.889 26.2535C337.787 26.1041 337.737 25.9121 337.737 25.6775C337.737 25.4535 337.795 25.2641 337.913 25.1095C338.035 24.9548 338.198 24.8375 338.401 24.7575C338.609 24.6775 338.846 24.6375 339.113 24.6375C339.326 24.6375 339.523 24.6615 339.705 24.7095C339.891 24.7575 340.065 24.8215 340.225 24.9015C340.39 24.9815 340.545 25.0748 340.689 25.1815L340.257 25.9655C340.102 25.8215 339.926 25.7041 339.729 25.6135C339.531 25.5175 339.35 25.4695 339.185 25.4695C339.073 25.4695 338.987 25.4908 338.929 25.5335C338.875 25.5761 338.849 25.6321 338.849 25.7015C338.849 25.7815 338.881 25.8481 338.945 25.9015C339.014 25.9548 339.11 26.0055 339.233 26.0535C339.361 26.0961 339.515 26.1521 339.697 26.2215C339.889 26.2908 340.065 26.3708 340.225 26.4615C340.39 26.5521 340.521 26.6668 340.617 26.8055C340.718 26.9441 340.769 27.1281 340.769 27.3575C340.769 27.7521 340.646 28.0508 340.401 28.2535C340.161 28.4508 339.822 28.5495 339.385 28.5495C339.118 28.5495 338.87 28.5175 338.641 28.4535C338.417 28.3948 338.209 28.3148 338.017 28.2135C337.825 28.1068 337.646 27.9895 337.481 27.8615L337.985 27.0615ZM341.633 27.0615C341.82 27.2161 341.988 27.3388 342.137 27.4295C342.292 27.5148 342.428 27.5761 342.545 27.6135C342.662 27.6455 342.764 27.6615 342.849 27.6615C342.972 27.6615 343.062 27.6348 343.121 27.5815C343.18 27.5281 343.209 27.4588 343.209 27.3735C343.209 27.2935 343.185 27.2268 343.137 27.1735C343.089 27.1148 343.006 27.0588 342.889 27.0055C342.777 26.9521 342.622 26.8961 342.425 26.8375C342.249 26.7735 342.081 26.6988 341.921 26.6135C341.766 26.5228 341.638 26.4028 341.537 26.2535C341.436 26.1041 341.385 25.9121 341.385 25.6775C341.385 25.4535 341.444 25.2641 341.561 25.1095C341.684 24.9548 341.846 24.8375 342.049 24.7575C342.257 24.6775 342.494 24.6375 342.761 24.6375C342.974 24.6375 343.172 24.6615 343.353 24.7095C343.54 24.7575 343.713 24.8215 343.873 24.9015C344.038 24.9815 344.193 25.0748 344.337 25.1815L343.905 25.9655C343.75 25.8215 343.574 25.7041 343.377 25.6135C343.18 25.5175 342.998 25.4695 342.833 25.4695C342.721 25.4695 342.636 25.4908 342.577 25.5335C342.524 25.5761 342.497 25.6321 342.497 25.7015C342.497 25.7815 342.529 25.8481 342.593 25.9015C342.662 25.9548 342.758 26.0055 342.881 26.0535C343.009 26.0961 343.164 26.1521 343.345 26.2215C343.537 26.2908 343.713 26.3708 343.873 26.4615C344.038 26.5521 344.169 26.6668 344.265 26.8055C344.366 26.9441 344.417 27.1281 344.417 27.3575C344.417 27.7521 344.294 28.0508 344.049 28.2535C343.809 28.4508 343.47 28.5495 343.033 28.5495C342.766 28.5495 342.518 28.5175 342.289 28.4535C342.065 28.3948 341.857 28.3148 341.665 28.2135C341.473 28.1068 341.294 27.9895 341.129 27.8615L341.633 27.0615Z" fill="black"/>
<path d="M336.432 14.2387C336.423 14.2575 336.414 14.2725 336.432 14.2387ZM344.218 11.52C343.589 11.5197 342.969 11.6641 342.405 11.9418C342.221 11.57 342.03 11.245 341.999 11.0012C341.962 10.7168 341.921 10.5481 341.965 10.2106C342.008 9.87308 342.205 9.39495 342.202 9.36058C342.199 9.3262 342.158 9.15433 341.755 9.1512C341.352 9.14808 341.005 9.22933 340.965 9.33558C340.894 9.52975 340.838 9.72936 340.799 9.93245C340.727 10.2981 339.993 11.6043 339.578 12.2856C339.44 12.02 339.325 11.7856 339.3 11.5981C339.262 11.3137 339.222 11.145 339.265 10.8075C339.309 10.47 339.506 9.99183 339.503 9.95745C339.5 9.92308 339.459 9.7512 339.056 9.74808C338.653 9.74495 338.306 9.8262 338.266 9.93245C338.225 10.0387 338.181 10.2887 338.1 10.5293C338.019 10.77 337.041 12.945 336.785 13.5106C336.654 13.7981 336.541 14.0293 336.46 14.1856C336.447 14.2106 336.438 14.2262 336.432 14.2387C336.441 14.2231 336.447 14.2075 336.447 14.2137C336.379 14.3481 336.338 14.4231 336.338 14.4231V14.4262C336.285 14.5262 336.226 14.6168 336.197 14.6168C336.179 14.6168 336.138 14.3543 336.207 13.995C336.354 13.2387 336.701 12.0637 336.697 12.0231C336.694 12.0012 336.763 11.7981 336.469 11.6887C336.185 11.5856 336.082 11.7575 336.057 11.7575C336.032 11.7575 336.013 11.82 336.013 11.82C336.013 11.82 336.329 10.495 335.407 10.495C334.832 10.495 334.032 11.1262 333.639 11.6981C333.392 11.8325 332.858 12.1231 332.295 12.4325C332.08 12.5512 331.858 12.6731 331.648 12.7887C331.633 12.7731 331.62 12.7575 331.605 12.7418C330.486 11.5481 328.421 10.7043 328.509 9.1012C328.54 8.51683 328.743 6.98245 332.48 5.11995C335.542 3.59495 337.991 4.0137 338.412 4.94495C339.018 6.27308 337.103 8.74495 333.923 9.1012C332.711 9.23558 332.073 8.76683 331.914 8.59183C331.748 8.40745 331.723 8.39808 331.661 8.43245C331.558 8.4887 331.623 8.6512 331.661 8.74808C331.755 8.99495 332.145 9.43245 332.811 9.6512C333.395 9.84183 334.816 9.94808 336.535 9.28245C338.465 8.5387 339.968 6.46683 339.527 4.73245C339.079 2.96995 336.156 2.39183 333.393 3.37308C331.746 3.95745 329.966 4.8762 328.685 6.07308C327.163 7.49808 326.92 8.7387 327.02 9.25745C327.376 11.0981 329.912 12.2981 330.928 13.1856C330.878 13.2137 330.831 13.2387 330.787 13.2637C330.278 13.5168 328.344 14.5293 327.86 15.5981C327.313 16.8106 327.951 17.6793 328.369 17.7981C329.675 18.1606 331.012 17.5075 331.731 16.4356C332.449 15.3637 332.362 13.9637 332.031 13.3262C332.027 13.3168 332.021 13.3106 332.018 13.3012C332.149 13.2231 332.284 13.145 332.418 13.0668C332.677 12.9137 332.93 12.7731 333.152 12.6512C333.027 12.9887 332.937 13.395 332.89 13.9825C332.833 14.67 333.118 15.5606 333.487 15.9106C333.649 16.0637 333.846 16.0668 333.967 16.0668C334.399 16.0668 334.592 15.7106 334.808 15.2856C335.073 14.7668 335.308 14.1637 335.308 14.1637C335.308 14.1637 335.014 15.795 335.817 15.795C336.111 15.795 336.404 15.4168 336.536 15.2231V15.2262C336.536 15.2262 336.542 15.2137 336.558 15.1887C336.589 15.1418 336.605 15.1137 336.605 15.1137V15.1043C336.723 14.9012 336.983 14.4356 337.373 13.6668C337.879 12.6731 338.363 11.4325 338.363 11.4325C338.41 11.7052 338.475 11.9745 338.557 12.2387C338.645 12.5356 338.829 12.8606 338.976 13.1762C338.857 13.3387 338.785 13.4325 338.785 13.4325C338.786 13.4349 338.787 13.4371 338.788 13.4387C338.695 13.5637 338.588 13.6981 338.479 13.8293C338.079 14.3043 337.604 14.8481 337.542 15.0043C337.467 15.1887 337.485 15.3262 337.629 15.4325C337.735 15.5137 337.923 15.5262 338.119 15.5106C338.479 15.4856 338.732 15.3981 338.854 15.3418C339.078 15.2613 339.291 15.1498 339.485 15.0106C339.875 14.7231 340.113 14.3106 340.091 13.7668C340.078 13.4668 339.982 13.1668 339.863 12.8856C339.897 12.8356 339.935 12.7825 339.969 12.7293C340.587 11.8262 341.066 10.835 341.066 10.835C341.112 11.1077 341.177 11.377 341.259 11.6412C341.334 11.8943 341.481 12.1725 341.615 12.4443C341.034 12.9162 340.675 13.4631 340.55 13.8225C340.319 14.4881 340.5 14.7881 340.841 14.8568C340.994 14.8881 341.212 14.8162 341.375 14.7475C341.616 14.6671 341.844 14.5501 342.05 14.4006C342.44 14.1131 342.818 13.71 342.793 13.1631C342.784 12.9162 342.715 12.6693 342.624 12.4318C343.115 12.2256 343.752 12.1131 344.565 12.2068C346.305 12.41 346.645 13.4975 346.58 13.9506C346.514 14.4037 346.148 14.6568 346.027 14.7318C345.905 14.8068 345.867 14.835 345.877 14.8912C345.892 14.9725 345.948 14.9693 346.052 14.9506C346.195 14.9256 346.964 14.5818 346.998 13.7412C347.048 12.6787 346.027 11.51 344.217 11.5193L344.218 11.52ZM330.806 16.0418C330.231 16.67 329.425 16.9075 329.078 16.7075C328.707 16.4912 328.853 15.5668 329.562 14.8975C329.994 14.4912 330.55 14.1162 330.918 13.885C331.003 13.835 331.125 13.76 331.275 13.6693C331.3 13.6537 331.312 13.6475 331.312 13.6475C331.34 13.6287 331.372 13.6131 331.403 13.5943C331.662 14.5443 331.412 15.3818 330.806 16.0412V16.0418ZM335.005 13.1856C334.805 13.6762 334.383 14.9262 334.127 14.8606C333.908 14.8043 333.774 13.8512 334.083 12.9137C334.239 12.4418 334.571 11.8793 334.767 11.6606C335.083 11.3075 335.43 11.195 335.511 11.3356C335.62 11.52 335.13 12.8793 335.005 13.1856ZM338.473 14.8418C338.389 14.8856 338.311 14.9137 338.273 14.8918C338.245 14.8762 338.308 14.8168 338.308 14.8168C338.308 14.8168 338.742 14.3512 338.914 14.1387C339.014 14.0137 339.13 13.8668 339.254 13.7043C339.254 13.72 339.257 13.7356 339.257 13.7543C339.253 14.3137 338.716 14.6918 338.472 14.8418H338.473ZM341.148 14.2325C341.085 14.1887 341.095 14.0418 341.304 13.5856C341.385 13.4075 341.572 13.1075 341.898 12.82C341.935 12.9288 341.955 13.0426 341.957 13.1575C341.954 13.8606 341.451 14.1231 341.148 14.2325H341.148Z" fill="black"/>
<path d="M266.6 25.6135V25.0215H267.504C267.659 25.0215 267.789 24.9975 267.896 24.9495C268.008 24.9015 268.093 24.8348 268.152 24.7495C268.211 24.6588 268.24 24.5495 268.24 24.4215C268.24 24.2295 268.176 24.0855 268.048 23.9895C267.92 23.8935 267.739 23.8455 267.504 23.8455H266.944V27.3495H267.632C267.808 27.3495 267.965 27.3281 268.104 27.2855C268.243 27.2375 268.352 27.1628 268.432 27.0615C268.517 26.9548 268.56 26.8108 268.56 26.6295C268.56 26.5121 268.536 26.4108 268.488 26.3255C268.44 26.2401 268.373 26.1708 268.288 26.1175C268.203 26.0641 268.104 26.0268 267.992 26.0055C267.885 25.9788 267.765 25.9655 267.632 25.9655H266.6V25.2295H267.784C268.056 25.2295 268.32 25.2588 268.576 25.3175C268.832 25.3761 269.064 25.4721 269.272 25.6055C269.48 25.7335 269.645 25.8988 269.768 26.1015C269.896 26.2988 269.96 26.5388 269.96 26.8215C269.96 27.1948 269.869 27.4961 269.688 27.7255C269.512 27.9548 269.261 28.1255 268.936 28.2375C268.611 28.3441 268.227 28.3975 267.784 28.3975H265.592V22.7975H267.648C268.037 22.7975 268.379 22.8508 268.672 22.9575C268.971 23.0588 269.205 23.2161 269.376 23.4295C269.552 23.6375 269.64 23.9015 269.64 24.2215C269.64 24.5148 269.552 24.7655 269.376 24.9735C269.205 25.1815 268.971 25.3415 268.672 25.4535C268.379 25.5601 268.037 25.6135 267.648 25.6135H266.6ZM270.569 26.5575C270.569 26.1681 270.659 25.8295 270.84 25.5415C271.022 25.2535 271.273 25.0295 271.593 24.8695C271.913 24.7095 272.273 24.6295 272.673 24.6295C273.073 24.6295 273.43 24.7095 273.745 24.8695C274.065 25.0295 274.315 25.2535 274.497 25.5415C274.683 25.8295 274.777 26.1681 274.777 26.5575C274.777 26.9415 274.683 27.2775 274.497 27.5655C274.315 27.8535 274.065 28.0775 273.745 28.2375C273.43 28.3975 273.073 28.4775 272.673 28.4775C272.273 28.4775 271.913 28.3975 271.593 28.2375C271.273 28.0775 271.022 27.8535 270.84 27.5655C270.659 27.2775 270.569 26.9415 270.569 26.5575ZM271.809 26.5575C271.809 26.7495 271.849 26.9148 271.929 27.0535C272.009 27.1868 272.113 27.2908 272.241 27.3655C272.369 27.4401 272.513 27.4775 272.673 27.4775C272.827 27.4775 272.969 27.4401 273.097 27.3655C273.23 27.2908 273.334 27.1868 273.409 27.0535C273.489 26.9148 273.529 26.7495 273.529 26.5575C273.529 26.3655 273.489 26.2001 273.409 26.0615C273.334 25.9228 273.23 25.8161 273.097 25.7415C272.969 25.6668 272.827 25.6295 272.673 25.6295C272.513 25.6295 272.369 25.6668 272.241 25.7415C272.113 25.8161 272.009 25.9228 271.929 26.0615C271.849 26.2001 271.809 26.3655 271.809 26.5575ZM275.287 26.5575C275.287 26.1681 275.378 25.8295 275.559 25.5415C275.741 25.2535 275.991 25.0295 276.311 24.8695C276.631 24.7095 276.991 24.6295 277.391 24.6295C277.791 24.6295 278.149 24.7095 278.463 24.8695C278.783 25.0295 279.034 25.2535 279.215 25.5415C279.402 25.8295 279.495 26.1681 279.495 26.5575C279.495 26.9415 279.402 27.2775 279.215 27.5655C279.034 27.8535 278.783 28.0775 278.463 28.2375C278.149 28.3975 277.791 28.4775 277.391 28.4775C276.991 28.4775 276.631 28.3975 276.311 28.2375C275.991 28.0775 275.741 27.8535 275.559 27.5655C275.378 27.2775 275.287 26.9415 275.287 26.5575ZM276.527 26.5575C276.527 26.7495 276.567 26.9148 276.647 27.0535C276.727 27.1868 276.831 27.2908 276.959 27.3655C277.087 27.4401 277.231 27.4775 277.391 27.4775C277.546 27.4775 277.687 27.4401 277.815 27.3655C277.949 27.2908 278.053 27.1868 278.127 27.0535C278.207 26.9148 278.247 26.7495 278.247 26.5575C278.247 26.3655 278.207 26.2001 278.127 26.0615C278.053 25.9228 277.949 25.8161 277.815 25.7415C277.687 25.6668 277.546 25.6295 277.391 25.6295C277.231 25.6295 277.087 25.6668 276.959 25.7415C276.831 25.8161 276.727 25.9228 276.647 26.0615C276.567 26.2001 276.527 26.3655 276.527 26.5575ZM279.79 24.7175H282.254V25.7175H279.79V24.7175ZM280.438 23.4375H281.598V28.3975H280.438V23.4375ZM282.969 27.0615C283.156 27.2161 283.324 27.3388 283.473 27.4295C283.628 27.5148 283.764 27.5761 283.881 27.6135C283.998 27.6455 284.1 27.6615 284.185 27.6615C284.308 27.6615 284.398 27.6348 284.457 27.5815C284.516 27.5281 284.545 27.4588 284.545 27.3735C284.545 27.2935 284.521 27.2268 284.473 27.1735C284.425 27.1148 284.342 27.0588 284.225 27.0055C284.113 26.9521 283.958 26.8961 283.761 26.8375C283.585 26.7735 283.417 26.6988 283.257 26.6135C283.102 26.5228 282.974 26.4028 282.873 26.2535C282.772 26.1041 282.721 25.9121 282.721 25.6775C282.721 25.4535 282.78 25.2641 282.897 25.1095C283.02 24.9548 283.182 24.8375 283.385 24.7575C283.593 24.6775 283.83 24.6375 284.097 24.6375C284.31 24.6375 284.508 24.6615 284.689 24.7095C284.876 24.7575 285.049 24.8215 285.209 24.9015C285.374 24.9815 285.529 25.0748 285.673 25.1815L285.241 25.9655C285.086 25.8215 284.91 25.7041 284.713 25.6135C284.516 25.5175 284.334 25.4695 284.169 25.4695C284.057 25.4695 283.972 25.4908 283.913 25.5335C283.86 25.5761 283.833 25.6321 283.833 25.7015C283.833 25.7815 283.865 25.8481 283.929 25.9015C283.998 25.9548 284.094 26.0055 284.217 26.0535C284.345 26.0961 284.5 26.1521 284.681 26.2215C284.873 26.2908 285.049 26.3708 285.209 26.4615C285.374 26.5521 285.505 26.6668 285.601 26.8055C285.702 26.9441 285.753 27.1281 285.753 27.3575C285.753 27.7521 285.63 28.0508 285.385 28.2535C285.145 28.4508 284.806 28.5495 284.369 28.5495C284.102 28.5495 283.854 28.5175 283.625 28.4535C283.401 28.3948 283.193 28.3148 283.001 28.2135C282.809 28.1068 282.63 27.9895 282.465 27.8615L282.969 27.0615ZM285.985 24.7175H288.449V25.7175H285.985V24.7175ZM286.633 23.4375H287.793V28.3975H286.633V23.4375ZM290.156 24.7175V28.3975H288.964V24.7175H290.156ZM291.22 25.9655C291.156 25.9015 291.087 25.8508 291.012 25.8135C290.943 25.7761 290.855 25.7575 290.748 25.7575C290.631 25.7575 290.527 25.7895 290.436 25.8535C290.346 25.9175 290.276 26.0108 290.228 26.1335C290.18 26.2561 290.156 26.4055 290.156 26.5815L289.868 26.1575C289.868 25.8641 289.924 25.6028 290.036 25.3735C290.154 25.1441 290.306 24.9628 290.492 24.8295C290.679 24.6961 290.874 24.6295 291.076 24.6295C291.21 24.6295 291.338 24.6561 291.46 24.7095C291.583 24.7628 291.676 24.8375 291.74 24.9335L291.22 25.9655ZM293.189 27.2455C293.189 27.3415 293.213 27.4241 293.261 27.4935C293.309 27.5575 293.373 27.6081 293.453 27.6455C293.533 27.6775 293.621 27.6935 293.717 27.6935C293.856 27.6935 293.984 27.6641 294.101 27.6055C294.219 27.5468 294.315 27.4588 294.389 27.3415C294.464 27.2241 294.501 27.0801 294.501 26.9095L294.629 27.3895C294.629 27.6241 294.565 27.8241 294.437 27.9895C294.309 28.1495 294.144 28.2721 293.941 28.3575C293.739 28.4375 293.52 28.4775 293.285 28.4775C293.051 28.4775 292.832 28.4348 292.629 28.3495C292.432 28.2588 292.272 28.1255 292.149 27.9495C292.032 27.7735 291.973 27.5601 291.973 27.3095C291.973 26.9575 292.099 26.6801 292.349 26.4775C292.6 26.2695 292.955 26.1655 293.413 26.1655C293.637 26.1655 293.837 26.1868 294.013 26.2295C294.195 26.2721 294.349 26.3255 294.477 26.3895C294.605 26.4535 294.701 26.5201 294.765 26.5895V27.1255C294.637 27.0295 294.488 26.9575 294.317 26.9095C294.152 26.8561 293.976 26.8295 293.789 26.8295C293.645 26.8295 293.531 26.8455 293.445 26.8775C293.36 26.9095 293.296 26.9575 293.253 27.0215C293.211 27.0801 293.189 27.1548 293.189 27.2455ZM292.653 25.8455L292.245 25.0375C292.453 24.9361 292.704 24.8401 292.997 24.7495C293.291 24.6588 293.611 24.6135 293.957 24.6135C294.283 24.6135 294.573 24.6615 294.829 24.7575C295.085 24.8481 295.288 24.9815 295.437 25.1575C295.587 25.3335 295.661 25.5495 295.661 25.8055V28.3975H294.501V26.0775C294.501 25.9868 294.485 25.9095 294.453 25.8455C294.427 25.7761 294.384 25.7175 294.325 25.6695C294.267 25.6215 294.192 25.5868 294.101 25.5655C294.016 25.5441 293.917 25.5335 293.805 25.5335C293.64 25.5335 293.477 25.5521 293.317 25.5895C293.163 25.6268 293.027 25.6721 292.909 25.7255C292.792 25.7735 292.707 25.8135 292.653 25.8455ZM297.766 30.1575H296.558V24.7175H297.766V30.1575ZM300.774 26.5575C300.774 26.9841 300.688 27.3441 300.518 27.6375C300.352 27.9308 300.136 28.1521 299.87 28.3015C299.608 28.4508 299.326 28.5255 299.022 28.5255C298.702 28.5255 298.424 28.4455 298.19 28.2855C297.96 28.1201 297.784 27.8908 297.662 27.5975C297.539 27.2988 297.478 26.9521 297.478 26.5575C297.478 26.1575 297.539 25.8108 297.662 25.5175C297.784 25.2241 297.96 24.9975 298.19 24.8375C298.424 24.6721 298.702 24.5895 299.022 24.5895C299.326 24.5895 299.608 24.6641 299.87 24.8135C300.136 24.9628 300.352 25.1841 300.518 25.4775C300.688 25.7655 300.774 26.1255 300.774 26.5575ZM299.502 26.5575C299.502 26.3655 299.462 26.2028 299.382 26.0695C299.302 25.9361 299.195 25.8348 299.062 25.7655C298.928 25.6961 298.782 25.6615 298.622 25.6615C298.483 25.6615 298.347 25.6961 298.214 25.7655C298.086 25.8295 297.979 25.9281 297.894 26.0615C297.808 26.1948 297.766 26.3601 297.766 26.5575C297.766 26.7548 297.808 26.9201 297.894 27.0535C297.979 27.1868 298.086 27.2881 298.214 27.3575C298.347 27.4215 298.483 27.4535 298.622 27.4535C298.782 27.4535 298.928 27.4188 299.062 27.3495C299.195 27.2801 299.302 27.1788 299.382 27.0455C299.462 26.9121 299.502 26.7495 299.502 26.5575Z" fill="black"/>
<path d="M284.58 7.50157C284.58 6.73421 284.038 6.3106 283.087 6.3106H281.337V8.78282H282.813C283.951 8.77935 284.58 8.32102 284.58 7.50157ZM290.951 7.05713C290.622 5.98421 290.573 4.66824 290.611 3.65088C290.649 2.59185 289.823 1.61963 288.712 1.61963H277.295C276.181 1.61963 275.358 2.59532 275.396 3.65088C275.431 4.66824 275.385 5.98421 275.056 7.05713C274.722 8.13352 274.163 8.81407 273.243 8.90088V9.89046C274.16 9.97727 274.722 10.6578 275.056 11.7342C275.385 12.8071 275.434 14.1231 275.396 15.1405C275.358 16.1995 276.184 17.1717 277.295 17.1717H288.708C289.823 17.1717 290.646 16.196 290.608 15.1405C290.573 14.1231 290.618 12.8071 290.948 11.7342C291.281 10.6578 291.84 9.97727 292.757 9.89046V8.90088C291.844 8.81407 291.281 8.13352 290.951 7.05713ZM283.424 13.5328H280.024V5.25852H283.406C284.91 5.25852 285.896 6.07102 285.896 7.32102C285.896 8.19949 285.233 8.98421 284.385 9.11963V9.16477C285.538 9.28977 286.313 10.0884 286.313 11.1891C286.313 12.6509 285.226 13.5328 283.424 13.5328ZM283.076 9.75852H281.337V12.4807H283.153C284.34 12.4807 284.969 12.005 284.969 11.1092C284.969 10.2169 284.323 9.75852 283.076 9.75852Z" fill="black"/>
<path d="M155.032 24.608V23.4H159.464V24.608H157.92V29H156.568V24.608H155.032ZM163.482 25.32L161.082 30.76H159.866L160.762 28.704L159.17 25.32H160.498L161.69 28.272L161.066 28.264L162.242 25.32H163.482ZM165.086 30.76H163.878V25.32H165.086V30.76ZM168.094 27.16C168.094 27.5867 168.009 27.9467 167.838 28.24C167.673 28.5333 167.457 28.7547 167.19 28.904C166.929 29.0533 166.646 29.128 166.342 29.128C166.022 29.128 165.745 29.048 165.51 28.888C165.281 28.7227 165.105 28.4933 164.982 28.2C164.859 27.9013 164.798 27.5547 164.798 27.16C164.798 26.76 164.859 26.4133 164.982 26.12C165.105 25.8267 165.281 25.6 165.51 25.44C165.745 25.2747 166.022 25.192 166.342 25.192C166.646 25.192 166.929 25.2667 167.19 25.416C167.457 25.5653 167.673 25.7867 167.838 26.08C168.009 26.368 168.094 26.728 168.094 27.16ZM166.822 27.16C166.822 26.968 166.782 26.8053 166.702 26.672C166.622 26.5387 166.515 26.4373 166.382 26.368C166.249 26.2987 166.102 26.264 165.942 26.264C165.803 26.264 165.667 26.2987 165.534 26.368C165.406 26.432 165.299 26.5307 165.214 26.664C165.129 26.7973 165.086 26.9627 165.086 27.16C165.086 27.3573 165.129 27.5227 165.214 27.656C165.299 27.7893 165.406 27.8907 165.534 27.96C165.667 28.024 165.803 28.056 165.942 28.056C166.102 28.056 166.249 28.0213 166.382 27.952C166.515 27.8827 166.622 27.7813 166.702 27.648C166.782 27.5147 166.822 27.352 166.822 27.16ZM170.696 29.08C170.269 29.08 169.898 29.0027 169.584 28.848C169.274 28.688 169.034 28.464 168.864 28.176C168.693 27.888 168.608 27.5493 168.608 27.16C168.608 26.7653 168.69 26.424 168.856 26.136C169.021 25.848 169.258 25.6267 169.568 25.472C169.882 25.3173 170.253 25.24 170.68 25.24C171.106 25.24 171.466 25.3147 171.76 25.464C172.053 25.608 172.277 25.8187 172.432 26.096C172.586 26.3733 172.664 26.7093 172.664 27.104C172.664 27.1627 172.664 27.2213 172.664 27.28C172.664 27.3333 172.658 27.3787 172.648 27.416H169.288V26.744H171.56L171.272 27.112C171.298 27.0747 171.32 27.0293 171.336 26.976C171.357 26.9173 171.368 26.8693 171.368 26.832C171.368 26.672 171.338 26.5333 171.28 26.416C171.221 26.2987 171.138 26.208 171.032 26.144C170.925 26.08 170.8 26.048 170.656 26.048C170.474 26.048 170.322 26.088 170.2 26.168C170.077 26.248 169.984 26.3707 169.92 26.536C169.861 26.696 169.829 26.8987 169.824 27.144C169.824 27.368 169.856 27.56 169.92 27.72C169.984 27.88 170.08 28.0027 170.208 28.088C170.336 28.168 170.493 28.208 170.68 28.208C170.893 28.208 171.074 28.168 171.224 28.088C171.378 28.008 171.501 27.888 171.592 27.728L172.672 27.992C172.48 28.3547 172.218 28.6267 171.888 28.808C171.562 28.9893 171.165 29.08 170.696 29.08ZM173.61 27.664C173.796 27.8187 173.964 27.9413 174.113 28.032C174.268 28.1173 174.404 28.1787 174.522 28.216C174.639 28.248 174.74 28.264 174.826 28.264C174.948 28.264 175.039 28.2373 175.098 28.184C175.156 28.1307 175.186 28.0613 175.186 27.976C175.186 27.896 175.162 27.8293 175.114 27.776C175.066 27.7173 174.983 27.6613 174.866 27.608C174.754 27.5547 174.599 27.4987 174.402 27.44C174.226 27.376 174.058 27.3013 173.898 27.216C173.743 27.1253 173.615 27.0053 173.514 26.856C173.412 26.7067 173.362 26.5147 173.362 26.28C173.362 26.056 173.42 25.8667 173.538 25.712C173.66 25.5573 173.823 25.44 174.026 25.36C174.234 25.28 174.471 25.24 174.738 25.24C174.951 25.24 175.148 25.264 175.33 25.312C175.516 25.36 175.69 25.424 175.85 25.504C176.015 25.584 176.17 25.6773 176.314 25.784L175.882 26.568C175.727 26.424 175.551 26.3067 175.354 26.216C175.156 26.12 174.975 26.072 174.81 26.072C174.698 26.072 174.612 26.0933 174.554 26.136C174.5 26.1787 174.474 26.2347 174.474 26.304C174.474 26.384 174.506 26.4507 174.57 26.504C174.639 26.5573 174.735 26.608 174.858 26.656C174.986 26.6987 175.14 26.7547 175.322 26.824C175.514 26.8933 175.69 26.9733 175.85 27.064C176.015 27.1547 176.146 27.2693 176.242 27.408C176.343 27.5467 176.394 27.7307 176.394 27.96C176.394 28.3547 176.271 28.6533 176.026 28.856C175.786 29.0533 175.447 29.152 175.01 29.152C174.743 29.152 174.495 29.12 174.266 29.056C174.042 28.9973 173.834 28.9173 173.642 28.816C173.45 28.7093 173.271 28.592 173.106 28.464L173.61 27.664ZM178.074 27.16C178.074 27.3573 178.117 27.528 178.202 27.672C178.287 27.8107 178.405 27.92 178.554 28C178.709 28.08 178.874 28.12 179.05 28.12C179.199 28.12 179.341 28.0987 179.474 28.056C179.613 28.008 179.738 27.944 179.85 27.864C179.967 27.784 180.063 27.6853 180.138 27.568V28.744C180.01 28.8453 179.85 28.928 179.658 28.992C179.466 29.0507 179.231 29.08 178.954 29.08C178.549 29.08 178.183 29 177.858 28.84C177.538 28.68 177.285 28.456 177.098 28.168C176.917 27.88 176.826 27.544 176.826 27.16C176.826 26.7707 176.917 26.4347 177.098 26.152C177.285 25.864 177.538 25.64 177.858 25.48C178.183 25.32 178.549 25.24 178.954 25.24C179.231 25.24 179.466 25.272 179.658 25.336C179.85 25.3947 180.01 25.4693 180.138 25.56V26.744C180.063 26.6267 179.965 26.528 179.842 26.448C179.725 26.368 179.597 26.3067 179.458 26.264C179.319 26.2213 179.183 26.2 179.05 26.2C178.874 26.2 178.709 26.2427 178.554 26.328C178.405 26.4133 178.287 26.528 178.202 26.672C178.117 26.816 178.074 26.9787 178.074 27.16ZM182.203 25.32V29H181.011V25.32H182.203ZM183.267 26.568C183.203 26.504 183.134 26.4533 183.059 26.416C182.99 26.3787 182.902 26.36 182.795 26.36C182.678 26.36 182.574 26.392 182.483 26.456C182.392 26.52 182.323 26.6133 182.275 26.736C182.227 26.8587 182.203 27.008 182.203 27.184L181.915 26.76C181.915 26.4667 181.971 26.2053 182.083 25.976C182.2 25.7467 182.352 25.5653 182.539 25.432C182.726 25.2987 182.92 25.232 183.123 25.232C183.256 25.232 183.384 25.2587 183.507 25.312C183.63 25.3653 183.723 25.44 183.787 25.536L183.267 26.568ZM184.228 23.936C184.228 23.744 184.297 23.5893 184.436 23.472C184.575 23.3493 184.74 23.288 184.932 23.288C185.129 23.288 185.295 23.3493 185.428 23.472C185.567 23.5893 185.636 23.744 185.636 23.936C185.636 24.128 185.567 24.2853 185.428 24.408C185.295 24.5307 185.129 24.592 184.932 24.592C184.74 24.592 184.575 24.5307 184.436 24.408C184.297 24.2853 184.228 24.128 184.228 23.936ZM184.348 25.32H185.516V29H184.348V25.32ZM187.711 30.76H186.503V25.32H187.711V30.76ZM190.719 27.16C190.719 27.5867 190.634 27.9467 190.463 28.24C190.298 28.5333 190.082 28.7547 189.815 28.904C189.554 29.0533 189.271 29.128 188.967 29.128C188.647 29.128 188.37 29.048 188.135 28.888C187.906 28.7227 187.73 28.4933 187.607 28.2C187.484 27.9013 187.423 27.5547 187.423 27.16C187.423 26.76 187.484 26.4133 187.607 26.12C187.73 25.8267 187.906 25.6 188.135 25.44C188.37 25.2747 188.647 25.192 188.967 25.192C189.271 25.192 189.554 25.2667 189.815 25.416C190.082 25.5653 190.298 25.7867 190.463 26.08C190.634 26.368 190.719 26.728 190.719 27.16ZM189.447 27.16C189.447 26.968 189.407 26.8053 189.327 26.672C189.247 26.5387 189.14 26.4373 189.007 26.368C188.874 26.2987 188.727 26.264 188.567 26.264C188.428 26.264 188.292 26.2987 188.159 26.368C188.031 26.432 187.924 26.5307 187.839 26.664C187.754 26.7973 187.711 26.9627 187.711 27.16C187.711 27.3573 187.754 27.5227 187.839 27.656C187.924 27.7893 188.031 27.8907 188.159 27.96C188.292 28.024 188.428 28.056 188.567 28.056C188.727 28.056 188.874 28.0213 189.007 27.952C189.14 27.8827 189.247 27.7813 189.327 27.648C189.407 27.5147 189.447 27.352 189.447 27.16ZM191.017 25.32H193.481V26.32H191.017V25.32ZM191.665 24.04H192.825V29H191.665V24.04Z" fill="black"/>
<g clip-path="url(#clip4_117_113)">
<path d="M164.937 0C164.418 0 164 0.418333 164 0.9375V19.0625C164 19.5817 164.418 20 164.937 20H183.062C183.582 20 184 19.5817 184 19.0625V0.9375C184 0.418333 183.582 0 183.062 0H164.937ZM179.407 8.125C179.917 8.125 180.368 8.15583 180.762 8.2175C181.134 8.2732 181.499 8.36818 181.851 8.50083V10.5492C181.682 10.4324 181.503 10.3317 181.315 10.2483C181.122 10.1613 180.922 10.0889 180.718 10.0317C180.33 9.92383 179.931 9.86778 179.529 9.865C179.279 9.865 179.052 9.88833 178.847 9.93667C178.664 9.97574 178.489 10.0438 178.328 10.1383C178.186 10.225 178.077 10.3292 178 10.45C177.922 10.5718 177.881 10.7137 177.883 10.8583C177.883 11.0217 177.927 11.1692 178.013 11.2992C178.1 11.4292 178.223 11.5525 178.383 11.6692C178.542 11.7858 178.735 11.8992 178.962 12.0108C179.19 12.1233 179.448 12.2392 179.734 12.3575C180.126 12.5217 180.477 12.6967 180.789 12.8808C181.101 13.0658 181.368 13.275 181.592 13.5083C181.815 13.7408 181.985 14.0067 182.103 14.3058C182.222 14.605 182.282 14.9525 182.282 15.35C182.282 15.8975 182.178 16.3583 181.971 16.73C181.769 17.0966 181.479 17.4072 181.127 17.6342C180.748 17.8745 180.328 18.0429 179.888 18.1308C179.417 18.2308 178.919 18.2808 178.397 18.2808C177.882 18.2831 177.369 18.2373 176.863 18.1442C176.426 18.0685 176.001 17.9301 175.603 17.7333V15.5417C176.356 16.1826 177.312 16.5368 178.301 16.5417C178.578 16.5417 178.821 16.5167 179.028 16.4667C179.235 16.4167 179.407 16.3467 179.547 16.2583C179.685 16.1683 179.788 16.0633 179.857 15.9417C179.934 15.8 179.969 15.6396 179.958 15.479C179.947 15.3184 179.891 15.1642 179.796 15.0342C179.672 14.8703 179.521 14.7293 179.348 14.6175C179.135 14.4759 178.91 14.3521 178.676 14.2475C178.399 14.1209 178.119 13.9997 177.837 13.8842C177.072 13.565 176.502 13.1742 176.126 12.7133C175.751 12.2525 175.562 11.695 175.562 11.0425C175.562 10.5308 175.665 10.0917 175.87 9.72417C176.075 9.35667 176.353 9.05417 176.707 8.81667C177.08 8.57012 177.495 8.39259 177.932 8.2925C178.415 8.17855 178.91 8.12232 179.407 8.125ZM166.812 8.28167H174.782V10.0867H171.922V18.125H169.657V10.0867H166.812V8.28167Z" fill="black"/>
</g>
<path d="M220.992 25.8615H222.392L224.144 28.3975H222.56L220.992 25.8615ZM219.592 22.7975H220.944V28.3975H219.592V22.7975ZM220.44 23.9415V22.7975H221.632C222.112 22.7975 222.512 22.8748 222.832 23.0295C223.152 23.1841 223.395 23.4001 223.56 23.6775C223.725 23.9495 223.808 24.2668 223.808 24.6295C223.808 24.9868 223.725 25.3041 223.56 25.5815C223.395 25.8535 223.152 26.0668 222.832 26.2215C222.512 26.3761 222.112 26.4535 221.632 26.4535H220.44V25.4055H221.536C221.717 25.4055 221.872 25.3788 222 25.3255C222.133 25.2668 222.235 25.1841 222.304 25.0775C222.373 24.9655 222.408 24.8321 222.408 24.6775C222.408 24.5228 222.373 24.3921 222.304 24.2855C222.235 24.1735 222.133 24.0881 222 24.0295C221.872 23.9708 221.717 23.9415 221.536 23.9415H220.44ZM226.524 28.4775C226.097 28.4775 225.726 28.4001 225.412 28.2455C225.102 28.0855 224.862 27.8615 224.692 27.5735C224.521 27.2855 224.436 26.9468 224.436 26.5575C224.436 26.1628 224.518 25.8215 224.684 25.5335C224.849 25.2455 225.086 25.0241 225.396 24.8695C225.71 24.7148 226.081 24.6375 226.508 24.6375C226.934 24.6375 227.294 24.7121 227.588 24.8615C227.881 25.0055 228.105 25.2161 228.26 25.4935C228.414 25.7708 228.492 26.1068 228.492 26.5015C228.492 26.5601 228.492 26.6188 228.492 26.6775C228.492 26.7308 228.486 26.7761 228.476 26.8135H225.116V26.1415H227.388L227.1 26.5095C227.126 26.4721 227.148 26.4268 227.164 26.3735C227.185 26.3148 227.196 26.2668 227.196 26.2295C227.196 26.0695 227.166 25.9308 227.108 25.8135C227.049 25.6961 226.966 25.6055 226.86 25.5415C226.753 25.4775 226.628 25.4455 226.484 25.4455C226.302 25.4455 226.15 25.4855 226.028 25.5655C225.905 25.6455 225.812 25.7681 225.748 25.9335C225.689 26.0935 225.657 26.2961 225.652 26.5415C225.652 26.7655 225.684 26.9575 225.748 27.1175C225.812 27.2775 225.908 27.4001 226.036 27.4855C226.164 27.5655 226.321 27.6055 226.508 27.6055C226.721 27.6055 226.902 27.5655 227.052 27.4855C227.206 27.4055 227.329 27.2855 227.42 27.1255L228.5 27.3895C228.308 27.7521 228.046 28.0241 227.716 28.2055C227.39 28.3868 226.993 28.4775 226.524 28.4775ZM230.174 27.2455C230.174 27.3415 230.198 27.4241 230.246 27.4935C230.294 27.5575 230.358 27.6081 230.438 27.6455C230.518 27.6775 230.606 27.6935 230.702 27.6935C230.84 27.6935 230.968 27.6641 231.086 27.6055C231.203 27.5468 231.299 27.4588 231.374 27.3415C231.448 27.2241 231.486 27.0801 231.486 26.9095L231.614 27.3895C231.614 27.6241 231.55 27.8241 231.422 27.9895C231.294 28.1495 231.128 28.2721 230.926 28.3575C230.723 28.4375 230.504 28.4775 230.27 28.4775C230.035 28.4775 229.816 28.4348 229.614 28.3495C229.416 28.2588 229.256 28.1255 229.134 27.9495C229.016 27.7735 228.958 27.5601 228.958 27.3095C228.958 26.9575 229.083 26.6801 229.334 26.4775C229.584 26.2695 229.939 26.1655 230.398 26.1655C230.622 26.1655 230.822 26.1868 230.998 26.2295C231.179 26.2721 231.334 26.3255 231.462 26.3895C231.59 26.4535 231.686 26.5201 231.75 26.5895V27.1255C231.622 27.0295 231.472 26.9575 231.302 26.9095C231.136 26.8561 230.96 26.8295 230.774 26.8295C230.63 26.8295 230.515 26.8455 230.43 26.8775C230.344 26.9095 230.28 26.9575 230.238 27.0215C230.195 27.0801 230.174 27.1548 230.174 27.2455ZM229.638 25.8455L229.23 25.0375C229.438 24.9361 229.688 24.8401 229.982 24.7495C230.275 24.6588 230.595 24.6135 230.942 24.6135C231.267 24.6135 231.558 24.6615 231.814 24.7575C232.07 24.8481 232.272 24.9815 232.422 25.1575C232.571 25.3335 232.646 25.5495 232.646 25.8055V28.3975H231.486V26.0775C231.486 25.9868 231.47 25.9095 231.438 25.8455C231.411 25.7761 231.368 25.7175 231.31 25.6695C231.251 25.6215 231.176 25.5868 231.086 25.5655C231 25.5441 230.902 25.5335 230.79 25.5335C230.624 25.5335 230.462 25.5521 230.302 25.5895C230.147 25.6268 230.011 25.6721 229.894 25.7255C229.776 25.7735 229.691 25.8135 229.638 25.8455ZM234.566 26.5575C234.566 26.7548 234.609 26.9255 234.694 27.0695C234.779 27.2081 234.897 27.3175 235.046 27.3975C235.201 27.4775 235.366 27.5175 235.542 27.5175C235.691 27.5175 235.833 27.4961 235.966 27.4535C236.105 27.4055 236.23 27.3415 236.342 27.2615C236.459 27.1815 236.555 27.0828 236.63 26.9655V28.1415C236.502 28.2428 236.342 28.3255 236.15 28.3895C235.958 28.4481 235.723 28.4775 235.446 28.4775C235.041 28.4775 234.675 28.3975 234.35 28.2375C234.03 28.0775 233.777 27.8535 233.59 27.5655C233.409 27.2775 233.318 26.9415 233.318 26.5575C233.318 26.1681 233.409 25.8321 233.59 25.5495C233.777 25.2615 234.03 25.0375 234.35 24.8775C234.675 24.7175 235.041 24.6375 235.446 24.6375C235.723 24.6375 235.958 24.6695 236.15 24.7335C236.342 24.7921 236.502 24.8668 236.63 24.9575V26.1415C236.555 26.0241 236.457 25.9255 236.334 25.8455C236.217 25.7655 236.089 25.7041 235.95 25.6615C235.811 25.6188 235.675 25.5975 235.542 25.5975C235.366 25.5975 235.201 25.6401 235.046 25.7255C234.897 25.8108 234.779 25.9255 234.694 26.0695C234.609 26.2135 234.566 26.3761 234.566 26.5575ZM237.071 24.7175H239.535V25.7175H237.071V24.7175ZM237.719 23.4375H238.879V28.3975H237.719V23.4375Z" fill="black"/>
<path d="M230.361 9.38985C230.361 10.1669 229.731 10.7969 228.954 10.7969C228.177 10.7969 227.547 10.1669 227.547 9.38985C227.547 8.61279 228.177 7.98279 228.954 7.98279C229.731 7.98279 230.361 8.61279 230.361 9.38985Z" fill="black"/>
<path d="M228.954 14.5639C230.059 15.6381 231.148 16.2733 232.025 16.2733C232.313 16.2733 232.585 16.2128 232.812 16.0769C233.598 15.6228 233.886 14.4881 233.614 12.8692C233.568 12.5816 233.508 12.2945 233.432 11.9916C233.734 11.901 234.006 11.8098 234.279 11.7192C235.807 11.1292 236.654 10.3122 236.654 9.41982C236.654 8.51217 235.807 7.69511 234.279 7.12041C234.006 7.01453 233.734 6.92394 233.432 6.84806C233.508 6.5457 233.568 6.25805 233.614 5.97041C233.871 4.32158 233.584 3.17158 232.796 2.71747C232.569 2.58158 232.297 2.521 232.01 2.521C231.148 2.521 230.043 3.15629 228.939 4.23041C227.849 3.15629 226.76 2.521 225.883 2.521C225.595 2.521 225.323 2.58158 225.096 2.71747C224.31 3.17158 224.022 4.30629 224.295 5.92511C224.34 6.21276 224.401 6.49982 224.476 6.80276C224.174 6.89335 223.902 6.98453 223.629 7.07511C222.101 7.66511 221.254 8.48217 221.254 9.37453C221.254 10.2822 222.101 11.0992 223.629 11.6739C223.902 11.7798 224.174 11.8704 224.476 11.9463C224.401 12.2486 224.34 12.5363 224.295 12.8239C224.038 14.4428 224.325 15.5928 225.096 16.0316C225.324 16.1681 225.596 16.2281 225.883 16.2281C226.761 16.2581 227.85 15.6228 228.954 14.5639ZM228.106 12.5216C228.379 12.5369 228.666 12.5369 228.954 12.5369C229.241 12.5369 229.528 12.5369 229.801 12.5216C229.528 12.8845 229.241 13.2175 228.954 13.5351C228.666 13.2175 228.379 12.8845 228.106 12.5216ZM226.231 10.9634C226.382 11.2204 226.518 11.4628 226.685 11.7045C226.216 11.6439 225.777 11.5681 225.354 11.4775C225.49 11.0692 225.641 10.6451 225.822 10.2216C225.944 10.4633 226.079 10.721 226.231 10.9628V10.9634ZM225.353 7.31688C225.776 7.22629 226.215 7.15041 226.684 7.08982C226.533 7.33217 226.382 7.57394 226.23 7.831C226.078 8.08806 225.942 8.33041 225.822 8.58747C225.625 8.14864 225.474 7.7257 225.353 7.31688ZM226.185 9.38982C226.382 8.98158 226.594 8.57276 226.836 8.16453C227.063 7.771 227.32 7.37806 227.577 6.98453C228.031 6.95453 228.485 6.93923 228.954 6.93923C229.438 6.93923 229.892 6.95453 230.331 6.98453C230.604 7.37806 230.845 7.771 231.072 8.16453C231.315 8.57276 231.526 8.98158 231.723 9.38982C231.526 9.79806 231.315 10.2069 231.072 10.6151C230.845 11.0086 230.588 11.4016 230.331 11.7951C229.877 11.8251 229.424 11.8404 228.954 11.8404C228.47 11.8404 228.016 11.8251 227.577 11.7951C227.305 11.4016 227.063 11.0086 226.836 10.6151C226.594 10.2063 226.382 9.79806 226.185 9.38982ZM232.101 8.57276L231.693 7.81629C231.542 7.55923 231.405 7.31688 231.239 7.07511C231.708 7.1357 232.146 7.21158 232.57 7.30217C232.434 7.7257 232.282 8.14864 232.101 8.57276ZM232.101 10.2069C232.283 10.6304 232.434 11.0539 232.57 11.4628C232.146 11.5533 231.708 11.6292 231.239 11.6898C231.39 11.4475 231.541 11.2057 231.693 10.9486C231.829 10.7216 231.965 10.4645 232.101 10.2075V10.2069ZM232.449 15.4569C232.328 15.5328 232.176 15.5628 232.01 15.5628C231.269 15.5628 230.346 14.9575 229.438 14.0498C229.877 13.581 230.301 13.051 230.724 12.461C231.435 12.4004 232.116 12.2945 232.752 12.1433C232.828 12.4157 232.873 12.6881 232.918 12.9604C233.13 14.2463 232.963 15.1692 232.449 15.4569ZM233.236 7.48335C234.931 7.96747 235.944 8.70864 235.944 9.38982C235.944 9.97982 235.248 10.5698 234.023 11.0392C233.781 11.1298 233.509 11.221 233.236 11.2963C233.04 10.6757 232.798 10.0404 232.495 9.38982C232.798 8.73923 233.055 8.10394 233.236 7.48335ZM232.025 3.21688C232.192 3.21688 232.328 3.24688 232.464 3.32276C232.964 3.61041 233.145 4.51805 232.933 5.81923C232.888 6.07629 232.827 6.34864 232.766 6.63629C232.131 6.49982 231.45 6.39394 230.739 6.31864C230.331 5.72864 229.892 5.19923 229.453 4.72982C230.361 3.83688 231.284 3.21688 232.025 3.21688ZM229.801 6.25806C229.529 6.24276 229.241 6.24276 228.954 6.24276C228.667 6.24276 228.379 6.24276 228.107 6.25806C228.379 5.89511 228.667 5.56217 228.954 5.24453C229.242 5.56217 229.529 5.91041 229.801 6.25806ZM225.459 3.32276C225.58 3.24688 225.731 3.21688 225.898 3.21688C226.639 3.21688 227.562 3.82217 228.469 4.72982C228.031 5.19864 227.607 5.72805 227.184 6.31864C226.472 6.37923 225.792 6.48511 225.156 6.63629C225.08 6.36394 225.035 6.09158 224.989 5.81923C224.778 4.53335 224.945 3.6257 225.459 3.32276ZM224.672 11.2963C222.978 10.8122 221.964 10.071 221.964 9.38982C221.964 8.79982 222.66 8.20982 223.885 7.741C224.128 7.65041 224.399 7.55923 224.672 7.48394C224.868 8.10453 225.111 8.73982 225.413 9.39041C225.111 10.041 224.853 10.6916 224.672 11.2969L224.672 11.2963ZM224.99 12.9604C225.035 12.7033 225.096 12.431 225.156 12.1433C225.792 12.2798 226.473 12.3857 227.184 12.461C227.592 13.051 228.031 13.5804 228.47 14.0498C227.562 14.9422 226.639 15.5628 225.898 15.5628C225.732 15.5628 225.596 15.5328 225.459 15.4569C224.945 15.1692 224.779 14.2463 224.991 12.9604H224.99Z" fill="black"/>
<path d="M92.424 28.9095C92.504 28.9788 92.6027 29.0375 92.72 29.0855C92.8373 29.1388 92.9547 29.1655 93.072 29.1655C93.1947 29.1655 93.312 29.1175 93.424 29.0215C93.536 28.9255 93.592 28.7601 93.592 28.5255V22.7975H95.048V28.8295C95.048 29.0961 95 29.3228 94.904 29.5095C94.808 29.7015 94.6747 29.8535 94.504 29.9655C94.3333 30.0828 94.136 30.1681 93.912 30.2215C93.688 30.2801 93.4533 30.3095 93.208 30.3095C93 30.3095 92.8 30.2855 92.608 30.2375C92.416 30.1895 92.2427 30.1308 92.088 30.0615C91.9333 29.9975 91.8 29.9281 91.688 29.8535L92.424 28.9095ZM97.0486 27.2455C97.0486 27.3415 97.0726 27.4241 97.1206 27.4935C97.1686 27.5575 97.2326 27.6081 97.3126 27.6455C97.3926 27.6775 97.4806 27.6935 97.5766 27.6935C97.7153 27.6935 97.8433 27.6641 97.9606 27.6055C98.078 27.5468 98.174 27.4588 98.2486 27.3415C98.3233 27.2241 98.3606 27.0801 98.3606 26.9095L98.4886 27.3895C98.4886 27.6241 98.4246 27.8241 98.2966 27.9895C98.1686 28.1495 98.0033 28.2721 97.8006 28.3575C97.598 28.4375 97.3793 28.4775 97.1446 28.4775C96.91 28.4775 96.6913 28.4348 96.4886 28.3495C96.2913 28.2588 96.1313 28.1255 96.0086 27.9495C95.8913 27.7735 95.8326 27.5601 95.8326 27.3095C95.8326 26.9575 95.958 26.6801 96.2086 26.4775C96.4593 26.2695 96.814 26.1655 97.2726 26.1655C97.4966 26.1655 97.6966 26.1868 97.8726 26.2295C98.054 26.2721 98.2086 26.3255 98.3366 26.3895C98.4646 26.4535 98.5606 26.5201 98.6246 26.5895V27.1255C98.4966 27.0295 98.3473 26.9575 98.1766 26.9095C98.0113 26.8561 97.8353 26.8295 97.6486 26.8295C97.5046 26.8295 97.39 26.8455 97.3046 26.8775C97.2193 26.9095 97.1553 26.9575 97.1126 27.0215C97.07 27.0801 97.0486 27.1548 97.0486 27.2455ZM96.5126 25.8455L96.1046 25.0375C96.3126 24.9361 96.5633 24.8401 96.8566 24.7495C97.15 24.6588 97.47 24.6135 97.8166 24.6135C98.142 24.6135 98.4326 24.6615 98.6886 24.7575C98.9446 24.8481 99.1473 24.9815 99.2966 25.1575C99.446 25.3335 99.5206 25.5495 99.5206 25.8055V28.3975H98.3606V26.0775C98.3606 25.9868 98.3446 25.9095 98.3126 25.8455C98.286 25.7761 98.2433 25.7175 98.1846 25.6695C98.126 25.6215 98.0513 25.5868 97.9606 25.5655C97.8753 25.5441 97.7766 25.5335 97.6646 25.5335C97.4993 25.5335 97.3366 25.5521 97.1766 25.5895C97.022 25.6268 96.886 25.6721 96.7686 25.7255C96.6513 25.7735 96.566 25.8135 96.5126 25.8455ZM99.8901 24.7175H101.178L102.026 26.7575L102.866 24.7175H104.154L102.026 28.8295L99.8901 24.7175ZM105.541 27.2455C105.541 27.3415 105.565 27.4241 105.613 27.4935C105.661 27.5575 105.725 27.6081 105.805 27.6455C105.885 27.6775 105.973 27.6935 106.069 27.6935C106.207 27.6935 106.335 27.6641 106.453 27.6055C106.57 27.5468 106.666 27.4588 106.741 27.3415C106.815 27.2241 106.853 27.0801 106.853 26.9095L106.981 27.3895C106.981 27.6241 106.917 27.8241 106.789 27.9895C106.661 28.1495 106.495 28.2721 106.293 28.3575C106.09 28.4375 105.871 28.4775 105.637 28.4775C105.402 28.4775 105.183 28.4348 104.981 28.3495C104.783 28.2588 104.623 28.1255 104.501 27.9495C104.383 27.7735 104.325 27.5601 104.325 27.3095C104.325 26.9575 104.45 26.6801 104.701 26.4775C104.951 26.2695 105.306 26.1655 105.765 26.1655C105.989 26.1655 106.189 26.1868 106.365 26.2295C106.546 26.2721 106.701 26.3255 106.829 26.3895C106.957 26.4535 107.053 26.5201 107.117 26.5895V27.1255C106.989 27.0295 106.839 26.9575 106.669 26.9095C106.503 26.8561 106.327 26.8295 106.141 26.8295C105.997 26.8295 105.882 26.8455 105.797 26.8775C105.711 26.9095 105.647 26.9575 105.605 27.0215C105.562 27.0801 105.541 27.1548 105.541 27.2455ZM105.005 25.8455L104.597 25.0375C104.805 24.9361 105.055 24.8401 105.349 24.7495C105.642 24.6588 105.962 24.6135 106.309 24.6135C106.634 24.6135 106.925 24.6615 107.181 24.7575C107.437 24.8481 107.639 24.9815 107.789 25.1575C107.938 25.3335 108.013 25.5495 108.013 25.8055V28.3975H106.853V26.0775C106.853 25.9868 106.837 25.9095 106.805 25.8455C106.778 25.7761 106.735 25.7175 106.677 25.6695C106.618 25.6215 106.543 25.5868 106.453 25.5655C106.367 25.5441 106.269 25.5335 106.157 25.5335C105.991 25.5335 105.829 25.5521 105.669 25.5895C105.514 25.6268 105.378 25.6721 105.261 25.7255C105.143 25.7735 105.058 25.8135 105.005 25.8455ZM109.117 27.0615C109.304 27.2161 109.472 27.3388 109.621 27.4295C109.776 27.5148 109.912 27.5761 110.029 27.6135C110.147 27.6455 110.248 27.6615 110.333 27.6615C110.456 27.6615 110.547 27.6348 110.605 27.5815C110.664 27.5281 110.693 27.4588 110.693 27.3735C110.693 27.2935 110.669 27.2268 110.621 27.1735C110.573 27.1148 110.491 27.0588 110.373 27.0055C110.261 26.9521 110.107 26.8961 109.909 26.8375C109.733 26.7735 109.565 26.6988 109.405 26.6135C109.251 26.5228 109.123 26.4028 109.021 26.2535C108.92 26.1041 108.869 25.9121 108.869 25.6775C108.869 25.4535 108.928 25.2641 109.045 25.1095C109.168 24.9548 109.331 24.8375 109.533 24.7575C109.741 24.6775 109.979 24.6375 110.245 24.6375C110.459 24.6375 110.656 24.6615 110.837 24.7095C111.024 24.7575 111.197 24.8215 111.357 24.9015C111.523 24.9815 111.677 25.0748 111.821 25.1815L111.389 25.9655C111.235 25.8215 111.059 25.7041 110.861 25.6135C110.664 25.5175 110.483 25.4695 110.317 25.4695C110.205 25.4695 110.12 25.4908 110.061 25.5335C110.008 25.5761 109.981 25.6321 109.981 25.7015C109.981 25.7815 110.013 25.8481 110.077 25.9015C110.147 25.9548 110.243 26.0055 110.365 26.0535C110.493 26.0961 110.648 26.1521 110.829 26.2215C111.021 26.2908 111.197 26.3708 111.357 26.4615C111.523 26.5521 111.653 26.6668 111.749 26.8055C111.851 26.9441 111.901 27.1281 111.901 27.3575C111.901 27.7521 111.779 28.0508 111.533 28.2535C111.293 28.4508 110.955 28.5495 110.517 28.5495C110.251 28.5495 110.003 28.5175 109.773 28.4535C109.549 28.3948 109.341 28.3148 109.149 28.2135C108.957 28.1068 108.779 27.9895 108.613 27.8615L109.117 27.0615ZM113.582 26.5575C113.582 26.7548 113.624 26.9255 113.71 27.0695C113.795 27.2081 113.912 27.3175 114.062 27.3975C114.216 27.4775 114.382 27.5175 114.558 27.5175C114.707 27.5175 114.848 27.4961 114.982 27.4535C115.12 27.4055 115.246 27.3415 115.358 27.2615C115.475 27.1815 115.571 27.0828 115.646 26.9655V28.1415C115.518 28.2428 115.358 28.3255 115.166 28.3895C114.974 28.4481 114.739 28.4775 114.462 28.4775C114.056 28.4775 113.691 28.3975 113.366 28.2375C113.046 28.0775 112.792 27.8535 112.606 27.5655C112.424 27.2775 112.334 26.9415 112.334 26.5575C112.334 26.1681 112.424 25.8321 112.606 25.5495C112.792 25.2615 113.046 25.0375 113.366 24.8775C113.691 24.7175 114.056 24.6375 114.462 24.6375C114.739 24.6375 114.974 24.6695 115.166 24.7335C115.358 24.7921 115.518 24.8668 115.646 24.9575V26.1415C115.571 26.0241 115.472 25.9255 115.35 25.8455C115.232 25.7655 115.104 25.7041 114.966 25.6615C114.827 25.6188 114.691 25.5975 114.558 25.5975C114.382 25.5975 114.216 25.6401 114.062 25.7255C113.912 25.8108 113.795 25.9255 113.71 26.0695C113.624 26.2135 113.582 26.3761 113.582 26.5575ZM117.711 24.7175V28.3975H116.519V24.7175H117.711ZM118.775 25.9655C118.711 25.9015 118.642 25.8508 118.567 25.8135C118.498 25.7761 118.41 25.7575 118.303 25.7575C118.186 25.7575 118.082 25.7895 117.991 25.8535C117.9 25.9175 117.831 26.0108 117.783 26.1335C117.735 26.2561 117.711 26.4055 117.711 26.5815L117.423 26.1575C117.423 25.8641 117.479 25.6028 117.591 25.3735C117.708 25.1441 117.86 24.9628 118.047 24.8295C118.234 24.6961 118.428 24.6295 118.631 24.6295C118.764 24.6295 118.892 24.6561 119.015 24.7095C119.138 24.7628 119.231 24.8375 119.295 24.9335L118.775 25.9655ZM119.736 23.3335C119.736 23.1415 119.805 22.9868 119.944 22.8695C120.083 22.7468 120.248 22.6855 120.44 22.6855C120.637 22.6855 120.803 22.7468 120.936 22.8695C121.075 22.9868 121.144 23.1415 121.144 23.3335C121.144 23.5255 121.075 23.6828 120.936 23.8055C120.803 23.9281 120.637 23.9895 120.44 23.9895C120.248 23.9895 120.083 23.9281 119.944 23.8055C119.805 23.6828 119.736 23.5255 119.736 23.3335ZM119.856 24.7175H121.024V28.3975H119.856V24.7175ZM123.219 30.1575H122.011V24.7175H123.219V30.1575ZM126.227 26.5575C126.227 26.9841 126.142 27.3441 125.971 27.6375C125.806 27.9308 125.59 28.1521 125.323 28.3015C125.062 28.4508 124.779 28.5255 124.475 28.5255C124.155 28.5255 123.878 28.4455 123.643 28.2855C123.414 28.1201 123.238 27.8908 123.115 27.5975C122.992 27.2988 122.931 26.9521 122.931 26.5575C122.931 26.1575 122.992 25.8108 123.115 25.5175C123.238 25.2241 123.414 24.9975 123.643 24.8375C123.878 24.6721 124.155 24.5895 124.475 24.5895C124.779 24.5895 125.062 24.6641 125.323 24.8135C125.59 24.9628 125.806 25.1841 125.971 25.4775C126.142 25.7655 126.227 26.1255 126.227 26.5575ZM124.955 26.5575C124.955 26.3655 124.915 26.2028 124.835 26.0695C124.755 25.9361 124.648 25.8348 124.515 25.7655C124.382 25.6961 124.235 25.6615 124.075 25.6615C123.936 25.6615 123.8 25.6961 123.667 25.7655C123.539 25.8295 123.432 25.9281 123.347 26.0615C123.262 26.1948 123.219 26.3601 123.219 26.5575C123.219 26.7548 123.262 26.9201 123.347 27.0535C123.432 27.1868 123.539 27.2881 123.667 27.3575C123.8 27.4215 123.936 27.4535 124.075 27.4535C124.235 27.4535 124.382 27.4188 124.515 27.3495C124.648 27.2801 124.755 27.1788 124.835 27.0455C124.915 26.9121 124.955 26.7495 124.955 26.5575ZM126.524 24.7175H128.988V25.7175H126.524V24.7175ZM127.172 23.4375H128.332V28.3975H127.172V23.4375Z" fill="black"/>
<path d="M102.25 0.647461V18.1475H119.75V0.647461H102.25ZM111.625 14.2412C111.625 15.9447 110.619 16.7752 109.162 16.7752C107.846 16.7752 107.083 16.0939 106.695 15.2717L108.034 14.4611C108.293 14.9193 108.489 15.3068 109.052 15.3068C109.521 15.3068 109.906 15.0955 109.906 14.2732V8.77246H111.625V14.2412ZM115.506 16.7361C113.979 16.7361 112.992 16.0471 112.511 15.0955L113.852 14.3193C114.203 14.8951 114.662 15.2787 115.473 15.2787C116.154 15.2787 116.55 14.9771 116.55 14.5072C116.55 13.9436 116.142 13.7439 115.39 13.4135L114.979 13.2369C113.793 12.7322 113.006 12.0979 113.006 10.7584C113.006 9.5252 113.945 8.62441 115.414 8.62441C116.459 8.62441 117.211 8.94941 117.752 9.90098L116.469 10.7256C116.187 10.2205 115.883 10.0225 115.412 10.0225C114.93 10.0225 114.625 10.3279 114.625 10.7256C114.625 11.2189 114.93 11.4186 115.635 11.724L116.046 11.9002C117.444 12.4994 118.231 13.1111 118.231 14.4846C118.231 15.965 117.068 16.7361 115.506 16.7361Z" fill="black"/>
<path d="M51.744 25.5975C51.744 25.9388 51.8213 26.2348 51.976 26.4855C52.1307 26.7308 52.3333 26.9175 52.584 27.0455C52.84 27.1735 53.12 27.2375 53.424 27.2375C53.6907 27.2375 53.9253 27.2028 54.128 27.1335C54.3307 27.0641 54.512 26.9735 54.672 26.8615C54.832 26.7495 54.9733 26.6295 55.096 26.5015V27.9575C54.872 28.1335 54.6267 28.2721 54.36 28.3735C54.0933 28.4748 53.7547 28.5255 53.344 28.5255C52.896 28.5255 52.4827 28.4561 52.104 28.3175C51.7253 28.1788 51.4 27.9788 51.128 27.7175C50.856 27.4561 50.6453 27.1468 50.496 26.7895C50.3467 26.4321 50.272 26.0348 50.272 25.5975C50.272 25.1601 50.3467 24.7628 50.496 24.4055C50.6453 24.0481 50.856 23.7388 51.128 23.4775C51.4 23.2161 51.7253 23.0161 52.104 22.8775C52.4827 22.7388 52.896 22.6695 53.344 22.6695C53.7547 22.6695 54.0933 22.7201 54.36 22.8215C54.6267 22.9228 54.872 23.0615 55.096 23.2375V24.6935C54.9733 24.5655 54.832 24.4455 54.672 24.3335C54.512 24.2161 54.3307 24.1255 54.128 24.0615C53.9253 23.9921 53.6907 23.9575 53.424 23.9575C53.12 23.9575 52.84 24.0215 52.584 24.1495C52.3333 24.2775 52.1307 24.4641 51.976 24.7095C51.8213 24.9548 51.744 25.2508 51.744 25.5975ZM56.8174 26.4295C56.9294 26.6321 57.0547 26.8081 57.1934 26.9575C57.3374 27.1068 57.492 27.2215 57.6574 27.3015C57.828 27.3815 58.0067 27.4215 58.1934 27.4215C58.3907 27.4215 58.5534 27.3735 58.6814 27.2775C58.8094 27.1761 58.8734 27.0401 58.8734 26.8695C58.8734 26.7255 58.836 26.6108 58.7614 26.5255C58.6867 26.4348 58.5667 26.3495 58.4014 26.2695C58.236 26.1895 58.0174 26.0988 57.7454 25.9975C57.612 25.9495 57.4574 25.8828 57.2814 25.7975C57.1107 25.7121 56.948 25.6028 56.7934 25.4695C56.6387 25.3308 56.5107 25.1655 56.4094 24.9735C56.308 24.7761 56.2574 24.5388 56.2574 24.2615C56.2574 23.9308 56.3427 23.6455 56.5134 23.4055C56.6894 23.1655 56.924 22.9841 57.2174 22.8615C57.516 22.7335 57.8467 22.6695 58.2094 22.6695C58.5827 22.6695 58.9054 22.7308 59.1774 22.8535C59.4547 22.9761 59.684 23.1308 59.8654 23.3175C60.0467 23.5041 60.1854 23.6935 60.2814 23.8855L59.2494 24.4615C59.1694 24.3281 59.076 24.2135 58.9694 24.1175C58.868 24.0161 58.7534 23.9388 58.6254 23.8855C58.5027 23.8268 58.3694 23.7975 58.2254 23.7975C58.0334 23.7975 57.8867 23.8401 57.7854 23.9255C57.684 24.0055 57.6334 24.1068 57.6334 24.2295C57.6334 24.3575 57.6814 24.4695 57.7774 24.5655C57.8787 24.6615 58.02 24.7495 58.2014 24.8295C58.388 24.9095 58.612 24.9948 58.8734 25.0855C59.0707 25.1601 59.2547 25.2481 59.4254 25.3495C59.596 25.4455 59.7454 25.5628 59.8734 25.7015C60.0067 25.8401 60.1107 26.0001 60.1854 26.1815C60.26 26.3628 60.2974 26.5708 60.2974 26.8055C60.2974 27.0881 60.2387 27.3415 60.1214 27.5655C60.0094 27.7841 59.8547 27.9681 59.6574 28.1175C59.4654 28.2668 59.244 28.3788 58.9934 28.4535C58.748 28.5335 58.4947 28.5735 58.2334 28.5735C57.8707 28.5735 57.532 28.5095 57.2174 28.3815C56.908 28.2481 56.6387 28.0695 56.4094 27.8455C56.18 27.6215 56.0014 27.3761 55.8734 27.1095L56.8174 26.4295ZM61.8174 26.4295C61.9294 26.6321 62.0547 26.8081 62.1934 26.9575C62.3374 27.1068 62.492 27.2215 62.6574 27.3015C62.828 27.3815 63.0067 27.4215 63.1934 27.4215C63.3907 27.4215 63.5534 27.3735 63.6814 27.2775C63.8094 27.1761 63.8734 27.0401 63.8734 26.8695C63.8734 26.7255 63.836 26.6108 63.7614 26.5255C63.6867 26.4348 63.5667 26.3495 63.4014 26.2695C63.236 26.1895 63.0174 26.0988 62.7454 25.9975C62.612 25.9495 62.4574 25.8828 62.2814 25.7975C62.1107 25.7121 61.948 25.6028 61.7934 25.4695C61.6387 25.3308 61.5107 25.1655 61.4094 24.9735C61.308 24.7761 61.2574 24.5388 61.2574 24.2615C61.2574 23.9308 61.3427 23.6455 61.5134 23.4055C61.6894 23.1655 61.924 22.9841 62.2174 22.8615C62.516 22.7335 62.8467 22.6695 63.2094 22.6695C63.5827 22.6695 63.9054 22.7308 64.1774 22.8535C64.4547 22.9761 64.684 23.1308 64.8654 23.3175C65.0467 23.5041 65.1854 23.6935 65.2814 23.8855L64.2494 24.4615C64.1694 24.3281 64.076 24.2135 63.9694 24.1175C63.868 24.0161 63.7534 23.9388 63.6254 23.8855C63.5027 23.8268 63.3694 23.7975 63.2254 23.7975C63.0334 23.7975 62.8867 23.8401 62.7854 23.9255C62.684 24.0055 62.6334 24.1068 62.6334 24.2295C62.6334 24.3575 62.6814 24.4695 62.7774 24.5655C62.8787 24.6615 63.02 24.7495 63.2014 24.8295C63.388 24.9095 63.612 24.9948 63.8734 25.0855C64.0707 25.1601 64.2547 25.2481 64.4254 25.3495C64.596 25.4455 64.7454 25.5628 64.8734 25.7015C65.0067 25.8401 65.1107 26.0001 65.1854 26.1815C65.26 26.3628 65.2974 26.5708 65.2974 26.8055C65.2974 27.0881 65.2387 27.3415 65.1214 27.5655C65.0094 27.7841 64.8547 27.9681 64.6574 28.1175C64.4654 28.2668 64.244 28.3788 63.9934 28.4535C63.748 28.5335 63.4947 28.5735 63.2334 28.5735C62.8707 28.5735 62.532 28.5095 62.2174 28.3815C61.908 28.2481 61.6387 28.0695 61.4094 27.8455C61.18 27.6215 61.0014 27.3761 60.8734 27.1095L61.8174 26.4295Z" fill="black"/>
<path d="M50.9644 1.5968L52.245 15.9599L57.9912 17.5549L63.7537 15.9574L65.0356 1.5968H50.9644ZM62.375 4.8818L61.9419 9.73618L61.6419 13.0856L61.6156 13.3831L58.0025 14.3849L54.3944 13.3831L54.1475 10.6168H55.9156L56.0412 12.0218L58.005 12.5512L58.0106 12.5499L59.97 12.0212L60.1756 9.7368H56.0637L56.0287 9.34118L55.9481 8.44805L55.9062 7.97555H60.3319L60.4931 6.1718H53.7519L53.7169 5.77555L53.6362 4.88243L53.5944 4.40993H62.4181L62.3756 4.88243L62.375 4.8818Z" fill="black"/>
<path d="M0.968 26.0535V24.8375H5.208V26.0535H0.968ZM4.352 22.7975H5.704V28.3975H4.352V22.7975ZM0.592 22.7975H1.944V28.3975H0.592V22.7975ZM6.32106 24.0055V22.7975H10.7531V24.0055H9.20906V28.3975H7.85706V24.0055H6.32106ZM12.8054 25.5415L12.4694 28.3975H11.0454L11.9494 22.5175L14.3334 25.9335L16.7254 22.5175L17.6294 28.3975H16.2054L15.8694 25.5415L14.3334 27.8775L12.8054 25.5415ZM18.4904 22.7975H19.8424V27.2375H22.0904V28.3975H18.4904V22.7975Z" fill="black"/>
<path d="M3.83594 1.27246L5.125 15.8545L11 17.5225L16.8516 15.8545L18.166 1.27246H3.83594ZM15.457 4.73145L15.3633 5.65332L15.3301 6.03418H8.4668L8.62695 7.87402H15.1719L15.1074 8.34863L14.6934 13.0791L14.6602 13.3955L11.0078 14.4033V14.4092H10.9844L10.9785 14.4111V14.4092H10.9766L7.29297 13.3936L7.07031 10.5693H8.84961L8.97656 11.999L10.9766 12.54H10.9844L12.9766 12.001L13.1992 9.68457H10.9785V9.68262H6.97656L6.53125 4.73145L6.49805 4.25684H15.4883L15.457 4.73145Z" fill="black"/>
</g>
<defs>
<clipPath id="clip0_117_113">
<rect width="660" height="31" fill="white"/>
</clipPath>
<clipPath id="clip1_117_113">
<rect width="20" height="20" fill="white" transform="translate(627 0.397461)"/>
</clipPath>
<clipPath id="clip2_117_113">
<rect width="20" height="20" fill="white" transform="translate(473 0.397461)"/>
</clipPath>
<clipPath id="clip3_117_113">
<rect width="20" height="20" fill="white" transform="translate(377 0.397461)"/>
</clipPath>
<clipPath id="clip4_117_113">
<rect width="20" height="20" fill="white" transform="translate(164)"/>
</clipPath>
</defs>
</svg>
