<svg width="24" height="23" viewBox="0 0 24 23" fill="none" xmlns="http://www.w3.org/2000/svg">
<g clip-path="url(#clip0_84_155)">
<path d="M11.7279 0.285156C5.37416 0.285156 0.227905 5.43428 0.227905 11.7852C0.227905 16.8672 3.52266 21.1768 8.09103 22.6958C8.66603 22.8041 8.87686 22.4485 8.87686 22.1428C8.87686 21.8697 8.86728 21.1462 8.86249 20.1878C5.66357 20.8817 4.9889 18.6449 4.9889 18.6449C4.46566 17.3176 3.70953 16.963 3.70953 16.963C2.66782 16.25 3.79003 16.2644 3.79003 16.2644C4.94482 16.3449 5.55145 17.4489 5.55145 17.4489C6.57686 19.2074 8.24341 18.6995 8.90082 18.4053C9.00432 17.6617 9.30045 17.1547 9.62916 16.8672C7.0752 16.5797 4.3909 15.5907 4.3909 11.1843C4.3909 9.92886 4.83653 8.90345 5.57445 8.09845C5.44507 7.80807 5.05695 6.63891 5.67507 5.05478C5.67507 5.05478 6.6382 4.7462 8.83757 6.23353C9.75757 5.97766 10.7351 5.85116 11.7126 5.84541C12.6901 5.85116 13.6676 5.97766 14.5876 6.23353C16.7726 4.7462 17.7357 5.05478 17.7357 5.05478C18.3538 6.63891 17.9657 7.80807 17.8507 8.09845C18.5838 8.90345 19.0294 9.92886 19.0294 11.1843C19.0294 15.6022 16.3413 16.5749 13.7826 16.8576C14.1851 17.2026 14.5588 17.9079 14.5588 18.9851C14.5588 20.5242 14.5444 21.7604 14.5444 22.1342C14.5444 22.4361 14.7457 22.7954 15.3351 22.6804C19.936 21.172 23.2279 16.8595 23.2279 11.7852C23.2279 5.43428 18.0788 0.285156 11.7279 0.285156Z" fill="#101010"/>
</g>
<defs>
<clipPath id="clip0_84_155">
<rect width="23" height="23" fill="white" transform="translate(0.227905)"/>
</clipPath>
</defs>
</svg>
