<svg width="18" height="18" viewBox="0 0 18 18" fill="none" xmlns="http://www.w3.org/2000/svg">
<g clip-path="url(#clip0_10_43)">
<path d="M9 0.223145C4.0275 0.223145 0 4.25289 0 9.22314C0 13.2004 2.5785 16.5731 6.15375 17.7619C6.60375 17.8466 6.76875 17.5684 6.76875 17.3291C6.76875 17.1154 6.76125 16.5491 6.7575 15.7991C4.254 16.3421 3.726 14.5916 3.726 14.5916C3.3165 13.5529 2.72475 13.2754 2.72475 13.2754C1.9095 12.7174 2.78775 12.7286 2.78775 12.7286C3.6915 12.7916 4.16625 13.6556 4.16625 13.6556C4.96875 15.0319 6.273 14.6344 6.7875 14.4041C6.8685 13.8221 7.10025 13.4254 7.3575 13.2004C5.35875 12.9754 3.258 12.2014 3.258 8.75289C3.258 7.77039 3.60675 6.96789 4.18425 6.33789C4.083 6.11064 3.77925 5.19564 4.263 3.95589C4.263 3.95589 5.01675 3.71439 6.738 4.87839C7.458 4.67814 8.223 4.57914 8.988 4.57464C9.753 4.57914 10.518 4.67814 11.238 4.87839C12.948 3.71439 13.7017 3.95589 13.7017 3.95589C14.1855 5.19564 13.8817 6.11064 13.7917 6.33789C14.3655 6.96789 14.7142 7.77039 14.7142 8.75289C14.7142 12.2104 12.6105 12.9716 10.608 13.1929C10.923 13.4629 11.2155 14.0149 11.2155 14.8579C11.2155 16.0624 11.2042 17.0299 11.2042 17.3224C11.2042 17.5586 11.3617 17.8399 11.823 17.7499C15.4237 16.5694 18 13.1944 18 9.22314C18 4.25289 13.9702 0.223145 9 0.223145Z" fill="white"/>
</g>
<defs>
<clipPath id="clip0_10_43">
<rect width="18" height="18" fill="white"/>
</clipPath>
</defs>
</svg>
