<svg width="18" height="18" viewBox="0 0 18 18" fill="none" xmlns="http://www.w3.org/2000/svg">
<g clip-path="url(#clip0_10_45)">
<path d="M0.0427551 18L1.308 13.3778C0.527255 12.0247 0.117005 10.491 0.117755 8.91825C0.120005 4.00125 4.12125 0 9.0375 0C11.4233 0.00075 13.6628 0.93 15.3473 2.616C17.031 4.302 17.958 6.543 17.9573 8.9265C17.955 13.8443 13.9538 17.8455 9.0375 17.8455C7.545 17.8448 6.07425 17.4705 4.7715 16.7595L0.0427551 18ZM4.9905 15.1448C6.2475 15.891 7.4475 16.338 9.0345 16.3387C13.1205 16.3387 16.449 13.0133 16.4513 8.925C16.4528 4.8285 13.14 1.5075 9.0405 1.506C4.9515 1.506 1.62525 4.8315 1.62375 8.919C1.62301 10.5878 2.112 11.8372 2.93325 13.1445L2.18401 15.8805L4.9905 15.1448ZM13.5308 11.0468C13.4753 10.9537 13.3268 10.8982 13.1033 10.7865C12.8805 10.6748 11.7848 10.1355 11.58 10.0612C11.376 9.987 11.2275 9.9495 11.0783 10.173C10.9298 10.3958 10.5023 10.8982 10.3725 11.0468C10.2428 11.1953 10.1123 11.214 9.8895 11.1023C9.66675 10.9905 8.94825 10.7557 8.097 9.996C7.43475 9.405 6.987 8.67525 6.85725 8.45175C6.7275 8.229 6.84375 8.10825 6.95475 7.99725C7.05525 7.8975 7.1775 7.737 7.28925 7.6065C7.4025 7.4775 7.43925 7.3845 7.51425 7.23525C7.5885 7.08675 7.55175 6.95625 7.4955 6.8445C7.43925 6.7335 6.99375 5.63625 6.8085 5.19C6.627 4.75575 6.44325 4.81425 6.30675 4.8075L5.87925 4.8C5.73075 4.8 5.48925 4.8555 5.28525 5.079C5.08125 5.3025 4.50525 5.841 4.50525 6.93825C4.50525 8.0355 5.304 9.09525 5.415 9.24375C5.52675 9.39225 6.98625 11.6438 9.222 12.609C9.75375 12.8385 10.1693 12.9757 10.4925 13.0785C11.0265 13.248 11.5125 13.224 11.8965 13.167C12.3248 13.1032 13.215 12.6277 13.401 12.1073C13.587 11.586 13.587 11.1398 13.5308 11.0468Z" fill="white"/>
</g>
<defs>
<clipPath id="clip0_10_45">
<rect width="18" height="18" fill="white"/>
</clipPath>
</defs>
</svg>
